%TF.GenerationSoftware,KiCad,Pcbnew,8.0.3+1*%
%TF.CreationDate,2024-06-25T17:55:54-06:00*%
%TF.ProjectId,z80-cpu,7a38302d-6370-4752-9e6b-696361645f70,rev?*%
%TF.SameCoordinates,Original*%
%TF.FileFunction,Drillmap*%
%TF.FilePolarity,Positive*%
%FSLAX45Y45*%
G04 Gerber Fmt 4.5, Leading zero omitted, Abs format (unit mm)*
G04 Created by KiCad (PCBNEW 8.0.3+1) date 2024-06-25 17:55:54*
%MOMM*%
%LPD*%
G01*
G04 APERTURE LIST*
%ADD10C,0.150000*%
%ADD11C,0.200000*%
%ADD12C,0.100000*%
%ADD13C,0.110000*%
G04 APERTURE END LIST*
D10*
X19663740Y-6858000D02*
G75*
G02*
X20181740Y-7376000I0J-518000D01*
G01*
X10271760Y-8359140D02*
X10271760Y-11844020D01*
X10271760Y-11844020D02*
X20181900Y-11844020D01*
X20181900Y-7376000D02*
X20181900Y-11844020D01*
X11772900Y-6858000D02*
X10271760Y-8359140D01*
X19663740Y-6858000D02*
X11772900Y-6858000D01*
D11*
D12*
X12807950Y-11156950D02*
X12846050Y-11195050D01*
X12846050Y-11156950D02*
X12807950Y-11195050D01*
X13823950Y-9632950D02*
X13862050Y-9671050D01*
X13862050Y-9632950D02*
X13823950Y-9671050D01*
X18649950Y-11156950D02*
X18688050Y-11195050D01*
X18688050Y-11156950D02*
X18649950Y-11195050D01*
X11010900Y-9969500D02*
G75*
G02*
X10960100Y-9969500I-25400J0D01*
G01*
X10960100Y-9969500D02*
G75*
G02*
X11010900Y-9969500I25400J0D01*
G01*
X11074400Y-10160000D02*
G75*
G02*
X11023600Y-10160000I-25400J0D01*
G01*
X11023600Y-10160000D02*
G75*
G02*
X11074400Y-10160000I25400J0D01*
G01*
X11201400Y-10287000D02*
G75*
G02*
X11150600Y-10287000I-25400J0D01*
G01*
X11150600Y-10287000D02*
G75*
G02*
X11201400Y-10287000I25400J0D01*
G01*
X11328400Y-10414000D02*
G75*
G02*
X11277600Y-10414000I-25400J0D01*
G01*
X11277600Y-10414000D02*
G75*
G02*
X11328400Y-10414000I25400J0D01*
G01*
X13106400Y-9906000D02*
G75*
G02*
X13055600Y-9906000I-25400J0D01*
G01*
X13055600Y-9906000D02*
G75*
G02*
X13106400Y-9906000I25400J0D01*
G01*
X13360400Y-10033000D02*
G75*
G02*
X13309600Y-10033000I-25400J0D01*
G01*
X13309600Y-10033000D02*
G75*
G02*
X13360400Y-10033000I25400J0D01*
G01*
X13487400Y-8255000D02*
G75*
G02*
X13436600Y-8255000I-25400J0D01*
G01*
X13436600Y-8255000D02*
G75*
G02*
X13487400Y-8255000I25400J0D01*
G01*
X13614400Y-7683500D02*
G75*
G02*
X13563600Y-7683500I-25400J0D01*
G01*
X13563600Y-7683500D02*
G75*
G02*
X13614400Y-7683500I25400J0D01*
G01*
X13614400Y-9779000D02*
G75*
G02*
X13563600Y-9779000I-25400J0D01*
G01*
X13563600Y-9779000D02*
G75*
G02*
X13614400Y-9779000I25400J0D01*
G01*
X13995400Y-7493000D02*
G75*
G02*
X13944600Y-7493000I-25400J0D01*
G01*
X13944600Y-7493000D02*
G75*
G02*
X13995400Y-7493000I25400J0D01*
G01*
X14122400Y-9525000D02*
G75*
G02*
X14071600Y-9525000I-25400J0D01*
G01*
X14071600Y-9525000D02*
G75*
G02*
X14122400Y-9525000I25400J0D01*
G01*
X14376400Y-10160000D02*
G75*
G02*
X14325600Y-10160000I-25400J0D01*
G01*
X14325600Y-10160000D02*
G75*
G02*
X14376400Y-10160000I25400J0D01*
G01*
X14630400Y-9525000D02*
G75*
G02*
X14579600Y-9525000I-25400J0D01*
G01*
X14579600Y-9525000D02*
G75*
G02*
X14630400Y-9525000I25400J0D01*
G01*
X14757400Y-11049000D02*
G75*
G02*
X14706600Y-11049000I-25400J0D01*
G01*
X14706600Y-11049000D02*
G75*
G02*
X14757400Y-11049000I25400J0D01*
G01*
X14820900Y-7683500D02*
G75*
G02*
X14770100Y-7683500I-25400J0D01*
G01*
X14770100Y-7683500D02*
G75*
G02*
X14820900Y-7683500I25400J0D01*
G01*
X14884400Y-10414000D02*
G75*
G02*
X14833600Y-10414000I-25400J0D01*
G01*
X14833600Y-10414000D02*
G75*
G02*
X14884400Y-10414000I25400J0D01*
G01*
X15138400Y-7810500D02*
G75*
G02*
X15087600Y-7810500I-25400J0D01*
G01*
X15087600Y-7810500D02*
G75*
G02*
X15138400Y-7810500I25400J0D01*
G01*
X15138400Y-10287000D02*
G75*
G02*
X15087600Y-10287000I-25400J0D01*
G01*
X15087600Y-10287000D02*
G75*
G02*
X15138400Y-10287000I25400J0D01*
G01*
X16408400Y-11430000D02*
G75*
G02*
X16357600Y-11430000I-25400J0D01*
G01*
X16357600Y-11430000D02*
G75*
G02*
X16408400Y-11430000I25400J0D01*
G01*
X16662400Y-10414000D02*
G75*
G02*
X16611600Y-10414000I-25400J0D01*
G01*
X16611600Y-10414000D02*
G75*
G02*
X16662400Y-10414000I25400J0D01*
G01*
X16725900Y-10287000D02*
G75*
G02*
X16675100Y-10287000I-25400J0D01*
G01*
X16675100Y-10287000D02*
G75*
G02*
X16725900Y-10287000I25400J0D01*
G01*
X16789400Y-10160000D02*
G75*
G02*
X16738600Y-10160000I-25400J0D01*
G01*
X16738600Y-10160000D02*
G75*
G02*
X16789400Y-10160000I25400J0D01*
G01*
X16789400Y-11430000D02*
G75*
G02*
X16738600Y-11430000I-25400J0D01*
G01*
X16738600Y-11430000D02*
G75*
G02*
X16789400Y-11430000I25400J0D01*
G01*
X16852900Y-10033000D02*
G75*
G02*
X16802100Y-10033000I-25400J0D01*
G01*
X16802100Y-10033000D02*
G75*
G02*
X16852900Y-10033000I25400J0D01*
G01*
X16916400Y-9906000D02*
G75*
G02*
X16865600Y-9906000I-25400J0D01*
G01*
X16865600Y-9906000D02*
G75*
G02*
X16916400Y-9906000I25400J0D01*
G01*
X16979900Y-9779000D02*
G75*
G02*
X16929100Y-9779000I-25400J0D01*
G01*
X16929100Y-9779000D02*
G75*
G02*
X16979900Y-9779000I25400J0D01*
G01*
X17043400Y-9652000D02*
G75*
G02*
X16992600Y-9652000I-25400J0D01*
G01*
X16992600Y-9652000D02*
G75*
G02*
X17043400Y-9652000I25400J0D01*
G01*
X17106900Y-9525000D02*
G75*
G02*
X17056100Y-9525000I-25400J0D01*
G01*
X17056100Y-9525000D02*
G75*
G02*
X17106900Y-9525000I25400J0D01*
G01*
X10541000Y-9485000D02*
X10541000Y-9565000D01*
X10501000Y-9525000D02*
X10581000Y-9525000D01*
X10791000Y-9485000D02*
X10791000Y-9565000D01*
X10751000Y-9525000D02*
X10831000Y-9525000D01*
X11176000Y-8981000D02*
X11176000Y-9061000D01*
X11136000Y-9021000D02*
X11216000Y-9021000D01*
X11176000Y-9481000D02*
X11176000Y-9561000D01*
X11136000Y-9521000D02*
X11216000Y-9521000D01*
X11557000Y-9104000D02*
X11557000Y-9184000D01*
X11517000Y-9144000D02*
X11597000Y-9144000D01*
X11557000Y-10628000D02*
X11557000Y-10708000D01*
X11517000Y-10668000D02*
X11597000Y-10668000D01*
X11811000Y-9104000D02*
X11811000Y-9184000D01*
X11771000Y-9144000D02*
X11851000Y-9144000D01*
X11811000Y-10628000D02*
X11811000Y-10708000D01*
X11771000Y-10668000D02*
X11851000Y-10668000D01*
X12065000Y-9104000D02*
X12065000Y-9184000D01*
X12025000Y-9144000D02*
X12105000Y-9144000D01*
X12065000Y-10628000D02*
X12065000Y-10708000D01*
X12025000Y-10668000D02*
X12105000Y-10668000D01*
X12319000Y-9104000D02*
X12319000Y-9184000D01*
X12279000Y-9144000D02*
X12359000Y-9144000D01*
X12319000Y-10628000D02*
X12319000Y-10708000D01*
X12279000Y-10668000D02*
X12359000Y-10668000D01*
X12323000Y-8342000D02*
X12323000Y-8422000D01*
X12283000Y-8382000D02*
X12363000Y-8382000D01*
X12327000Y-8088000D02*
X12327000Y-8168000D01*
X12287000Y-8128000D02*
X12367000Y-8128000D01*
X12573000Y-9104000D02*
X12573000Y-9184000D01*
X12533000Y-9144000D02*
X12613000Y-9144000D01*
X12573000Y-10628000D02*
X12573000Y-10708000D01*
X12533000Y-10668000D02*
X12613000Y-10668000D01*
X12823000Y-8342000D02*
X12823000Y-8422000D01*
X12783000Y-8382000D02*
X12863000Y-8382000D01*
X12827000Y-7199000D02*
X12827000Y-7279000D01*
X12787000Y-7239000D02*
X12867000Y-7239000D01*
X12827000Y-7699000D02*
X12827000Y-7779000D01*
X12787000Y-7739000D02*
X12867000Y-7739000D01*
X12827000Y-8088000D02*
X12827000Y-8168000D01*
X12787000Y-8128000D02*
X12867000Y-8128000D01*
X12827000Y-9104000D02*
X12827000Y-9184000D01*
X12787000Y-9144000D02*
X12867000Y-9144000D01*
X12827000Y-10628000D02*
X12827000Y-10708000D01*
X12787000Y-10668000D02*
X12867000Y-10668000D01*
X13081000Y-9104000D02*
X13081000Y-9184000D01*
X13041000Y-9144000D02*
X13121000Y-9144000D01*
X13081000Y-10628000D02*
X13081000Y-10708000D01*
X13041000Y-10668000D02*
X13121000Y-10668000D01*
X13208000Y-7199000D02*
X13208000Y-7279000D01*
X13168000Y-7239000D02*
X13248000Y-7239000D01*
X13208000Y-7961000D02*
X13208000Y-8041000D01*
X13168000Y-8001000D02*
X13248000Y-8001000D01*
X13335000Y-9104000D02*
X13335000Y-9184000D01*
X13295000Y-9144000D02*
X13375000Y-9144000D01*
X13335000Y-10628000D02*
X13335000Y-10708000D01*
X13295000Y-10668000D02*
X13375000Y-10668000D01*
X13462000Y-7199000D02*
X13462000Y-7279000D01*
X13422000Y-7239000D02*
X13502000Y-7239000D01*
X13462000Y-7961000D02*
X13462000Y-8041000D01*
X13422000Y-8001000D02*
X13502000Y-8001000D01*
X13589000Y-9104000D02*
X13589000Y-9184000D01*
X13549000Y-9144000D02*
X13629000Y-9144000D01*
X13589000Y-10628000D02*
X13589000Y-10708000D01*
X13549000Y-10668000D02*
X13629000Y-10668000D01*
X13716000Y-7199000D02*
X13716000Y-7279000D01*
X13676000Y-7239000D02*
X13756000Y-7239000D01*
X13716000Y-7961000D02*
X13716000Y-8041000D01*
X13676000Y-8001000D02*
X13756000Y-8001000D01*
X13843000Y-9104000D02*
X13843000Y-9184000D01*
X13803000Y-9144000D02*
X13883000Y-9144000D01*
X13843000Y-10628000D02*
X13843000Y-10708000D01*
X13803000Y-10668000D02*
X13883000Y-10668000D01*
X13970000Y-7199000D02*
X13970000Y-7279000D01*
X13930000Y-7239000D02*
X14010000Y-7239000D01*
X13970000Y-7961000D02*
X13970000Y-8041000D01*
X13930000Y-8001000D02*
X14010000Y-8001000D01*
X14097000Y-9104000D02*
X14097000Y-9184000D01*
X14057000Y-9144000D02*
X14137000Y-9144000D01*
X14097000Y-10628000D02*
X14097000Y-10708000D01*
X14057000Y-10668000D02*
X14137000Y-10668000D01*
X14351000Y-9104000D02*
X14351000Y-9184000D01*
X14311000Y-9144000D02*
X14391000Y-9144000D01*
X14351000Y-10628000D02*
X14351000Y-10708000D01*
X14311000Y-10668000D02*
X14391000Y-10668000D01*
X14478000Y-7072000D02*
X14478000Y-7152000D01*
X14438000Y-7112000D02*
X14518000Y-7112000D01*
X14478000Y-8088000D02*
X14478000Y-8168000D01*
X14438000Y-8128000D02*
X14518000Y-8128000D01*
X14605000Y-9104000D02*
X14605000Y-9184000D01*
X14565000Y-9144000D02*
X14645000Y-9144000D01*
X14605000Y-10628000D02*
X14605000Y-10708000D01*
X14565000Y-10668000D02*
X14645000Y-10668000D01*
X14731000Y-8514000D02*
X14731000Y-8594000D01*
X14691000Y-8554000D02*
X14771000Y-8554000D01*
X14795500Y-7072000D02*
X14795500Y-7152000D01*
X14755500Y-7112000D02*
X14835500Y-7112000D01*
X14795500Y-8088000D02*
X14795500Y-8168000D01*
X14755500Y-8128000D02*
X14835500Y-8128000D01*
X14859000Y-9104000D02*
X14859000Y-9184000D01*
X14819000Y-9144000D02*
X14899000Y-9144000D01*
X14859000Y-10628000D02*
X14859000Y-10708000D01*
X14819000Y-10668000D02*
X14899000Y-10668000D01*
X14985000Y-8514000D02*
X14985000Y-8594000D01*
X14945000Y-8554000D02*
X15025000Y-8554000D01*
X15113000Y-7072000D02*
X15113000Y-7152000D01*
X15073000Y-7112000D02*
X15153000Y-7112000D01*
X15113000Y-8088000D02*
X15113000Y-8168000D01*
X15073000Y-8128000D02*
X15153000Y-8128000D01*
X15113000Y-9104000D02*
X15113000Y-9184000D01*
X15073000Y-9144000D02*
X15153000Y-9144000D01*
X15113000Y-10628000D02*
X15113000Y-10708000D01*
X15073000Y-10668000D02*
X15153000Y-10668000D01*
X15239000Y-8514000D02*
X15239000Y-8594000D01*
X15199000Y-8554000D02*
X15279000Y-8554000D01*
X15367000Y-9104000D02*
X15367000Y-9184000D01*
X15327000Y-9144000D02*
X15407000Y-9144000D01*
X15367000Y-10628000D02*
X15367000Y-10708000D01*
X15327000Y-10668000D02*
X15407000Y-10668000D01*
X15430500Y-7072000D02*
X15430500Y-7152000D01*
X15390500Y-7112000D02*
X15470500Y-7112000D01*
X15430500Y-8088000D02*
X15430500Y-8168000D01*
X15390500Y-8128000D02*
X15470500Y-8128000D01*
X15621000Y-9104000D02*
X15621000Y-9184000D01*
X15581000Y-9144000D02*
X15661000Y-9144000D01*
X15621000Y-10628000D02*
X15621000Y-10708000D01*
X15581000Y-10668000D02*
X15661000Y-10668000D01*
X15748000Y-7072000D02*
X15748000Y-7152000D01*
X15708000Y-7112000D02*
X15788000Y-7112000D01*
X15748000Y-8088000D02*
X15748000Y-8168000D01*
X15708000Y-8128000D02*
X15788000Y-8128000D01*
X15875000Y-9104000D02*
X15875000Y-9184000D01*
X15835000Y-9144000D02*
X15915000Y-9144000D01*
X15875000Y-10628000D02*
X15875000Y-10708000D01*
X15835000Y-10668000D02*
X15915000Y-10668000D01*
X16065500Y-7072000D02*
X16065500Y-7152000D01*
X16025500Y-7112000D02*
X16105500Y-7112000D01*
X16065500Y-8088000D02*
X16065500Y-8168000D01*
X16025500Y-8128000D02*
X16105500Y-8128000D01*
X16129000Y-9104000D02*
X16129000Y-9184000D01*
X16089000Y-9144000D02*
X16169000Y-9144000D01*
X16129000Y-10628000D02*
X16129000Y-10708000D01*
X16089000Y-10668000D02*
X16169000Y-10668000D01*
X16383000Y-7072000D02*
X16383000Y-7152000D01*
X16343000Y-7112000D02*
X16423000Y-7112000D01*
X16383000Y-8088000D02*
X16383000Y-8168000D01*
X16343000Y-8128000D02*
X16423000Y-8128000D01*
X16383000Y-9104000D02*
X16383000Y-9184000D01*
X16343000Y-9144000D02*
X16423000Y-9144000D01*
X16383000Y-10628000D02*
X16383000Y-10708000D01*
X16343000Y-10668000D02*
X16423000Y-10668000D01*
X16700500Y-7072000D02*
X16700500Y-7152000D01*
X16660500Y-7112000D02*
X16740500Y-7112000D01*
X16700500Y-8088000D02*
X16700500Y-8168000D01*
X16660500Y-8128000D02*
X16740500Y-8128000D01*
X17653000Y-7330000D02*
X17653000Y-7410000D01*
X17613000Y-7370000D02*
X17693000Y-7370000D01*
X17653000Y-7830000D02*
X17653000Y-7910000D01*
X17613000Y-7870000D02*
X17693000Y-7870000D01*
X17780000Y-8854000D02*
X17780000Y-8934000D01*
X17740000Y-8894000D02*
X17820000Y-8894000D01*
X17780000Y-9354000D02*
X17780000Y-9434000D01*
X17740000Y-9394000D02*
X17820000Y-9394000D01*
X18161000Y-8723000D02*
X18161000Y-8803000D01*
X18121000Y-8763000D02*
X18201000Y-8763000D01*
X18161000Y-9485000D02*
X18161000Y-9565000D01*
X18121000Y-9525000D02*
X18201000Y-9525000D01*
X18415000Y-8723000D02*
X18415000Y-8803000D01*
X18375000Y-8763000D02*
X18455000Y-8763000D01*
X18415000Y-9485000D02*
X18415000Y-9565000D01*
X18375000Y-9525000D02*
X18455000Y-9525000D01*
X18669000Y-8723000D02*
X18669000Y-8803000D01*
X18629000Y-8763000D02*
X18709000Y-8763000D01*
X18669000Y-9485000D02*
X18669000Y-9565000D01*
X18629000Y-9525000D02*
X18709000Y-9525000D01*
X18923000Y-8723000D02*
X18923000Y-8803000D01*
X18883000Y-8763000D02*
X18963000Y-8763000D01*
X18923000Y-9485000D02*
X18923000Y-9565000D01*
X18883000Y-9525000D02*
X18963000Y-9525000D01*
X19177000Y-8723000D02*
X19177000Y-8803000D01*
X19137000Y-8763000D02*
X19217000Y-8763000D01*
X19177000Y-9485000D02*
X19177000Y-9565000D01*
X19137000Y-9525000D02*
X19217000Y-9525000D01*
X19431000Y-8723000D02*
X19431000Y-8803000D01*
X19391000Y-8763000D02*
X19471000Y-8763000D01*
X19431000Y-9485000D02*
X19431000Y-9565000D01*
X19391000Y-9525000D02*
X19471000Y-9525000D01*
X19685000Y-8723000D02*
X19685000Y-8803000D01*
X19645000Y-8763000D02*
X19725000Y-8763000D01*
X19685000Y-9485000D02*
X19685000Y-9565000D01*
X19645000Y-9525000D02*
X19725000Y-9525000D01*
X10449356Y-11719356D02*
X10449356Y-11648644D01*
X10378644Y-11648644D01*
X10378644Y-11719356D01*
X10449356Y-11719356D01*
X10703356Y-11719356D02*
X10703356Y-11648644D01*
X10632644Y-11648644D01*
X10632644Y-11719356D01*
X10703356Y-11719356D01*
X10957356Y-11719356D02*
X10957356Y-11648644D01*
X10886644Y-11648644D01*
X10886644Y-11719356D01*
X10957356Y-11719356D01*
X11211356Y-11719356D02*
X11211356Y-11648644D01*
X11140644Y-11648644D01*
X11140644Y-11719356D01*
X11211356Y-11719356D01*
X11465356Y-11719356D02*
X11465356Y-11648644D01*
X11394644Y-11648644D01*
X11394644Y-11719356D01*
X11465356Y-11719356D01*
X11719356Y-11719356D02*
X11719356Y-11648644D01*
X11648644Y-11648644D01*
X11648644Y-11719356D01*
X11719356Y-11719356D01*
X11973356Y-11719356D02*
X11973356Y-11648644D01*
X11902644Y-11648644D01*
X11902644Y-11719356D01*
X11973356Y-11719356D01*
X12227356Y-11719356D02*
X12227356Y-11648644D01*
X12156644Y-11648644D01*
X12156644Y-11719356D01*
X12227356Y-11719356D01*
X12481356Y-11719356D02*
X12481356Y-11648644D01*
X12410644Y-11648644D01*
X12410644Y-11719356D01*
X12481356Y-11719356D01*
X12735356Y-11719356D02*
X12735356Y-11648644D01*
X12664644Y-11648644D01*
X12664644Y-11719356D01*
X12735356Y-11719356D01*
X12989356Y-11719356D02*
X12989356Y-11648644D01*
X12918644Y-11648644D01*
X12918644Y-11719356D01*
X12989356Y-11719356D01*
X13243356Y-11719356D02*
X13243356Y-11648644D01*
X13172644Y-11648644D01*
X13172644Y-11719356D01*
X13243356Y-11719356D01*
X13497356Y-11719356D02*
X13497356Y-11648644D01*
X13426644Y-11648644D01*
X13426644Y-11719356D01*
X13497356Y-11719356D01*
X13751356Y-11719356D02*
X13751356Y-11648644D01*
X13680644Y-11648644D01*
X13680644Y-11719356D01*
X13751356Y-11719356D01*
X14005356Y-11719356D02*
X14005356Y-11648644D01*
X13934644Y-11648644D01*
X13934644Y-11719356D01*
X14005356Y-11719356D01*
X14259356Y-11719356D02*
X14259356Y-11648644D01*
X14188644Y-11648644D01*
X14188644Y-11719356D01*
X14259356Y-11719356D01*
X14513356Y-11719356D02*
X14513356Y-11648644D01*
X14442644Y-11648644D01*
X14442644Y-11719356D01*
X14513356Y-11719356D01*
X14767356Y-11719356D02*
X14767356Y-11648644D01*
X14696644Y-11648644D01*
X14696644Y-11719356D01*
X14767356Y-11719356D01*
X15021356Y-11719356D02*
X15021356Y-11648644D01*
X14950644Y-11648644D01*
X14950644Y-11719356D01*
X15021356Y-11719356D01*
X15275356Y-11719356D02*
X15275356Y-11648644D01*
X15204644Y-11648644D01*
X15204644Y-11719356D01*
X15275356Y-11719356D01*
X15529356Y-11719356D02*
X15529356Y-11648644D01*
X15458644Y-11648644D01*
X15458644Y-11719356D01*
X15529356Y-11719356D01*
X15783356Y-11719356D02*
X15783356Y-11648644D01*
X15712644Y-11648644D01*
X15712644Y-11719356D01*
X15783356Y-11719356D01*
X16037356Y-11719356D02*
X16037356Y-11648644D01*
X15966644Y-11648644D01*
X15966644Y-11719356D01*
X16037356Y-11719356D01*
X16291356Y-11719356D02*
X16291356Y-11648644D01*
X16220644Y-11648644D01*
X16220644Y-11719356D01*
X16291356Y-11719356D01*
X16545356Y-11719356D02*
X16545356Y-11648644D01*
X16474644Y-11648644D01*
X16474644Y-11719356D01*
X16545356Y-11719356D01*
X16799356Y-11719356D02*
X16799356Y-11648644D01*
X16728644Y-11648644D01*
X16728644Y-11719356D01*
X16799356Y-11719356D01*
X17053356Y-11719356D02*
X17053356Y-11648644D01*
X16982644Y-11648644D01*
X16982644Y-11719356D01*
X17053356Y-11719356D01*
X17307356Y-11719356D02*
X17307356Y-11648644D01*
X17236644Y-11648644D01*
X17236644Y-11719356D01*
X17307356Y-11719356D01*
X17561356Y-11719356D02*
X17561356Y-11648644D01*
X17490644Y-11648644D01*
X17490644Y-11719356D01*
X17561356Y-11719356D01*
X17688356Y-10068356D02*
X17688356Y-9997644D01*
X17617644Y-9997644D01*
X17617644Y-10068356D01*
X17688356Y-10068356D01*
X17688356Y-10322356D02*
X17688356Y-10251644D01*
X17617644Y-10251644D01*
X17617644Y-10322356D01*
X17688356Y-10322356D01*
X17815356Y-11719356D02*
X17815356Y-11648644D01*
X17744644Y-11648644D01*
X17744644Y-11719356D01*
X17815356Y-11719356D01*
X17942356Y-10068356D02*
X17942356Y-9997644D01*
X17871644Y-9997644D01*
X17871644Y-10068356D01*
X17942356Y-10068356D01*
X17942356Y-10322356D02*
X17942356Y-10251644D01*
X17871644Y-10251644D01*
X17871644Y-10322356D01*
X17942356Y-10322356D01*
X18069356Y-11719356D02*
X18069356Y-11648644D01*
X17998644Y-11648644D01*
X17998644Y-11719356D01*
X18069356Y-11719356D01*
X18196356Y-7401356D02*
X18196356Y-7330644D01*
X18125644Y-7330644D01*
X18125644Y-7401356D01*
X18196356Y-7401356D01*
X18196356Y-8163356D02*
X18196356Y-8092644D01*
X18125644Y-8092644D01*
X18125644Y-8163356D01*
X18196356Y-8163356D01*
X18196356Y-10068356D02*
X18196356Y-9997644D01*
X18125644Y-9997644D01*
X18125644Y-10068356D01*
X18196356Y-10068356D01*
X18196356Y-10322356D02*
X18196356Y-10251644D01*
X18125644Y-10251644D01*
X18125644Y-10322356D01*
X18196356Y-10322356D01*
X18323356Y-11719356D02*
X18323356Y-11648644D01*
X18252644Y-11648644D01*
X18252644Y-11719356D01*
X18323356Y-11719356D01*
X18450356Y-10068356D02*
X18450356Y-9997644D01*
X18379644Y-9997644D01*
X18379644Y-10068356D01*
X18450356Y-10068356D01*
X18450356Y-10322356D02*
X18450356Y-10251644D01*
X18379644Y-10251644D01*
X18379644Y-10322356D01*
X18450356Y-10322356D01*
X18577356Y-11719356D02*
X18577356Y-11648644D01*
X18506644Y-11648644D01*
X18506644Y-11719356D01*
X18577356Y-11719356D01*
X18704356Y-10068356D02*
X18704356Y-9997644D01*
X18633644Y-9997644D01*
X18633644Y-10068356D01*
X18704356Y-10068356D01*
X18704356Y-10322356D02*
X18704356Y-10251644D01*
X18633644Y-10251644D01*
X18633644Y-10322356D01*
X18704356Y-10322356D01*
X18831356Y-11719356D02*
X18831356Y-11648644D01*
X18760644Y-11648644D01*
X18760644Y-11719356D01*
X18831356Y-11719356D01*
X18958356Y-7401356D02*
X18958356Y-7330644D01*
X18887644Y-7330644D01*
X18887644Y-7401356D01*
X18958356Y-7401356D01*
X18958356Y-8163356D02*
X18958356Y-8092644D01*
X18887644Y-8092644D01*
X18887644Y-8163356D01*
X18958356Y-8163356D01*
X18958356Y-10068356D02*
X18958356Y-9997644D01*
X18887644Y-9997644D01*
X18887644Y-10068356D01*
X18958356Y-10068356D01*
X18958356Y-10322356D02*
X18958356Y-10251644D01*
X18887644Y-10251644D01*
X18887644Y-10322356D01*
X18958356Y-10322356D01*
X19085356Y-11719356D02*
X19085356Y-11648644D01*
X19014644Y-11648644D01*
X19014644Y-11719356D01*
X19085356Y-11719356D01*
X19212356Y-10068356D02*
X19212356Y-9997644D01*
X19141644Y-9997644D01*
X19141644Y-10068356D01*
X19212356Y-10068356D01*
X19212356Y-10322356D02*
X19212356Y-10251644D01*
X19141644Y-10251644D01*
X19141644Y-10322356D01*
X19212356Y-10322356D01*
X19339356Y-11719356D02*
X19339356Y-11648644D01*
X19268644Y-11648644D01*
X19268644Y-11719356D01*
X19339356Y-11719356D01*
X19466356Y-10068356D02*
X19466356Y-9997644D01*
X19395644Y-9997644D01*
X19395644Y-10068356D01*
X19466356Y-10068356D01*
X19466356Y-10322356D02*
X19466356Y-10251644D01*
X19395644Y-10251644D01*
X19395644Y-10322356D01*
X19466356Y-10322356D01*
X19593356Y-11719356D02*
X19593356Y-11648644D01*
X19522644Y-11648644D01*
X19522644Y-11719356D01*
X19593356Y-11719356D01*
X19720356Y-7401356D02*
X19720356Y-7330644D01*
X19649644Y-7330644D01*
X19649644Y-7401356D01*
X19720356Y-7401356D01*
X19720356Y-8163356D02*
X19720356Y-8092644D01*
X19649644Y-8092644D01*
X19649644Y-8163356D01*
X19720356Y-8163356D01*
X19720356Y-10068356D02*
X19720356Y-9997644D01*
X19649644Y-9997644D01*
X19649644Y-10068356D01*
X19720356Y-10068356D01*
X19720356Y-10322356D02*
X19720356Y-10251644D01*
X19649644Y-10251644D01*
X19649644Y-10322356D01*
X19720356Y-10322356D01*
X19847356Y-11719356D02*
X19847356Y-11648644D01*
X19776644Y-11648644D01*
X19776644Y-11719356D01*
X19847356Y-11719356D01*
X20101356Y-11719356D02*
X20101356Y-11648644D01*
X20030644Y-11648644D01*
X20030644Y-11719356D01*
X20101356Y-11719356D01*
D13*
X11422091Y-7618711D02*
X11477091Y-7563711D01*
X11422091Y-7508711D01*
X11367091Y-7563711D01*
X11422091Y-7618711D01*
X11740289Y-7936909D02*
X11795289Y-7881909D01*
X11740289Y-7826909D01*
X11685289Y-7881909D01*
X11740289Y-7936909D01*
X11881711Y-7159091D02*
X11936711Y-7104091D01*
X11881711Y-7049091D01*
X11826711Y-7104091D01*
X11881711Y-7159091D01*
X12199909Y-7477289D02*
X12254909Y-7422289D01*
X12199909Y-7367289D01*
X12144909Y-7422289D01*
X12199909Y-7477289D01*
D11*
X10525037Y-12163004D02*
X10525037Y-11963004D01*
X10525037Y-11963004D02*
X10572656Y-11963004D01*
X10572656Y-11963004D02*
X10601227Y-11972528D01*
X10601227Y-11972528D02*
X10620275Y-11991575D01*
X10620275Y-11991575D02*
X10629799Y-12010623D01*
X10629799Y-12010623D02*
X10639323Y-12048718D01*
X10639323Y-12048718D02*
X10639323Y-12077289D01*
X10639323Y-12077289D02*
X10629799Y-12115385D01*
X10629799Y-12115385D02*
X10620275Y-12134432D01*
X10620275Y-12134432D02*
X10601227Y-12153480D01*
X10601227Y-12153480D02*
X10572656Y-12163004D01*
X10572656Y-12163004D02*
X10525037Y-12163004D01*
X10725037Y-12163004D02*
X10725037Y-12029670D01*
X10725037Y-12067766D02*
X10734561Y-12048718D01*
X10734561Y-12048718D02*
X10744084Y-12039194D01*
X10744084Y-12039194D02*
X10763132Y-12029670D01*
X10763132Y-12029670D02*
X10782180Y-12029670D01*
X10848846Y-12163004D02*
X10848846Y-12029670D01*
X10848846Y-11963004D02*
X10839323Y-11972528D01*
X10839323Y-11972528D02*
X10848846Y-11982051D01*
X10848846Y-11982051D02*
X10858370Y-11972528D01*
X10858370Y-11972528D02*
X10848846Y-11963004D01*
X10848846Y-11963004D02*
X10848846Y-11982051D01*
X10972656Y-12163004D02*
X10953608Y-12153480D01*
X10953608Y-12153480D02*
X10944084Y-12134432D01*
X10944084Y-12134432D02*
X10944084Y-11963004D01*
X11077418Y-12163004D02*
X11058370Y-12153480D01*
X11058370Y-12153480D02*
X11048846Y-12134432D01*
X11048846Y-12134432D02*
X11048846Y-11963004D01*
X11305989Y-12163004D02*
X11305989Y-11963004D01*
X11305989Y-11963004D02*
X11372656Y-12105861D01*
X11372656Y-12105861D02*
X11439322Y-11963004D01*
X11439322Y-11963004D02*
X11439322Y-12163004D01*
X11620275Y-12163004D02*
X11620275Y-12058242D01*
X11620275Y-12058242D02*
X11610751Y-12039194D01*
X11610751Y-12039194D02*
X11591703Y-12029670D01*
X11591703Y-12029670D02*
X11553608Y-12029670D01*
X11553608Y-12029670D02*
X11534561Y-12039194D01*
X11620275Y-12153480D02*
X11601227Y-12163004D01*
X11601227Y-12163004D02*
X11553608Y-12163004D01*
X11553608Y-12163004D02*
X11534561Y-12153480D01*
X11534561Y-12153480D02*
X11525037Y-12134432D01*
X11525037Y-12134432D02*
X11525037Y-12115385D01*
X11525037Y-12115385D02*
X11534561Y-12096337D01*
X11534561Y-12096337D02*
X11553608Y-12086813D01*
X11553608Y-12086813D02*
X11601227Y-12086813D01*
X11601227Y-12086813D02*
X11620275Y-12077289D01*
X11715513Y-12029670D02*
X11715513Y-12229670D01*
X11715513Y-12039194D02*
X11734561Y-12029670D01*
X11734561Y-12029670D02*
X11772656Y-12029670D01*
X11772656Y-12029670D02*
X11791703Y-12039194D01*
X11791703Y-12039194D02*
X11801227Y-12048718D01*
X11801227Y-12048718D02*
X11810751Y-12067766D01*
X11810751Y-12067766D02*
X11810751Y-12124908D01*
X11810751Y-12124908D02*
X11801227Y-12143956D01*
X11801227Y-12143956D02*
X11791703Y-12153480D01*
X11791703Y-12153480D02*
X11772656Y-12163004D01*
X11772656Y-12163004D02*
X11734561Y-12163004D01*
X11734561Y-12163004D02*
X11715513Y-12153480D01*
X11896465Y-12143956D02*
X11905989Y-12153480D01*
X11905989Y-12153480D02*
X11896465Y-12163004D01*
X11896465Y-12163004D02*
X11886942Y-12153480D01*
X11886942Y-12153480D02*
X11896465Y-12143956D01*
X11896465Y-12143956D02*
X11896465Y-12163004D01*
X11896465Y-12039194D02*
X11905989Y-12048718D01*
X11905989Y-12048718D02*
X11896465Y-12058242D01*
X11896465Y-12058242D02*
X11886942Y-12048718D01*
X11886942Y-12048718D02*
X11896465Y-12039194D01*
X11896465Y-12039194D02*
X11896465Y-12058242D01*
D12*
X10226160Y-12472470D02*
X10264260Y-12510570D01*
X10264260Y-12472470D02*
X10226160Y-12510570D01*
D11*
X10563132Y-12383004D02*
X10582180Y-12383004D01*
X10582180Y-12383004D02*
X10601227Y-12392528D01*
X10601227Y-12392528D02*
X10610751Y-12402051D01*
X10610751Y-12402051D02*
X10620275Y-12421099D01*
X10620275Y-12421099D02*
X10629799Y-12459194D01*
X10629799Y-12459194D02*
X10629799Y-12506813D01*
X10629799Y-12506813D02*
X10620275Y-12544908D01*
X10620275Y-12544908D02*
X10610751Y-12563956D01*
X10610751Y-12563956D02*
X10601227Y-12573480D01*
X10601227Y-12573480D02*
X10582180Y-12583004D01*
X10582180Y-12583004D02*
X10563132Y-12583004D01*
X10563132Y-12583004D02*
X10544084Y-12573480D01*
X10544084Y-12573480D02*
X10534561Y-12563956D01*
X10534561Y-12563956D02*
X10525037Y-12544908D01*
X10525037Y-12544908D02*
X10515513Y-12506813D01*
X10515513Y-12506813D02*
X10515513Y-12459194D01*
X10515513Y-12459194D02*
X10525037Y-12421099D01*
X10525037Y-12421099D02*
X10534561Y-12402051D01*
X10534561Y-12402051D02*
X10544084Y-12392528D01*
X10544084Y-12392528D02*
X10563132Y-12383004D01*
X10715513Y-12563956D02*
X10725037Y-12573480D01*
X10725037Y-12573480D02*
X10715513Y-12583004D01*
X10715513Y-12583004D02*
X10705989Y-12573480D01*
X10705989Y-12573480D02*
X10715513Y-12563956D01*
X10715513Y-12563956D02*
X10715513Y-12583004D01*
X10791704Y-12383004D02*
X10915513Y-12383004D01*
X10915513Y-12383004D02*
X10848846Y-12459194D01*
X10848846Y-12459194D02*
X10877418Y-12459194D01*
X10877418Y-12459194D02*
X10896465Y-12468718D01*
X10896465Y-12468718D02*
X10905989Y-12478242D01*
X10905989Y-12478242D02*
X10915513Y-12497289D01*
X10915513Y-12497289D02*
X10915513Y-12544908D01*
X10915513Y-12544908D02*
X10905989Y-12563956D01*
X10905989Y-12563956D02*
X10896465Y-12573480D01*
X10896465Y-12573480D02*
X10877418Y-12583004D01*
X10877418Y-12583004D02*
X10820275Y-12583004D01*
X10820275Y-12583004D02*
X10801227Y-12573480D01*
X10801227Y-12573480D02*
X10791704Y-12563956D01*
X11029799Y-12468718D02*
X11010751Y-12459194D01*
X11010751Y-12459194D02*
X11001227Y-12449670D01*
X11001227Y-12449670D02*
X10991704Y-12430623D01*
X10991704Y-12430623D02*
X10991704Y-12421099D01*
X10991704Y-12421099D02*
X11001227Y-12402051D01*
X11001227Y-12402051D02*
X11010751Y-12392528D01*
X11010751Y-12392528D02*
X11029799Y-12383004D01*
X11029799Y-12383004D02*
X11067894Y-12383004D01*
X11067894Y-12383004D02*
X11086942Y-12392528D01*
X11086942Y-12392528D02*
X11096465Y-12402051D01*
X11096465Y-12402051D02*
X11105989Y-12421099D01*
X11105989Y-12421099D02*
X11105989Y-12430623D01*
X11105989Y-12430623D02*
X11096465Y-12449670D01*
X11096465Y-12449670D02*
X11086942Y-12459194D01*
X11086942Y-12459194D02*
X11067894Y-12468718D01*
X11067894Y-12468718D02*
X11029799Y-12468718D01*
X11029799Y-12468718D02*
X11010751Y-12478242D01*
X11010751Y-12478242D02*
X11001227Y-12487766D01*
X11001227Y-12487766D02*
X10991704Y-12506813D01*
X10991704Y-12506813D02*
X10991704Y-12544908D01*
X10991704Y-12544908D02*
X11001227Y-12563956D01*
X11001227Y-12563956D02*
X11010751Y-12573480D01*
X11010751Y-12573480D02*
X11029799Y-12583004D01*
X11029799Y-12583004D02*
X11067894Y-12583004D01*
X11067894Y-12583004D02*
X11086942Y-12573480D01*
X11086942Y-12573480D02*
X11096465Y-12563956D01*
X11096465Y-12563956D02*
X11105989Y-12544908D01*
X11105989Y-12544908D02*
X11105989Y-12506813D01*
X11105989Y-12506813D02*
X11096465Y-12487766D01*
X11096465Y-12487766D02*
X11086942Y-12478242D01*
X11086942Y-12478242D02*
X11067894Y-12468718D01*
X11296465Y-12583004D02*
X11182180Y-12583004D01*
X11239322Y-12583004D02*
X11239322Y-12383004D01*
X11239322Y-12383004D02*
X11220275Y-12411575D01*
X11220275Y-12411575D02*
X11201227Y-12430623D01*
X11201227Y-12430623D02*
X11182180Y-12440147D01*
X11382180Y-12583004D02*
X11382180Y-12449670D01*
X11382180Y-12468718D02*
X11391703Y-12459194D01*
X11391703Y-12459194D02*
X11410751Y-12449670D01*
X11410751Y-12449670D02*
X11439323Y-12449670D01*
X11439323Y-12449670D02*
X11458370Y-12459194D01*
X11458370Y-12459194D02*
X11467894Y-12478242D01*
X11467894Y-12478242D02*
X11467894Y-12583004D01*
X11467894Y-12478242D02*
X11477418Y-12459194D01*
X11477418Y-12459194D02*
X11496465Y-12449670D01*
X11496465Y-12449670D02*
X11525037Y-12449670D01*
X11525037Y-12449670D02*
X11544084Y-12459194D01*
X11544084Y-12459194D02*
X11553608Y-12478242D01*
X11553608Y-12478242D02*
X11553608Y-12583004D01*
X11648846Y-12583004D02*
X11648846Y-12449670D01*
X11648846Y-12468718D02*
X11658370Y-12459194D01*
X11658370Y-12459194D02*
X11677418Y-12449670D01*
X11677418Y-12449670D02*
X11705989Y-12449670D01*
X11705989Y-12449670D02*
X11725037Y-12459194D01*
X11725037Y-12459194D02*
X11734561Y-12478242D01*
X11734561Y-12478242D02*
X11734561Y-12583004D01*
X11734561Y-12478242D02*
X11744084Y-12459194D01*
X11744084Y-12459194D02*
X11763132Y-12449670D01*
X11763132Y-12449670D02*
X11791703Y-12449670D01*
X11791703Y-12449670D02*
X11810751Y-12459194D01*
X11810751Y-12459194D02*
X11820275Y-12478242D01*
X11820275Y-12478242D02*
X11820275Y-12583004D01*
X12210751Y-12373480D02*
X12039323Y-12630623D01*
X12467894Y-12383004D02*
X12486942Y-12383004D01*
X12486942Y-12383004D02*
X12505989Y-12392528D01*
X12505989Y-12392528D02*
X12515513Y-12402051D01*
X12515513Y-12402051D02*
X12525037Y-12421099D01*
X12525037Y-12421099D02*
X12534561Y-12459194D01*
X12534561Y-12459194D02*
X12534561Y-12506813D01*
X12534561Y-12506813D02*
X12525037Y-12544908D01*
X12525037Y-12544908D02*
X12515513Y-12563956D01*
X12515513Y-12563956D02*
X12505989Y-12573480D01*
X12505989Y-12573480D02*
X12486942Y-12583004D01*
X12486942Y-12583004D02*
X12467894Y-12583004D01*
X12467894Y-12583004D02*
X12448846Y-12573480D01*
X12448846Y-12573480D02*
X12439323Y-12563956D01*
X12439323Y-12563956D02*
X12429799Y-12544908D01*
X12429799Y-12544908D02*
X12420275Y-12506813D01*
X12420275Y-12506813D02*
X12420275Y-12459194D01*
X12420275Y-12459194D02*
X12429799Y-12421099D01*
X12429799Y-12421099D02*
X12439323Y-12402051D01*
X12439323Y-12402051D02*
X12448846Y-12392528D01*
X12448846Y-12392528D02*
X12467894Y-12383004D01*
X12620275Y-12563956D02*
X12629799Y-12573480D01*
X12629799Y-12573480D02*
X12620275Y-12583004D01*
X12620275Y-12583004D02*
X12610751Y-12573480D01*
X12610751Y-12573480D02*
X12620275Y-12563956D01*
X12620275Y-12563956D02*
X12620275Y-12583004D01*
X12753608Y-12383004D02*
X12772656Y-12383004D01*
X12772656Y-12383004D02*
X12791704Y-12392528D01*
X12791704Y-12392528D02*
X12801227Y-12402051D01*
X12801227Y-12402051D02*
X12810751Y-12421099D01*
X12810751Y-12421099D02*
X12820275Y-12459194D01*
X12820275Y-12459194D02*
X12820275Y-12506813D01*
X12820275Y-12506813D02*
X12810751Y-12544908D01*
X12810751Y-12544908D02*
X12801227Y-12563956D01*
X12801227Y-12563956D02*
X12791704Y-12573480D01*
X12791704Y-12573480D02*
X12772656Y-12583004D01*
X12772656Y-12583004D02*
X12753608Y-12583004D01*
X12753608Y-12583004D02*
X12734561Y-12573480D01*
X12734561Y-12573480D02*
X12725037Y-12563956D01*
X12725037Y-12563956D02*
X12715513Y-12544908D01*
X12715513Y-12544908D02*
X12705989Y-12506813D01*
X12705989Y-12506813D02*
X12705989Y-12459194D01*
X12705989Y-12459194D02*
X12715513Y-12421099D01*
X12715513Y-12421099D02*
X12725037Y-12402051D01*
X12725037Y-12402051D02*
X12734561Y-12392528D01*
X12734561Y-12392528D02*
X12753608Y-12383004D01*
X13010751Y-12583004D02*
X12896466Y-12583004D01*
X12953608Y-12583004D02*
X12953608Y-12383004D01*
X12953608Y-12383004D02*
X12934561Y-12411575D01*
X12934561Y-12411575D02*
X12915513Y-12430623D01*
X12915513Y-12430623D02*
X12896466Y-12440147D01*
X13191704Y-12383004D02*
X13096466Y-12383004D01*
X13096466Y-12383004D02*
X13086942Y-12478242D01*
X13086942Y-12478242D02*
X13096466Y-12468718D01*
X13096466Y-12468718D02*
X13115513Y-12459194D01*
X13115513Y-12459194D02*
X13163132Y-12459194D01*
X13163132Y-12459194D02*
X13182180Y-12468718D01*
X13182180Y-12468718D02*
X13191704Y-12478242D01*
X13191704Y-12478242D02*
X13201227Y-12497289D01*
X13201227Y-12497289D02*
X13201227Y-12544908D01*
X13201227Y-12544908D02*
X13191704Y-12563956D01*
X13191704Y-12563956D02*
X13182180Y-12573480D01*
X13182180Y-12573480D02*
X13163132Y-12583004D01*
X13163132Y-12583004D02*
X13115513Y-12583004D01*
X13115513Y-12583004D02*
X13096466Y-12573480D01*
X13096466Y-12573480D02*
X13086942Y-12563956D01*
X13325037Y-12383004D02*
X13344085Y-12383004D01*
X13344085Y-12383004D02*
X13363132Y-12392528D01*
X13363132Y-12392528D02*
X13372656Y-12402051D01*
X13372656Y-12402051D02*
X13382180Y-12421099D01*
X13382180Y-12421099D02*
X13391704Y-12459194D01*
X13391704Y-12459194D02*
X13391704Y-12506813D01*
X13391704Y-12506813D02*
X13382180Y-12544908D01*
X13382180Y-12544908D02*
X13372656Y-12563956D01*
X13372656Y-12563956D02*
X13363132Y-12573480D01*
X13363132Y-12573480D02*
X13344085Y-12583004D01*
X13344085Y-12583004D02*
X13325037Y-12583004D01*
X13325037Y-12583004D02*
X13305989Y-12573480D01*
X13305989Y-12573480D02*
X13296466Y-12563956D01*
X13296466Y-12563956D02*
X13286942Y-12544908D01*
X13286942Y-12544908D02*
X13277418Y-12506813D01*
X13277418Y-12506813D02*
X13277418Y-12459194D01*
X13277418Y-12459194D02*
X13286942Y-12421099D01*
X13286942Y-12421099D02*
X13296466Y-12402051D01*
X13296466Y-12402051D02*
X13305989Y-12392528D01*
X13305989Y-12392528D02*
X13325037Y-12383004D01*
X13467894Y-12383004D02*
X13467894Y-12421099D01*
X13544085Y-12383004D02*
X13544085Y-12421099D01*
X13839323Y-12659194D02*
X13829799Y-12649670D01*
X13829799Y-12649670D02*
X13810751Y-12621099D01*
X13810751Y-12621099D02*
X13801228Y-12602051D01*
X13801228Y-12602051D02*
X13791704Y-12573480D01*
X13791704Y-12573480D02*
X13782180Y-12525861D01*
X13782180Y-12525861D02*
X13782180Y-12487766D01*
X13782180Y-12487766D02*
X13791704Y-12440147D01*
X13791704Y-12440147D02*
X13801228Y-12411575D01*
X13801228Y-12411575D02*
X13810751Y-12392528D01*
X13810751Y-12392528D02*
X13829799Y-12363956D01*
X13829799Y-12363956D02*
X13839323Y-12354432D01*
X13896466Y-12383004D02*
X14020275Y-12383004D01*
X14020275Y-12383004D02*
X13953608Y-12459194D01*
X13953608Y-12459194D02*
X13982180Y-12459194D01*
X13982180Y-12459194D02*
X14001228Y-12468718D01*
X14001228Y-12468718D02*
X14010751Y-12478242D01*
X14010751Y-12478242D02*
X14020275Y-12497289D01*
X14020275Y-12497289D02*
X14020275Y-12544908D01*
X14020275Y-12544908D02*
X14010751Y-12563956D01*
X14010751Y-12563956D02*
X14001228Y-12573480D01*
X14001228Y-12573480D02*
X13982180Y-12583004D01*
X13982180Y-12583004D02*
X13925037Y-12583004D01*
X13925037Y-12583004D02*
X13905989Y-12573480D01*
X13905989Y-12573480D02*
X13896466Y-12563956D01*
X14258370Y-12583004D02*
X14258370Y-12383004D01*
X14344085Y-12583004D02*
X14344085Y-12478242D01*
X14344085Y-12478242D02*
X14334561Y-12459194D01*
X14334561Y-12459194D02*
X14315513Y-12449670D01*
X14315513Y-12449670D02*
X14286942Y-12449670D01*
X14286942Y-12449670D02*
X14267894Y-12459194D01*
X14267894Y-12459194D02*
X14258370Y-12468718D01*
X14467894Y-12583004D02*
X14448847Y-12573480D01*
X14448847Y-12573480D02*
X14439323Y-12563956D01*
X14439323Y-12563956D02*
X14429799Y-12544908D01*
X14429799Y-12544908D02*
X14429799Y-12487766D01*
X14429799Y-12487766D02*
X14439323Y-12468718D01*
X14439323Y-12468718D02*
X14448847Y-12459194D01*
X14448847Y-12459194D02*
X14467894Y-12449670D01*
X14467894Y-12449670D02*
X14496466Y-12449670D01*
X14496466Y-12449670D02*
X14515513Y-12459194D01*
X14515513Y-12459194D02*
X14525037Y-12468718D01*
X14525037Y-12468718D02*
X14534561Y-12487766D01*
X14534561Y-12487766D02*
X14534561Y-12544908D01*
X14534561Y-12544908D02*
X14525037Y-12563956D01*
X14525037Y-12563956D02*
X14515513Y-12573480D01*
X14515513Y-12573480D02*
X14496466Y-12583004D01*
X14496466Y-12583004D02*
X14467894Y-12583004D01*
X14648847Y-12583004D02*
X14629799Y-12573480D01*
X14629799Y-12573480D02*
X14620275Y-12554432D01*
X14620275Y-12554432D02*
X14620275Y-12383004D01*
X14801228Y-12573480D02*
X14782180Y-12583004D01*
X14782180Y-12583004D02*
X14744085Y-12583004D01*
X14744085Y-12583004D02*
X14725037Y-12573480D01*
X14725037Y-12573480D02*
X14715513Y-12554432D01*
X14715513Y-12554432D02*
X14715513Y-12478242D01*
X14715513Y-12478242D02*
X14725037Y-12459194D01*
X14725037Y-12459194D02*
X14744085Y-12449670D01*
X14744085Y-12449670D02*
X14782180Y-12449670D01*
X14782180Y-12449670D02*
X14801228Y-12459194D01*
X14801228Y-12459194D02*
X14810751Y-12478242D01*
X14810751Y-12478242D02*
X14810751Y-12497289D01*
X14810751Y-12497289D02*
X14715513Y-12516337D01*
X14886942Y-12573480D02*
X14905990Y-12583004D01*
X14905990Y-12583004D02*
X14944085Y-12583004D01*
X14944085Y-12583004D02*
X14963132Y-12573480D01*
X14963132Y-12573480D02*
X14972656Y-12554432D01*
X14972656Y-12554432D02*
X14972656Y-12544908D01*
X14972656Y-12544908D02*
X14963132Y-12525861D01*
X14963132Y-12525861D02*
X14944085Y-12516337D01*
X14944085Y-12516337D02*
X14915513Y-12516337D01*
X14915513Y-12516337D02*
X14896466Y-12506813D01*
X14896466Y-12506813D02*
X14886942Y-12487766D01*
X14886942Y-12487766D02*
X14886942Y-12478242D01*
X14886942Y-12478242D02*
X14896466Y-12459194D01*
X14896466Y-12459194D02*
X14915513Y-12449670D01*
X14915513Y-12449670D02*
X14944085Y-12449670D01*
X14944085Y-12449670D02*
X14963132Y-12459194D01*
X15039323Y-12659194D02*
X15048847Y-12649670D01*
X15048847Y-12649670D02*
X15067894Y-12621099D01*
X15067894Y-12621099D02*
X15077418Y-12602051D01*
X15077418Y-12602051D02*
X15086942Y-12573480D01*
X15086942Y-12573480D02*
X15096466Y-12525861D01*
X15096466Y-12525861D02*
X15096466Y-12487766D01*
X15096466Y-12487766D02*
X15086942Y-12440147D01*
X15086942Y-12440147D02*
X15077418Y-12411575D01*
X15077418Y-12411575D02*
X15067894Y-12392528D01*
X15067894Y-12392528D02*
X15048847Y-12363956D01*
X15048847Y-12363956D02*
X15039323Y-12354432D01*
D12*
X10264260Y-12755520D02*
G75*
G02*
X10213460Y-12755520I-25400J0D01*
G01*
X10213460Y-12755520D02*
G75*
G02*
X10264260Y-12755520I25400J0D01*
G01*
D11*
X10563132Y-12647004D02*
X10582180Y-12647004D01*
X10582180Y-12647004D02*
X10601227Y-12656528D01*
X10601227Y-12656528D02*
X10610751Y-12666051D01*
X10610751Y-12666051D02*
X10620275Y-12685099D01*
X10620275Y-12685099D02*
X10629799Y-12723194D01*
X10629799Y-12723194D02*
X10629799Y-12770813D01*
X10629799Y-12770813D02*
X10620275Y-12808908D01*
X10620275Y-12808908D02*
X10610751Y-12827956D01*
X10610751Y-12827956D02*
X10601227Y-12837480D01*
X10601227Y-12837480D02*
X10582180Y-12847004D01*
X10582180Y-12847004D02*
X10563132Y-12847004D01*
X10563132Y-12847004D02*
X10544084Y-12837480D01*
X10544084Y-12837480D02*
X10534561Y-12827956D01*
X10534561Y-12827956D02*
X10525037Y-12808908D01*
X10525037Y-12808908D02*
X10515513Y-12770813D01*
X10515513Y-12770813D02*
X10515513Y-12723194D01*
X10515513Y-12723194D02*
X10525037Y-12685099D01*
X10525037Y-12685099D02*
X10534561Y-12666051D01*
X10534561Y-12666051D02*
X10544084Y-12656528D01*
X10544084Y-12656528D02*
X10563132Y-12647004D01*
X10715513Y-12827956D02*
X10725037Y-12837480D01*
X10725037Y-12837480D02*
X10715513Y-12847004D01*
X10715513Y-12847004D02*
X10705989Y-12837480D01*
X10705989Y-12837480D02*
X10715513Y-12827956D01*
X10715513Y-12827956D02*
X10715513Y-12847004D01*
X10905989Y-12647004D02*
X10810751Y-12647004D01*
X10810751Y-12647004D02*
X10801227Y-12742242D01*
X10801227Y-12742242D02*
X10810751Y-12732718D01*
X10810751Y-12732718D02*
X10829799Y-12723194D01*
X10829799Y-12723194D02*
X10877418Y-12723194D01*
X10877418Y-12723194D02*
X10896465Y-12732718D01*
X10896465Y-12732718D02*
X10905989Y-12742242D01*
X10905989Y-12742242D02*
X10915513Y-12761289D01*
X10915513Y-12761289D02*
X10915513Y-12808908D01*
X10915513Y-12808908D02*
X10905989Y-12827956D01*
X10905989Y-12827956D02*
X10896465Y-12837480D01*
X10896465Y-12837480D02*
X10877418Y-12847004D01*
X10877418Y-12847004D02*
X10829799Y-12847004D01*
X10829799Y-12847004D02*
X10810751Y-12837480D01*
X10810751Y-12837480D02*
X10801227Y-12827956D01*
X11039323Y-12647004D02*
X11058370Y-12647004D01*
X11058370Y-12647004D02*
X11077418Y-12656528D01*
X11077418Y-12656528D02*
X11086942Y-12666051D01*
X11086942Y-12666051D02*
X11096465Y-12685099D01*
X11096465Y-12685099D02*
X11105989Y-12723194D01*
X11105989Y-12723194D02*
X11105989Y-12770813D01*
X11105989Y-12770813D02*
X11096465Y-12808908D01*
X11096465Y-12808908D02*
X11086942Y-12827956D01*
X11086942Y-12827956D02*
X11077418Y-12837480D01*
X11077418Y-12837480D02*
X11058370Y-12847004D01*
X11058370Y-12847004D02*
X11039323Y-12847004D01*
X11039323Y-12847004D02*
X11020275Y-12837480D01*
X11020275Y-12837480D02*
X11010751Y-12827956D01*
X11010751Y-12827956D02*
X11001227Y-12808908D01*
X11001227Y-12808908D02*
X10991704Y-12770813D01*
X10991704Y-12770813D02*
X10991704Y-12723194D01*
X10991704Y-12723194D02*
X11001227Y-12685099D01*
X11001227Y-12685099D02*
X11010751Y-12666051D01*
X11010751Y-12666051D02*
X11020275Y-12656528D01*
X11020275Y-12656528D02*
X11039323Y-12647004D01*
X11220275Y-12732718D02*
X11201227Y-12723194D01*
X11201227Y-12723194D02*
X11191703Y-12713670D01*
X11191703Y-12713670D02*
X11182180Y-12694623D01*
X11182180Y-12694623D02*
X11182180Y-12685099D01*
X11182180Y-12685099D02*
X11191703Y-12666051D01*
X11191703Y-12666051D02*
X11201227Y-12656528D01*
X11201227Y-12656528D02*
X11220275Y-12647004D01*
X11220275Y-12647004D02*
X11258370Y-12647004D01*
X11258370Y-12647004D02*
X11277418Y-12656528D01*
X11277418Y-12656528D02*
X11286942Y-12666051D01*
X11286942Y-12666051D02*
X11296465Y-12685099D01*
X11296465Y-12685099D02*
X11296465Y-12694623D01*
X11296465Y-12694623D02*
X11286942Y-12713670D01*
X11286942Y-12713670D02*
X11277418Y-12723194D01*
X11277418Y-12723194D02*
X11258370Y-12732718D01*
X11258370Y-12732718D02*
X11220275Y-12732718D01*
X11220275Y-12732718D02*
X11201227Y-12742242D01*
X11201227Y-12742242D02*
X11191703Y-12751766D01*
X11191703Y-12751766D02*
X11182180Y-12770813D01*
X11182180Y-12770813D02*
X11182180Y-12808908D01*
X11182180Y-12808908D02*
X11191703Y-12827956D01*
X11191703Y-12827956D02*
X11201227Y-12837480D01*
X11201227Y-12837480D02*
X11220275Y-12847004D01*
X11220275Y-12847004D02*
X11258370Y-12847004D01*
X11258370Y-12847004D02*
X11277418Y-12837480D01*
X11277418Y-12837480D02*
X11286942Y-12827956D01*
X11286942Y-12827956D02*
X11296465Y-12808908D01*
X11296465Y-12808908D02*
X11296465Y-12770813D01*
X11296465Y-12770813D02*
X11286942Y-12751766D01*
X11286942Y-12751766D02*
X11277418Y-12742242D01*
X11277418Y-12742242D02*
X11258370Y-12732718D01*
X11382180Y-12847004D02*
X11382180Y-12713670D01*
X11382180Y-12732718D02*
X11391703Y-12723194D01*
X11391703Y-12723194D02*
X11410751Y-12713670D01*
X11410751Y-12713670D02*
X11439323Y-12713670D01*
X11439323Y-12713670D02*
X11458370Y-12723194D01*
X11458370Y-12723194D02*
X11467894Y-12742242D01*
X11467894Y-12742242D02*
X11467894Y-12847004D01*
X11467894Y-12742242D02*
X11477418Y-12723194D01*
X11477418Y-12723194D02*
X11496465Y-12713670D01*
X11496465Y-12713670D02*
X11525037Y-12713670D01*
X11525037Y-12713670D02*
X11544084Y-12723194D01*
X11544084Y-12723194D02*
X11553608Y-12742242D01*
X11553608Y-12742242D02*
X11553608Y-12847004D01*
X11648846Y-12847004D02*
X11648846Y-12713670D01*
X11648846Y-12732718D02*
X11658370Y-12723194D01*
X11658370Y-12723194D02*
X11677418Y-12713670D01*
X11677418Y-12713670D02*
X11705989Y-12713670D01*
X11705989Y-12713670D02*
X11725037Y-12723194D01*
X11725037Y-12723194D02*
X11734561Y-12742242D01*
X11734561Y-12742242D02*
X11734561Y-12847004D01*
X11734561Y-12742242D02*
X11744084Y-12723194D01*
X11744084Y-12723194D02*
X11763132Y-12713670D01*
X11763132Y-12713670D02*
X11791703Y-12713670D01*
X11791703Y-12713670D02*
X11810751Y-12723194D01*
X11810751Y-12723194D02*
X11820275Y-12742242D01*
X11820275Y-12742242D02*
X11820275Y-12847004D01*
X12210751Y-12637480D02*
X12039323Y-12894623D01*
X12467894Y-12647004D02*
X12486942Y-12647004D01*
X12486942Y-12647004D02*
X12505989Y-12656528D01*
X12505989Y-12656528D02*
X12515513Y-12666051D01*
X12515513Y-12666051D02*
X12525037Y-12685099D01*
X12525037Y-12685099D02*
X12534561Y-12723194D01*
X12534561Y-12723194D02*
X12534561Y-12770813D01*
X12534561Y-12770813D02*
X12525037Y-12808908D01*
X12525037Y-12808908D02*
X12515513Y-12827956D01*
X12515513Y-12827956D02*
X12505989Y-12837480D01*
X12505989Y-12837480D02*
X12486942Y-12847004D01*
X12486942Y-12847004D02*
X12467894Y-12847004D01*
X12467894Y-12847004D02*
X12448846Y-12837480D01*
X12448846Y-12837480D02*
X12439323Y-12827956D01*
X12439323Y-12827956D02*
X12429799Y-12808908D01*
X12429799Y-12808908D02*
X12420275Y-12770813D01*
X12420275Y-12770813D02*
X12420275Y-12723194D01*
X12420275Y-12723194D02*
X12429799Y-12685099D01*
X12429799Y-12685099D02*
X12439323Y-12666051D01*
X12439323Y-12666051D02*
X12448846Y-12656528D01*
X12448846Y-12656528D02*
X12467894Y-12647004D01*
X12620275Y-12827956D02*
X12629799Y-12837480D01*
X12629799Y-12837480D02*
X12620275Y-12847004D01*
X12620275Y-12847004D02*
X12610751Y-12837480D01*
X12610751Y-12837480D02*
X12620275Y-12827956D01*
X12620275Y-12827956D02*
X12620275Y-12847004D01*
X12753608Y-12647004D02*
X12772656Y-12647004D01*
X12772656Y-12647004D02*
X12791704Y-12656528D01*
X12791704Y-12656528D02*
X12801227Y-12666051D01*
X12801227Y-12666051D02*
X12810751Y-12685099D01*
X12810751Y-12685099D02*
X12820275Y-12723194D01*
X12820275Y-12723194D02*
X12820275Y-12770813D01*
X12820275Y-12770813D02*
X12810751Y-12808908D01*
X12810751Y-12808908D02*
X12801227Y-12827956D01*
X12801227Y-12827956D02*
X12791704Y-12837480D01*
X12791704Y-12837480D02*
X12772656Y-12847004D01*
X12772656Y-12847004D02*
X12753608Y-12847004D01*
X12753608Y-12847004D02*
X12734561Y-12837480D01*
X12734561Y-12837480D02*
X12725037Y-12827956D01*
X12725037Y-12827956D02*
X12715513Y-12808908D01*
X12715513Y-12808908D02*
X12705989Y-12770813D01*
X12705989Y-12770813D02*
X12705989Y-12723194D01*
X12705989Y-12723194D02*
X12715513Y-12685099D01*
X12715513Y-12685099D02*
X12725037Y-12666051D01*
X12725037Y-12666051D02*
X12734561Y-12656528D01*
X12734561Y-12656528D02*
X12753608Y-12647004D01*
X12896466Y-12666051D02*
X12905989Y-12656528D01*
X12905989Y-12656528D02*
X12925037Y-12647004D01*
X12925037Y-12647004D02*
X12972656Y-12647004D01*
X12972656Y-12647004D02*
X12991704Y-12656528D01*
X12991704Y-12656528D02*
X13001227Y-12666051D01*
X13001227Y-12666051D02*
X13010751Y-12685099D01*
X13010751Y-12685099D02*
X13010751Y-12704147D01*
X13010751Y-12704147D02*
X13001227Y-12732718D01*
X13001227Y-12732718D02*
X12886942Y-12847004D01*
X12886942Y-12847004D02*
X13010751Y-12847004D01*
X13134561Y-12647004D02*
X13153608Y-12647004D01*
X13153608Y-12647004D02*
X13172656Y-12656528D01*
X13172656Y-12656528D02*
X13182180Y-12666051D01*
X13182180Y-12666051D02*
X13191704Y-12685099D01*
X13191704Y-12685099D02*
X13201227Y-12723194D01*
X13201227Y-12723194D02*
X13201227Y-12770813D01*
X13201227Y-12770813D02*
X13191704Y-12808908D01*
X13191704Y-12808908D02*
X13182180Y-12827956D01*
X13182180Y-12827956D02*
X13172656Y-12837480D01*
X13172656Y-12837480D02*
X13153608Y-12847004D01*
X13153608Y-12847004D02*
X13134561Y-12847004D01*
X13134561Y-12847004D02*
X13115513Y-12837480D01*
X13115513Y-12837480D02*
X13105989Y-12827956D01*
X13105989Y-12827956D02*
X13096466Y-12808908D01*
X13096466Y-12808908D02*
X13086942Y-12770813D01*
X13086942Y-12770813D02*
X13086942Y-12723194D01*
X13086942Y-12723194D02*
X13096466Y-12685099D01*
X13096466Y-12685099D02*
X13105989Y-12666051D01*
X13105989Y-12666051D02*
X13115513Y-12656528D01*
X13115513Y-12656528D02*
X13134561Y-12647004D01*
X13325037Y-12647004D02*
X13344085Y-12647004D01*
X13344085Y-12647004D02*
X13363132Y-12656528D01*
X13363132Y-12656528D02*
X13372656Y-12666051D01*
X13372656Y-12666051D02*
X13382180Y-12685099D01*
X13382180Y-12685099D02*
X13391704Y-12723194D01*
X13391704Y-12723194D02*
X13391704Y-12770813D01*
X13391704Y-12770813D02*
X13382180Y-12808908D01*
X13382180Y-12808908D02*
X13372656Y-12827956D01*
X13372656Y-12827956D02*
X13363132Y-12837480D01*
X13363132Y-12837480D02*
X13344085Y-12847004D01*
X13344085Y-12847004D02*
X13325037Y-12847004D01*
X13325037Y-12847004D02*
X13305989Y-12837480D01*
X13305989Y-12837480D02*
X13296466Y-12827956D01*
X13296466Y-12827956D02*
X13286942Y-12808908D01*
X13286942Y-12808908D02*
X13277418Y-12770813D01*
X13277418Y-12770813D02*
X13277418Y-12723194D01*
X13277418Y-12723194D02*
X13286942Y-12685099D01*
X13286942Y-12685099D02*
X13296466Y-12666051D01*
X13296466Y-12666051D02*
X13305989Y-12656528D01*
X13305989Y-12656528D02*
X13325037Y-12647004D01*
X13467894Y-12647004D02*
X13467894Y-12685099D01*
X13544085Y-12647004D02*
X13544085Y-12685099D01*
X13839323Y-12923194D02*
X13829799Y-12913670D01*
X13829799Y-12913670D02*
X13810751Y-12885099D01*
X13810751Y-12885099D02*
X13801228Y-12866051D01*
X13801228Y-12866051D02*
X13791704Y-12837480D01*
X13791704Y-12837480D02*
X13782180Y-12789861D01*
X13782180Y-12789861D02*
X13782180Y-12751766D01*
X13782180Y-12751766D02*
X13791704Y-12704147D01*
X13791704Y-12704147D02*
X13801228Y-12675575D01*
X13801228Y-12675575D02*
X13810751Y-12656528D01*
X13810751Y-12656528D02*
X13829799Y-12627956D01*
X13829799Y-12627956D02*
X13839323Y-12618432D01*
X13905989Y-12666051D02*
X13915513Y-12656528D01*
X13915513Y-12656528D02*
X13934561Y-12647004D01*
X13934561Y-12647004D02*
X13982180Y-12647004D01*
X13982180Y-12647004D02*
X14001228Y-12656528D01*
X14001228Y-12656528D02*
X14010751Y-12666051D01*
X14010751Y-12666051D02*
X14020275Y-12685099D01*
X14020275Y-12685099D02*
X14020275Y-12704147D01*
X14020275Y-12704147D02*
X14010751Y-12732718D01*
X14010751Y-12732718D02*
X13896466Y-12847004D01*
X13896466Y-12847004D02*
X14020275Y-12847004D01*
X14134561Y-12732718D02*
X14115513Y-12723194D01*
X14115513Y-12723194D02*
X14105989Y-12713670D01*
X14105989Y-12713670D02*
X14096466Y-12694623D01*
X14096466Y-12694623D02*
X14096466Y-12685099D01*
X14096466Y-12685099D02*
X14105989Y-12666051D01*
X14105989Y-12666051D02*
X14115513Y-12656528D01*
X14115513Y-12656528D02*
X14134561Y-12647004D01*
X14134561Y-12647004D02*
X14172656Y-12647004D01*
X14172656Y-12647004D02*
X14191704Y-12656528D01*
X14191704Y-12656528D02*
X14201228Y-12666051D01*
X14201228Y-12666051D02*
X14210751Y-12685099D01*
X14210751Y-12685099D02*
X14210751Y-12694623D01*
X14210751Y-12694623D02*
X14201228Y-12713670D01*
X14201228Y-12713670D02*
X14191704Y-12723194D01*
X14191704Y-12723194D02*
X14172656Y-12732718D01*
X14172656Y-12732718D02*
X14134561Y-12732718D01*
X14134561Y-12732718D02*
X14115513Y-12742242D01*
X14115513Y-12742242D02*
X14105989Y-12751766D01*
X14105989Y-12751766D02*
X14096466Y-12770813D01*
X14096466Y-12770813D02*
X14096466Y-12808908D01*
X14096466Y-12808908D02*
X14105989Y-12827956D01*
X14105989Y-12827956D02*
X14115513Y-12837480D01*
X14115513Y-12837480D02*
X14134561Y-12847004D01*
X14134561Y-12847004D02*
X14172656Y-12847004D01*
X14172656Y-12847004D02*
X14191704Y-12837480D01*
X14191704Y-12837480D02*
X14201228Y-12827956D01*
X14201228Y-12827956D02*
X14210751Y-12808908D01*
X14210751Y-12808908D02*
X14210751Y-12770813D01*
X14210751Y-12770813D02*
X14201228Y-12751766D01*
X14201228Y-12751766D02*
X14191704Y-12742242D01*
X14191704Y-12742242D02*
X14172656Y-12732718D01*
X14448847Y-12847004D02*
X14448847Y-12647004D01*
X14534561Y-12847004D02*
X14534561Y-12742242D01*
X14534561Y-12742242D02*
X14525037Y-12723194D01*
X14525037Y-12723194D02*
X14505990Y-12713670D01*
X14505990Y-12713670D02*
X14477418Y-12713670D01*
X14477418Y-12713670D02*
X14458370Y-12723194D01*
X14458370Y-12723194D02*
X14448847Y-12732718D01*
X14658370Y-12847004D02*
X14639323Y-12837480D01*
X14639323Y-12837480D02*
X14629799Y-12827956D01*
X14629799Y-12827956D02*
X14620275Y-12808908D01*
X14620275Y-12808908D02*
X14620275Y-12751766D01*
X14620275Y-12751766D02*
X14629799Y-12732718D01*
X14629799Y-12732718D02*
X14639323Y-12723194D01*
X14639323Y-12723194D02*
X14658370Y-12713670D01*
X14658370Y-12713670D02*
X14686942Y-12713670D01*
X14686942Y-12713670D02*
X14705990Y-12723194D01*
X14705990Y-12723194D02*
X14715513Y-12732718D01*
X14715513Y-12732718D02*
X14725037Y-12751766D01*
X14725037Y-12751766D02*
X14725037Y-12808908D01*
X14725037Y-12808908D02*
X14715513Y-12827956D01*
X14715513Y-12827956D02*
X14705990Y-12837480D01*
X14705990Y-12837480D02*
X14686942Y-12847004D01*
X14686942Y-12847004D02*
X14658370Y-12847004D01*
X14839323Y-12847004D02*
X14820275Y-12837480D01*
X14820275Y-12837480D02*
X14810751Y-12818432D01*
X14810751Y-12818432D02*
X14810751Y-12647004D01*
X14991704Y-12837480D02*
X14972656Y-12847004D01*
X14972656Y-12847004D02*
X14934561Y-12847004D01*
X14934561Y-12847004D02*
X14915513Y-12837480D01*
X14915513Y-12837480D02*
X14905990Y-12818432D01*
X14905990Y-12818432D02*
X14905990Y-12742242D01*
X14905990Y-12742242D02*
X14915513Y-12723194D01*
X14915513Y-12723194D02*
X14934561Y-12713670D01*
X14934561Y-12713670D02*
X14972656Y-12713670D01*
X14972656Y-12713670D02*
X14991704Y-12723194D01*
X14991704Y-12723194D02*
X15001228Y-12742242D01*
X15001228Y-12742242D02*
X15001228Y-12761289D01*
X15001228Y-12761289D02*
X14905990Y-12780337D01*
X15077418Y-12837480D02*
X15096466Y-12847004D01*
X15096466Y-12847004D02*
X15134561Y-12847004D01*
X15134561Y-12847004D02*
X15153609Y-12837480D01*
X15153609Y-12837480D02*
X15163132Y-12818432D01*
X15163132Y-12818432D02*
X15163132Y-12808908D01*
X15163132Y-12808908D02*
X15153609Y-12789861D01*
X15153609Y-12789861D02*
X15134561Y-12780337D01*
X15134561Y-12780337D02*
X15105990Y-12780337D01*
X15105990Y-12780337D02*
X15086942Y-12770813D01*
X15086942Y-12770813D02*
X15077418Y-12751766D01*
X15077418Y-12751766D02*
X15077418Y-12742242D01*
X15077418Y-12742242D02*
X15086942Y-12723194D01*
X15086942Y-12723194D02*
X15105990Y-12713670D01*
X15105990Y-12713670D02*
X15134561Y-12713670D01*
X15134561Y-12713670D02*
X15153609Y-12723194D01*
X15229799Y-12923194D02*
X15239323Y-12913670D01*
X15239323Y-12913670D02*
X15258371Y-12885099D01*
X15258371Y-12885099D02*
X15267894Y-12866051D01*
X15267894Y-12866051D02*
X15277418Y-12837480D01*
X15277418Y-12837480D02*
X15286942Y-12789861D01*
X15286942Y-12789861D02*
X15286942Y-12751766D01*
X15286942Y-12751766D02*
X15277418Y-12704147D01*
X15277418Y-12704147D02*
X15267894Y-12675575D01*
X15267894Y-12675575D02*
X15258371Y-12656528D01*
X15258371Y-12656528D02*
X15239323Y-12627956D01*
X15239323Y-12627956D02*
X15229799Y-12618432D01*
D12*
X10224260Y-12979520D02*
X10224260Y-13059520D01*
X10184260Y-13019520D02*
X10264260Y-13019520D01*
D11*
X10563132Y-12911004D02*
X10582180Y-12911004D01*
X10582180Y-12911004D02*
X10601227Y-12920528D01*
X10601227Y-12920528D02*
X10610751Y-12930051D01*
X10610751Y-12930051D02*
X10620275Y-12949099D01*
X10620275Y-12949099D02*
X10629799Y-12987194D01*
X10629799Y-12987194D02*
X10629799Y-13034813D01*
X10629799Y-13034813D02*
X10620275Y-13072908D01*
X10620275Y-13072908D02*
X10610751Y-13091956D01*
X10610751Y-13091956D02*
X10601227Y-13101480D01*
X10601227Y-13101480D02*
X10582180Y-13111004D01*
X10582180Y-13111004D02*
X10563132Y-13111004D01*
X10563132Y-13111004D02*
X10544084Y-13101480D01*
X10544084Y-13101480D02*
X10534561Y-13091956D01*
X10534561Y-13091956D02*
X10525037Y-13072908D01*
X10525037Y-13072908D02*
X10515513Y-13034813D01*
X10515513Y-13034813D02*
X10515513Y-12987194D01*
X10515513Y-12987194D02*
X10525037Y-12949099D01*
X10525037Y-12949099D02*
X10534561Y-12930051D01*
X10534561Y-12930051D02*
X10544084Y-12920528D01*
X10544084Y-12920528D02*
X10563132Y-12911004D01*
X10715513Y-13091956D02*
X10725037Y-13101480D01*
X10725037Y-13101480D02*
X10715513Y-13111004D01*
X10715513Y-13111004D02*
X10705989Y-13101480D01*
X10705989Y-13101480D02*
X10715513Y-13091956D01*
X10715513Y-13091956D02*
X10715513Y-13111004D01*
X10839323Y-12996718D02*
X10820275Y-12987194D01*
X10820275Y-12987194D02*
X10810751Y-12977670D01*
X10810751Y-12977670D02*
X10801227Y-12958623D01*
X10801227Y-12958623D02*
X10801227Y-12949099D01*
X10801227Y-12949099D02*
X10810751Y-12930051D01*
X10810751Y-12930051D02*
X10820275Y-12920528D01*
X10820275Y-12920528D02*
X10839323Y-12911004D01*
X10839323Y-12911004D02*
X10877418Y-12911004D01*
X10877418Y-12911004D02*
X10896465Y-12920528D01*
X10896465Y-12920528D02*
X10905989Y-12930051D01*
X10905989Y-12930051D02*
X10915513Y-12949099D01*
X10915513Y-12949099D02*
X10915513Y-12958623D01*
X10915513Y-12958623D02*
X10905989Y-12977670D01*
X10905989Y-12977670D02*
X10896465Y-12987194D01*
X10896465Y-12987194D02*
X10877418Y-12996718D01*
X10877418Y-12996718D02*
X10839323Y-12996718D01*
X10839323Y-12996718D02*
X10820275Y-13006242D01*
X10820275Y-13006242D02*
X10810751Y-13015766D01*
X10810751Y-13015766D02*
X10801227Y-13034813D01*
X10801227Y-13034813D02*
X10801227Y-13072908D01*
X10801227Y-13072908D02*
X10810751Y-13091956D01*
X10810751Y-13091956D02*
X10820275Y-13101480D01*
X10820275Y-13101480D02*
X10839323Y-13111004D01*
X10839323Y-13111004D02*
X10877418Y-13111004D01*
X10877418Y-13111004D02*
X10896465Y-13101480D01*
X10896465Y-13101480D02*
X10905989Y-13091956D01*
X10905989Y-13091956D02*
X10915513Y-13072908D01*
X10915513Y-13072908D02*
X10915513Y-13034813D01*
X10915513Y-13034813D02*
X10905989Y-13015766D01*
X10905989Y-13015766D02*
X10896465Y-13006242D01*
X10896465Y-13006242D02*
X10877418Y-12996718D01*
X11039323Y-12911004D02*
X11058370Y-12911004D01*
X11058370Y-12911004D02*
X11077418Y-12920528D01*
X11077418Y-12920528D02*
X11086942Y-12930051D01*
X11086942Y-12930051D02*
X11096465Y-12949099D01*
X11096465Y-12949099D02*
X11105989Y-12987194D01*
X11105989Y-12987194D02*
X11105989Y-13034813D01*
X11105989Y-13034813D02*
X11096465Y-13072908D01*
X11096465Y-13072908D02*
X11086942Y-13091956D01*
X11086942Y-13091956D02*
X11077418Y-13101480D01*
X11077418Y-13101480D02*
X11058370Y-13111004D01*
X11058370Y-13111004D02*
X11039323Y-13111004D01*
X11039323Y-13111004D02*
X11020275Y-13101480D01*
X11020275Y-13101480D02*
X11010751Y-13091956D01*
X11010751Y-13091956D02*
X11001227Y-13072908D01*
X11001227Y-13072908D02*
X10991704Y-13034813D01*
X10991704Y-13034813D02*
X10991704Y-12987194D01*
X10991704Y-12987194D02*
X11001227Y-12949099D01*
X11001227Y-12949099D02*
X11010751Y-12930051D01*
X11010751Y-12930051D02*
X11020275Y-12920528D01*
X11020275Y-12920528D02*
X11039323Y-12911004D01*
X11229799Y-12911004D02*
X11248846Y-12911004D01*
X11248846Y-12911004D02*
X11267894Y-12920528D01*
X11267894Y-12920528D02*
X11277418Y-12930051D01*
X11277418Y-12930051D02*
X11286942Y-12949099D01*
X11286942Y-12949099D02*
X11296465Y-12987194D01*
X11296465Y-12987194D02*
X11296465Y-13034813D01*
X11296465Y-13034813D02*
X11286942Y-13072908D01*
X11286942Y-13072908D02*
X11277418Y-13091956D01*
X11277418Y-13091956D02*
X11267894Y-13101480D01*
X11267894Y-13101480D02*
X11248846Y-13111004D01*
X11248846Y-13111004D02*
X11229799Y-13111004D01*
X11229799Y-13111004D02*
X11210751Y-13101480D01*
X11210751Y-13101480D02*
X11201227Y-13091956D01*
X11201227Y-13091956D02*
X11191703Y-13072908D01*
X11191703Y-13072908D02*
X11182180Y-13034813D01*
X11182180Y-13034813D02*
X11182180Y-12987194D01*
X11182180Y-12987194D02*
X11191703Y-12949099D01*
X11191703Y-12949099D02*
X11201227Y-12930051D01*
X11201227Y-12930051D02*
X11210751Y-12920528D01*
X11210751Y-12920528D02*
X11229799Y-12911004D01*
X11382180Y-13111004D02*
X11382180Y-12977670D01*
X11382180Y-12996718D02*
X11391703Y-12987194D01*
X11391703Y-12987194D02*
X11410751Y-12977670D01*
X11410751Y-12977670D02*
X11439323Y-12977670D01*
X11439323Y-12977670D02*
X11458370Y-12987194D01*
X11458370Y-12987194D02*
X11467894Y-13006242D01*
X11467894Y-13006242D02*
X11467894Y-13111004D01*
X11467894Y-13006242D02*
X11477418Y-12987194D01*
X11477418Y-12987194D02*
X11496465Y-12977670D01*
X11496465Y-12977670D02*
X11525037Y-12977670D01*
X11525037Y-12977670D02*
X11544084Y-12987194D01*
X11544084Y-12987194D02*
X11553608Y-13006242D01*
X11553608Y-13006242D02*
X11553608Y-13111004D01*
X11648846Y-13111004D02*
X11648846Y-12977670D01*
X11648846Y-12996718D02*
X11658370Y-12987194D01*
X11658370Y-12987194D02*
X11677418Y-12977670D01*
X11677418Y-12977670D02*
X11705989Y-12977670D01*
X11705989Y-12977670D02*
X11725037Y-12987194D01*
X11725037Y-12987194D02*
X11734561Y-13006242D01*
X11734561Y-13006242D02*
X11734561Y-13111004D01*
X11734561Y-13006242D02*
X11744084Y-12987194D01*
X11744084Y-12987194D02*
X11763132Y-12977670D01*
X11763132Y-12977670D02*
X11791703Y-12977670D01*
X11791703Y-12977670D02*
X11810751Y-12987194D01*
X11810751Y-12987194D02*
X11820275Y-13006242D01*
X11820275Y-13006242D02*
X11820275Y-13111004D01*
X12210751Y-12901480D02*
X12039323Y-13158623D01*
X12467894Y-12911004D02*
X12486942Y-12911004D01*
X12486942Y-12911004D02*
X12505989Y-12920528D01*
X12505989Y-12920528D02*
X12515513Y-12930051D01*
X12515513Y-12930051D02*
X12525037Y-12949099D01*
X12525037Y-12949099D02*
X12534561Y-12987194D01*
X12534561Y-12987194D02*
X12534561Y-13034813D01*
X12534561Y-13034813D02*
X12525037Y-13072908D01*
X12525037Y-13072908D02*
X12515513Y-13091956D01*
X12515513Y-13091956D02*
X12505989Y-13101480D01*
X12505989Y-13101480D02*
X12486942Y-13111004D01*
X12486942Y-13111004D02*
X12467894Y-13111004D01*
X12467894Y-13111004D02*
X12448846Y-13101480D01*
X12448846Y-13101480D02*
X12439323Y-13091956D01*
X12439323Y-13091956D02*
X12429799Y-13072908D01*
X12429799Y-13072908D02*
X12420275Y-13034813D01*
X12420275Y-13034813D02*
X12420275Y-12987194D01*
X12420275Y-12987194D02*
X12429799Y-12949099D01*
X12429799Y-12949099D02*
X12439323Y-12930051D01*
X12439323Y-12930051D02*
X12448846Y-12920528D01*
X12448846Y-12920528D02*
X12467894Y-12911004D01*
X12620275Y-13091956D02*
X12629799Y-13101480D01*
X12629799Y-13101480D02*
X12620275Y-13111004D01*
X12620275Y-13111004D02*
X12610751Y-13101480D01*
X12610751Y-13101480D02*
X12620275Y-13091956D01*
X12620275Y-13091956D02*
X12620275Y-13111004D01*
X12753608Y-12911004D02*
X12772656Y-12911004D01*
X12772656Y-12911004D02*
X12791704Y-12920528D01*
X12791704Y-12920528D02*
X12801227Y-12930051D01*
X12801227Y-12930051D02*
X12810751Y-12949099D01*
X12810751Y-12949099D02*
X12820275Y-12987194D01*
X12820275Y-12987194D02*
X12820275Y-13034813D01*
X12820275Y-13034813D02*
X12810751Y-13072908D01*
X12810751Y-13072908D02*
X12801227Y-13091956D01*
X12801227Y-13091956D02*
X12791704Y-13101480D01*
X12791704Y-13101480D02*
X12772656Y-13111004D01*
X12772656Y-13111004D02*
X12753608Y-13111004D01*
X12753608Y-13111004D02*
X12734561Y-13101480D01*
X12734561Y-13101480D02*
X12725037Y-13091956D01*
X12725037Y-13091956D02*
X12715513Y-13072908D01*
X12715513Y-13072908D02*
X12705989Y-13034813D01*
X12705989Y-13034813D02*
X12705989Y-12987194D01*
X12705989Y-12987194D02*
X12715513Y-12949099D01*
X12715513Y-12949099D02*
X12725037Y-12930051D01*
X12725037Y-12930051D02*
X12734561Y-12920528D01*
X12734561Y-12920528D02*
X12753608Y-12911004D01*
X12886942Y-12911004D02*
X13010751Y-12911004D01*
X13010751Y-12911004D02*
X12944085Y-12987194D01*
X12944085Y-12987194D02*
X12972656Y-12987194D01*
X12972656Y-12987194D02*
X12991704Y-12996718D01*
X12991704Y-12996718D02*
X13001227Y-13006242D01*
X13001227Y-13006242D02*
X13010751Y-13025289D01*
X13010751Y-13025289D02*
X13010751Y-13072908D01*
X13010751Y-13072908D02*
X13001227Y-13091956D01*
X13001227Y-13091956D02*
X12991704Y-13101480D01*
X12991704Y-13101480D02*
X12972656Y-13111004D01*
X12972656Y-13111004D02*
X12915513Y-13111004D01*
X12915513Y-13111004D02*
X12896466Y-13101480D01*
X12896466Y-13101480D02*
X12886942Y-13091956D01*
X13201227Y-13111004D02*
X13086942Y-13111004D01*
X13144085Y-13111004D02*
X13144085Y-12911004D01*
X13144085Y-12911004D02*
X13125037Y-12939575D01*
X13125037Y-12939575D02*
X13105989Y-12958623D01*
X13105989Y-12958623D02*
X13086942Y-12968147D01*
X13382180Y-12911004D02*
X13286942Y-12911004D01*
X13286942Y-12911004D02*
X13277418Y-13006242D01*
X13277418Y-13006242D02*
X13286942Y-12996718D01*
X13286942Y-12996718D02*
X13305989Y-12987194D01*
X13305989Y-12987194D02*
X13353608Y-12987194D01*
X13353608Y-12987194D02*
X13372656Y-12996718D01*
X13372656Y-12996718D02*
X13382180Y-13006242D01*
X13382180Y-13006242D02*
X13391704Y-13025289D01*
X13391704Y-13025289D02*
X13391704Y-13072908D01*
X13391704Y-13072908D02*
X13382180Y-13091956D01*
X13382180Y-13091956D02*
X13372656Y-13101480D01*
X13372656Y-13101480D02*
X13353608Y-13111004D01*
X13353608Y-13111004D02*
X13305989Y-13111004D01*
X13305989Y-13111004D02*
X13286942Y-13101480D01*
X13286942Y-13101480D02*
X13277418Y-13091956D01*
X13467894Y-12911004D02*
X13467894Y-12949099D01*
X13544085Y-12911004D02*
X13544085Y-12949099D01*
X13839323Y-13187194D02*
X13829799Y-13177670D01*
X13829799Y-13177670D02*
X13810751Y-13149099D01*
X13810751Y-13149099D02*
X13801228Y-13130051D01*
X13801228Y-13130051D02*
X13791704Y-13101480D01*
X13791704Y-13101480D02*
X13782180Y-13053861D01*
X13782180Y-13053861D02*
X13782180Y-13015766D01*
X13782180Y-13015766D02*
X13791704Y-12968147D01*
X13791704Y-12968147D02*
X13801228Y-12939575D01*
X13801228Y-12939575D02*
X13810751Y-12920528D01*
X13810751Y-12920528D02*
X13829799Y-12891956D01*
X13829799Y-12891956D02*
X13839323Y-12882432D01*
X13925037Y-13111004D02*
X13963132Y-13111004D01*
X13963132Y-13111004D02*
X13982180Y-13101480D01*
X13982180Y-13101480D02*
X13991704Y-13091956D01*
X13991704Y-13091956D02*
X14010751Y-13063385D01*
X14010751Y-13063385D02*
X14020275Y-13025289D01*
X14020275Y-13025289D02*
X14020275Y-12949099D01*
X14020275Y-12949099D02*
X14010751Y-12930051D01*
X14010751Y-12930051D02*
X14001228Y-12920528D01*
X14001228Y-12920528D02*
X13982180Y-12911004D01*
X13982180Y-12911004D02*
X13944085Y-12911004D01*
X13944085Y-12911004D02*
X13925037Y-12920528D01*
X13925037Y-12920528D02*
X13915513Y-12930051D01*
X13915513Y-12930051D02*
X13905989Y-12949099D01*
X13905989Y-12949099D02*
X13905989Y-12996718D01*
X13905989Y-12996718D02*
X13915513Y-13015766D01*
X13915513Y-13015766D02*
X13925037Y-13025289D01*
X13925037Y-13025289D02*
X13944085Y-13034813D01*
X13944085Y-13034813D02*
X13982180Y-13034813D01*
X13982180Y-13034813D02*
X14001228Y-13025289D01*
X14001228Y-13025289D02*
X14010751Y-13015766D01*
X14010751Y-13015766D02*
X14020275Y-12996718D01*
X14201228Y-12911004D02*
X14105989Y-12911004D01*
X14105989Y-12911004D02*
X14096466Y-13006242D01*
X14096466Y-13006242D02*
X14105989Y-12996718D01*
X14105989Y-12996718D02*
X14125037Y-12987194D01*
X14125037Y-12987194D02*
X14172656Y-12987194D01*
X14172656Y-12987194D02*
X14191704Y-12996718D01*
X14191704Y-12996718D02*
X14201228Y-13006242D01*
X14201228Y-13006242D02*
X14210751Y-13025289D01*
X14210751Y-13025289D02*
X14210751Y-13072908D01*
X14210751Y-13072908D02*
X14201228Y-13091956D01*
X14201228Y-13091956D02*
X14191704Y-13101480D01*
X14191704Y-13101480D02*
X14172656Y-13111004D01*
X14172656Y-13111004D02*
X14125037Y-13111004D01*
X14125037Y-13111004D02*
X14105989Y-13101480D01*
X14105989Y-13101480D02*
X14096466Y-13091956D01*
X14448847Y-13111004D02*
X14448847Y-12911004D01*
X14534561Y-13111004D02*
X14534561Y-13006242D01*
X14534561Y-13006242D02*
X14525037Y-12987194D01*
X14525037Y-12987194D02*
X14505990Y-12977670D01*
X14505990Y-12977670D02*
X14477418Y-12977670D01*
X14477418Y-12977670D02*
X14458370Y-12987194D01*
X14458370Y-12987194D02*
X14448847Y-12996718D01*
X14658370Y-13111004D02*
X14639323Y-13101480D01*
X14639323Y-13101480D02*
X14629799Y-13091956D01*
X14629799Y-13091956D02*
X14620275Y-13072908D01*
X14620275Y-13072908D02*
X14620275Y-13015766D01*
X14620275Y-13015766D02*
X14629799Y-12996718D01*
X14629799Y-12996718D02*
X14639323Y-12987194D01*
X14639323Y-12987194D02*
X14658370Y-12977670D01*
X14658370Y-12977670D02*
X14686942Y-12977670D01*
X14686942Y-12977670D02*
X14705990Y-12987194D01*
X14705990Y-12987194D02*
X14715513Y-12996718D01*
X14715513Y-12996718D02*
X14725037Y-13015766D01*
X14725037Y-13015766D02*
X14725037Y-13072908D01*
X14725037Y-13072908D02*
X14715513Y-13091956D01*
X14715513Y-13091956D02*
X14705990Y-13101480D01*
X14705990Y-13101480D02*
X14686942Y-13111004D01*
X14686942Y-13111004D02*
X14658370Y-13111004D01*
X14839323Y-13111004D02*
X14820275Y-13101480D01*
X14820275Y-13101480D02*
X14810751Y-13082432D01*
X14810751Y-13082432D02*
X14810751Y-12911004D01*
X14991704Y-13101480D02*
X14972656Y-13111004D01*
X14972656Y-13111004D02*
X14934561Y-13111004D01*
X14934561Y-13111004D02*
X14915513Y-13101480D01*
X14915513Y-13101480D02*
X14905990Y-13082432D01*
X14905990Y-13082432D02*
X14905990Y-13006242D01*
X14905990Y-13006242D02*
X14915513Y-12987194D01*
X14915513Y-12987194D02*
X14934561Y-12977670D01*
X14934561Y-12977670D02*
X14972656Y-12977670D01*
X14972656Y-12977670D02*
X14991704Y-12987194D01*
X14991704Y-12987194D02*
X15001228Y-13006242D01*
X15001228Y-13006242D02*
X15001228Y-13025289D01*
X15001228Y-13025289D02*
X14905990Y-13044337D01*
X15077418Y-13101480D02*
X15096466Y-13111004D01*
X15096466Y-13111004D02*
X15134561Y-13111004D01*
X15134561Y-13111004D02*
X15153609Y-13101480D01*
X15153609Y-13101480D02*
X15163132Y-13082432D01*
X15163132Y-13082432D02*
X15163132Y-13072908D01*
X15163132Y-13072908D02*
X15153609Y-13053861D01*
X15153609Y-13053861D02*
X15134561Y-13044337D01*
X15134561Y-13044337D02*
X15105990Y-13044337D01*
X15105990Y-13044337D02*
X15086942Y-13034813D01*
X15086942Y-13034813D02*
X15077418Y-13015766D01*
X15077418Y-13015766D02*
X15077418Y-13006242D01*
X15077418Y-13006242D02*
X15086942Y-12987194D01*
X15086942Y-12987194D02*
X15105990Y-12977670D01*
X15105990Y-12977670D02*
X15134561Y-12977670D01*
X15134561Y-12977670D02*
X15153609Y-12987194D01*
X15229799Y-13187194D02*
X15239323Y-13177670D01*
X15239323Y-13177670D02*
X15258371Y-13149099D01*
X15258371Y-13149099D02*
X15267894Y-13130051D01*
X15267894Y-13130051D02*
X15277418Y-13101480D01*
X15277418Y-13101480D02*
X15286942Y-13053861D01*
X15286942Y-13053861D02*
X15286942Y-13015766D01*
X15286942Y-13015766D02*
X15277418Y-12968147D01*
X15277418Y-12968147D02*
X15267894Y-12939575D01*
X15267894Y-12939575D02*
X15258371Y-12920528D01*
X15258371Y-12920528D02*
X15239323Y-12891956D01*
X15239323Y-12891956D02*
X15229799Y-12882432D01*
D12*
X10249616Y-13318876D02*
X10249616Y-13248164D01*
X10178904Y-13248164D01*
X10178904Y-13318876D01*
X10249616Y-13318876D01*
D11*
X10629799Y-13375004D02*
X10515513Y-13375004D01*
X10572656Y-13375004D02*
X10572656Y-13175004D01*
X10572656Y-13175004D02*
X10553608Y-13203575D01*
X10553608Y-13203575D02*
X10534561Y-13222623D01*
X10534561Y-13222623D02*
X10515513Y-13232147D01*
X10715513Y-13355956D02*
X10725037Y-13365480D01*
X10725037Y-13365480D02*
X10715513Y-13375004D01*
X10715513Y-13375004D02*
X10705989Y-13365480D01*
X10705989Y-13365480D02*
X10715513Y-13355956D01*
X10715513Y-13355956D02*
X10715513Y-13375004D01*
X10848846Y-13175004D02*
X10867894Y-13175004D01*
X10867894Y-13175004D02*
X10886942Y-13184528D01*
X10886942Y-13184528D02*
X10896465Y-13194051D01*
X10896465Y-13194051D02*
X10905989Y-13213099D01*
X10905989Y-13213099D02*
X10915513Y-13251194D01*
X10915513Y-13251194D02*
X10915513Y-13298813D01*
X10915513Y-13298813D02*
X10905989Y-13336908D01*
X10905989Y-13336908D02*
X10896465Y-13355956D01*
X10896465Y-13355956D02*
X10886942Y-13365480D01*
X10886942Y-13365480D02*
X10867894Y-13375004D01*
X10867894Y-13375004D02*
X10848846Y-13375004D01*
X10848846Y-13375004D02*
X10829799Y-13365480D01*
X10829799Y-13365480D02*
X10820275Y-13355956D01*
X10820275Y-13355956D02*
X10810751Y-13336908D01*
X10810751Y-13336908D02*
X10801227Y-13298813D01*
X10801227Y-13298813D02*
X10801227Y-13251194D01*
X10801227Y-13251194D02*
X10810751Y-13213099D01*
X10810751Y-13213099D02*
X10820275Y-13194051D01*
X10820275Y-13194051D02*
X10829799Y-13184528D01*
X10829799Y-13184528D02*
X10848846Y-13175004D01*
X11039323Y-13175004D02*
X11058370Y-13175004D01*
X11058370Y-13175004D02*
X11077418Y-13184528D01*
X11077418Y-13184528D02*
X11086942Y-13194051D01*
X11086942Y-13194051D02*
X11096465Y-13213099D01*
X11096465Y-13213099D02*
X11105989Y-13251194D01*
X11105989Y-13251194D02*
X11105989Y-13298813D01*
X11105989Y-13298813D02*
X11096465Y-13336908D01*
X11096465Y-13336908D02*
X11086942Y-13355956D01*
X11086942Y-13355956D02*
X11077418Y-13365480D01*
X11077418Y-13365480D02*
X11058370Y-13375004D01*
X11058370Y-13375004D02*
X11039323Y-13375004D01*
X11039323Y-13375004D02*
X11020275Y-13365480D01*
X11020275Y-13365480D02*
X11010751Y-13355956D01*
X11010751Y-13355956D02*
X11001227Y-13336908D01*
X11001227Y-13336908D02*
X10991704Y-13298813D01*
X10991704Y-13298813D02*
X10991704Y-13251194D01*
X10991704Y-13251194D02*
X11001227Y-13213099D01*
X11001227Y-13213099D02*
X11010751Y-13194051D01*
X11010751Y-13194051D02*
X11020275Y-13184528D01*
X11020275Y-13184528D02*
X11039323Y-13175004D01*
X11229799Y-13175004D02*
X11248846Y-13175004D01*
X11248846Y-13175004D02*
X11267894Y-13184528D01*
X11267894Y-13184528D02*
X11277418Y-13194051D01*
X11277418Y-13194051D02*
X11286942Y-13213099D01*
X11286942Y-13213099D02*
X11296465Y-13251194D01*
X11296465Y-13251194D02*
X11296465Y-13298813D01*
X11296465Y-13298813D02*
X11286942Y-13336908D01*
X11286942Y-13336908D02*
X11277418Y-13355956D01*
X11277418Y-13355956D02*
X11267894Y-13365480D01*
X11267894Y-13365480D02*
X11248846Y-13375004D01*
X11248846Y-13375004D02*
X11229799Y-13375004D01*
X11229799Y-13375004D02*
X11210751Y-13365480D01*
X11210751Y-13365480D02*
X11201227Y-13355956D01*
X11201227Y-13355956D02*
X11191703Y-13336908D01*
X11191703Y-13336908D02*
X11182180Y-13298813D01*
X11182180Y-13298813D02*
X11182180Y-13251194D01*
X11182180Y-13251194D02*
X11191703Y-13213099D01*
X11191703Y-13213099D02*
X11201227Y-13194051D01*
X11201227Y-13194051D02*
X11210751Y-13184528D01*
X11210751Y-13184528D02*
X11229799Y-13175004D01*
X11382180Y-13375004D02*
X11382180Y-13241670D01*
X11382180Y-13260718D02*
X11391703Y-13251194D01*
X11391703Y-13251194D02*
X11410751Y-13241670D01*
X11410751Y-13241670D02*
X11439323Y-13241670D01*
X11439323Y-13241670D02*
X11458370Y-13251194D01*
X11458370Y-13251194D02*
X11467894Y-13270242D01*
X11467894Y-13270242D02*
X11467894Y-13375004D01*
X11467894Y-13270242D02*
X11477418Y-13251194D01*
X11477418Y-13251194D02*
X11496465Y-13241670D01*
X11496465Y-13241670D02*
X11525037Y-13241670D01*
X11525037Y-13241670D02*
X11544084Y-13251194D01*
X11544084Y-13251194D02*
X11553608Y-13270242D01*
X11553608Y-13270242D02*
X11553608Y-13375004D01*
X11648846Y-13375004D02*
X11648846Y-13241670D01*
X11648846Y-13260718D02*
X11658370Y-13251194D01*
X11658370Y-13251194D02*
X11677418Y-13241670D01*
X11677418Y-13241670D02*
X11705989Y-13241670D01*
X11705989Y-13241670D02*
X11725037Y-13251194D01*
X11725037Y-13251194D02*
X11734561Y-13270242D01*
X11734561Y-13270242D02*
X11734561Y-13375004D01*
X11734561Y-13270242D02*
X11744084Y-13251194D01*
X11744084Y-13251194D02*
X11763132Y-13241670D01*
X11763132Y-13241670D02*
X11791703Y-13241670D01*
X11791703Y-13241670D02*
X11810751Y-13251194D01*
X11810751Y-13251194D02*
X11820275Y-13270242D01*
X11820275Y-13270242D02*
X11820275Y-13375004D01*
X12210751Y-13165480D02*
X12039323Y-13422623D01*
X12467894Y-13175004D02*
X12486942Y-13175004D01*
X12486942Y-13175004D02*
X12505989Y-13184528D01*
X12505989Y-13184528D02*
X12515513Y-13194051D01*
X12515513Y-13194051D02*
X12525037Y-13213099D01*
X12525037Y-13213099D02*
X12534561Y-13251194D01*
X12534561Y-13251194D02*
X12534561Y-13298813D01*
X12534561Y-13298813D02*
X12525037Y-13336908D01*
X12525037Y-13336908D02*
X12515513Y-13355956D01*
X12515513Y-13355956D02*
X12505989Y-13365480D01*
X12505989Y-13365480D02*
X12486942Y-13375004D01*
X12486942Y-13375004D02*
X12467894Y-13375004D01*
X12467894Y-13375004D02*
X12448846Y-13365480D01*
X12448846Y-13365480D02*
X12439323Y-13355956D01*
X12439323Y-13355956D02*
X12429799Y-13336908D01*
X12429799Y-13336908D02*
X12420275Y-13298813D01*
X12420275Y-13298813D02*
X12420275Y-13251194D01*
X12420275Y-13251194D02*
X12429799Y-13213099D01*
X12429799Y-13213099D02*
X12439323Y-13194051D01*
X12439323Y-13194051D02*
X12448846Y-13184528D01*
X12448846Y-13184528D02*
X12467894Y-13175004D01*
X12620275Y-13355956D02*
X12629799Y-13365480D01*
X12629799Y-13365480D02*
X12620275Y-13375004D01*
X12620275Y-13375004D02*
X12610751Y-13365480D01*
X12610751Y-13365480D02*
X12620275Y-13355956D01*
X12620275Y-13355956D02*
X12620275Y-13375004D01*
X12753608Y-13175004D02*
X12772656Y-13175004D01*
X12772656Y-13175004D02*
X12791704Y-13184528D01*
X12791704Y-13184528D02*
X12801227Y-13194051D01*
X12801227Y-13194051D02*
X12810751Y-13213099D01*
X12810751Y-13213099D02*
X12820275Y-13251194D01*
X12820275Y-13251194D02*
X12820275Y-13298813D01*
X12820275Y-13298813D02*
X12810751Y-13336908D01*
X12810751Y-13336908D02*
X12801227Y-13355956D01*
X12801227Y-13355956D02*
X12791704Y-13365480D01*
X12791704Y-13365480D02*
X12772656Y-13375004D01*
X12772656Y-13375004D02*
X12753608Y-13375004D01*
X12753608Y-13375004D02*
X12734561Y-13365480D01*
X12734561Y-13365480D02*
X12725037Y-13355956D01*
X12725037Y-13355956D02*
X12715513Y-13336908D01*
X12715513Y-13336908D02*
X12705989Y-13298813D01*
X12705989Y-13298813D02*
X12705989Y-13251194D01*
X12705989Y-13251194D02*
X12715513Y-13213099D01*
X12715513Y-13213099D02*
X12725037Y-13194051D01*
X12725037Y-13194051D02*
X12734561Y-13184528D01*
X12734561Y-13184528D02*
X12753608Y-13175004D01*
X12886942Y-13175004D02*
X13010751Y-13175004D01*
X13010751Y-13175004D02*
X12944085Y-13251194D01*
X12944085Y-13251194D02*
X12972656Y-13251194D01*
X12972656Y-13251194D02*
X12991704Y-13260718D01*
X12991704Y-13260718D02*
X13001227Y-13270242D01*
X13001227Y-13270242D02*
X13010751Y-13289289D01*
X13010751Y-13289289D02*
X13010751Y-13336908D01*
X13010751Y-13336908D02*
X13001227Y-13355956D01*
X13001227Y-13355956D02*
X12991704Y-13365480D01*
X12991704Y-13365480D02*
X12972656Y-13375004D01*
X12972656Y-13375004D02*
X12915513Y-13375004D01*
X12915513Y-13375004D02*
X12896466Y-13365480D01*
X12896466Y-13365480D02*
X12886942Y-13355956D01*
X13105989Y-13375004D02*
X13144085Y-13375004D01*
X13144085Y-13375004D02*
X13163132Y-13365480D01*
X13163132Y-13365480D02*
X13172656Y-13355956D01*
X13172656Y-13355956D02*
X13191704Y-13327385D01*
X13191704Y-13327385D02*
X13201227Y-13289289D01*
X13201227Y-13289289D02*
X13201227Y-13213099D01*
X13201227Y-13213099D02*
X13191704Y-13194051D01*
X13191704Y-13194051D02*
X13182180Y-13184528D01*
X13182180Y-13184528D02*
X13163132Y-13175004D01*
X13163132Y-13175004D02*
X13125037Y-13175004D01*
X13125037Y-13175004D02*
X13105989Y-13184528D01*
X13105989Y-13184528D02*
X13096466Y-13194051D01*
X13096466Y-13194051D02*
X13086942Y-13213099D01*
X13086942Y-13213099D02*
X13086942Y-13260718D01*
X13086942Y-13260718D02*
X13096466Y-13279766D01*
X13096466Y-13279766D02*
X13105989Y-13289289D01*
X13105989Y-13289289D02*
X13125037Y-13298813D01*
X13125037Y-13298813D02*
X13163132Y-13298813D01*
X13163132Y-13298813D02*
X13182180Y-13289289D01*
X13182180Y-13289289D02*
X13191704Y-13279766D01*
X13191704Y-13279766D02*
X13201227Y-13260718D01*
X13372656Y-13241670D02*
X13372656Y-13375004D01*
X13325037Y-13165480D02*
X13277418Y-13308337D01*
X13277418Y-13308337D02*
X13401227Y-13308337D01*
X13467894Y-13175004D02*
X13467894Y-13213099D01*
X13544085Y-13175004D02*
X13544085Y-13213099D01*
X13839323Y-13451194D02*
X13829799Y-13441670D01*
X13829799Y-13441670D02*
X13810751Y-13413099D01*
X13810751Y-13413099D02*
X13801228Y-13394051D01*
X13801228Y-13394051D02*
X13791704Y-13365480D01*
X13791704Y-13365480D02*
X13782180Y-13317861D01*
X13782180Y-13317861D02*
X13782180Y-13279766D01*
X13782180Y-13279766D02*
X13791704Y-13232147D01*
X13791704Y-13232147D02*
X13801228Y-13203575D01*
X13801228Y-13203575D02*
X13810751Y-13184528D01*
X13810751Y-13184528D02*
X13829799Y-13155956D01*
X13829799Y-13155956D02*
X13839323Y-13146432D01*
X14001228Y-13175004D02*
X13963132Y-13175004D01*
X13963132Y-13175004D02*
X13944085Y-13184528D01*
X13944085Y-13184528D02*
X13934561Y-13194051D01*
X13934561Y-13194051D02*
X13915513Y-13222623D01*
X13915513Y-13222623D02*
X13905989Y-13260718D01*
X13905989Y-13260718D02*
X13905989Y-13336908D01*
X13905989Y-13336908D02*
X13915513Y-13355956D01*
X13915513Y-13355956D02*
X13925037Y-13365480D01*
X13925037Y-13365480D02*
X13944085Y-13375004D01*
X13944085Y-13375004D02*
X13982180Y-13375004D01*
X13982180Y-13375004D02*
X14001228Y-13365480D01*
X14001228Y-13365480D02*
X14010751Y-13355956D01*
X14010751Y-13355956D02*
X14020275Y-13336908D01*
X14020275Y-13336908D02*
X14020275Y-13289289D01*
X14020275Y-13289289D02*
X14010751Y-13270242D01*
X14010751Y-13270242D02*
X14001228Y-13260718D01*
X14001228Y-13260718D02*
X13982180Y-13251194D01*
X13982180Y-13251194D02*
X13944085Y-13251194D01*
X13944085Y-13251194D02*
X13925037Y-13260718D01*
X13925037Y-13260718D02*
X13915513Y-13270242D01*
X13915513Y-13270242D02*
X13905989Y-13289289D01*
X14086942Y-13175004D02*
X14210751Y-13175004D01*
X14210751Y-13175004D02*
X14144085Y-13251194D01*
X14144085Y-13251194D02*
X14172656Y-13251194D01*
X14172656Y-13251194D02*
X14191704Y-13260718D01*
X14191704Y-13260718D02*
X14201228Y-13270242D01*
X14201228Y-13270242D02*
X14210751Y-13289289D01*
X14210751Y-13289289D02*
X14210751Y-13336908D01*
X14210751Y-13336908D02*
X14201228Y-13355956D01*
X14201228Y-13355956D02*
X14191704Y-13365480D01*
X14191704Y-13365480D02*
X14172656Y-13375004D01*
X14172656Y-13375004D02*
X14115513Y-13375004D01*
X14115513Y-13375004D02*
X14096466Y-13365480D01*
X14096466Y-13365480D02*
X14086942Y-13355956D01*
X14448847Y-13375004D02*
X14448847Y-13175004D01*
X14534561Y-13375004D02*
X14534561Y-13270242D01*
X14534561Y-13270242D02*
X14525037Y-13251194D01*
X14525037Y-13251194D02*
X14505990Y-13241670D01*
X14505990Y-13241670D02*
X14477418Y-13241670D01*
X14477418Y-13241670D02*
X14458370Y-13251194D01*
X14458370Y-13251194D02*
X14448847Y-13260718D01*
X14658370Y-13375004D02*
X14639323Y-13365480D01*
X14639323Y-13365480D02*
X14629799Y-13355956D01*
X14629799Y-13355956D02*
X14620275Y-13336908D01*
X14620275Y-13336908D02*
X14620275Y-13279766D01*
X14620275Y-13279766D02*
X14629799Y-13260718D01*
X14629799Y-13260718D02*
X14639323Y-13251194D01*
X14639323Y-13251194D02*
X14658370Y-13241670D01*
X14658370Y-13241670D02*
X14686942Y-13241670D01*
X14686942Y-13241670D02*
X14705990Y-13251194D01*
X14705990Y-13251194D02*
X14715513Y-13260718D01*
X14715513Y-13260718D02*
X14725037Y-13279766D01*
X14725037Y-13279766D02*
X14725037Y-13336908D01*
X14725037Y-13336908D02*
X14715513Y-13355956D01*
X14715513Y-13355956D02*
X14705990Y-13365480D01*
X14705990Y-13365480D02*
X14686942Y-13375004D01*
X14686942Y-13375004D02*
X14658370Y-13375004D01*
X14839323Y-13375004D02*
X14820275Y-13365480D01*
X14820275Y-13365480D02*
X14810751Y-13346432D01*
X14810751Y-13346432D02*
X14810751Y-13175004D01*
X14991704Y-13365480D02*
X14972656Y-13375004D01*
X14972656Y-13375004D02*
X14934561Y-13375004D01*
X14934561Y-13375004D02*
X14915513Y-13365480D01*
X14915513Y-13365480D02*
X14905990Y-13346432D01*
X14905990Y-13346432D02*
X14905990Y-13270242D01*
X14905990Y-13270242D02*
X14915513Y-13251194D01*
X14915513Y-13251194D02*
X14934561Y-13241670D01*
X14934561Y-13241670D02*
X14972656Y-13241670D01*
X14972656Y-13241670D02*
X14991704Y-13251194D01*
X14991704Y-13251194D02*
X15001228Y-13270242D01*
X15001228Y-13270242D02*
X15001228Y-13289289D01*
X15001228Y-13289289D02*
X14905990Y-13308337D01*
X15077418Y-13365480D02*
X15096466Y-13375004D01*
X15096466Y-13375004D02*
X15134561Y-13375004D01*
X15134561Y-13375004D02*
X15153609Y-13365480D01*
X15153609Y-13365480D02*
X15163132Y-13346432D01*
X15163132Y-13346432D02*
X15163132Y-13336908D01*
X15163132Y-13336908D02*
X15153609Y-13317861D01*
X15153609Y-13317861D02*
X15134561Y-13308337D01*
X15134561Y-13308337D02*
X15105990Y-13308337D01*
X15105990Y-13308337D02*
X15086942Y-13298813D01*
X15086942Y-13298813D02*
X15077418Y-13279766D01*
X15077418Y-13279766D02*
X15077418Y-13270242D01*
X15077418Y-13270242D02*
X15086942Y-13251194D01*
X15086942Y-13251194D02*
X15105990Y-13241670D01*
X15105990Y-13241670D02*
X15134561Y-13241670D01*
X15134561Y-13241670D02*
X15153609Y-13251194D01*
X15229799Y-13451194D02*
X15239323Y-13441670D01*
X15239323Y-13441670D02*
X15258371Y-13413099D01*
X15258371Y-13413099D02*
X15267894Y-13394051D01*
X15267894Y-13394051D02*
X15277418Y-13365480D01*
X15277418Y-13365480D02*
X15286942Y-13317861D01*
X15286942Y-13317861D02*
X15286942Y-13279766D01*
X15286942Y-13279766D02*
X15277418Y-13232147D01*
X15277418Y-13232147D02*
X15267894Y-13203575D01*
X15267894Y-13203575D02*
X15258371Y-13184528D01*
X15258371Y-13184528D02*
X15239323Y-13155956D01*
X15239323Y-13155956D02*
X15229799Y-13146432D01*
D13*
X10209260Y-13602520D02*
X10264260Y-13547520D01*
X10209260Y-13492520D01*
X10154260Y-13547520D01*
X10209260Y-13602520D01*
D11*
X10629799Y-13639004D02*
X10515513Y-13639004D01*
X10572656Y-13639004D02*
X10572656Y-13439004D01*
X10572656Y-13439004D02*
X10553608Y-13467575D01*
X10553608Y-13467575D02*
X10534561Y-13486623D01*
X10534561Y-13486623D02*
X10515513Y-13496147D01*
X10715513Y-13619956D02*
X10725037Y-13629480D01*
X10725037Y-13629480D02*
X10715513Y-13639004D01*
X10715513Y-13639004D02*
X10705989Y-13629480D01*
X10705989Y-13629480D02*
X10715513Y-13619956D01*
X10715513Y-13619956D02*
X10715513Y-13639004D01*
X10915513Y-13639004D02*
X10801227Y-13639004D01*
X10858370Y-13639004D02*
X10858370Y-13439004D01*
X10858370Y-13439004D02*
X10839323Y-13467575D01*
X10839323Y-13467575D02*
X10820275Y-13486623D01*
X10820275Y-13486623D02*
X10801227Y-13496147D01*
X11039323Y-13439004D02*
X11058370Y-13439004D01*
X11058370Y-13439004D02*
X11077418Y-13448528D01*
X11077418Y-13448528D02*
X11086942Y-13458051D01*
X11086942Y-13458051D02*
X11096465Y-13477099D01*
X11096465Y-13477099D02*
X11105989Y-13515194D01*
X11105989Y-13515194D02*
X11105989Y-13562813D01*
X11105989Y-13562813D02*
X11096465Y-13600908D01*
X11096465Y-13600908D02*
X11086942Y-13619956D01*
X11086942Y-13619956D02*
X11077418Y-13629480D01*
X11077418Y-13629480D02*
X11058370Y-13639004D01*
X11058370Y-13639004D02*
X11039323Y-13639004D01*
X11039323Y-13639004D02*
X11020275Y-13629480D01*
X11020275Y-13629480D02*
X11010751Y-13619956D01*
X11010751Y-13619956D02*
X11001227Y-13600908D01*
X11001227Y-13600908D02*
X10991704Y-13562813D01*
X10991704Y-13562813D02*
X10991704Y-13515194D01*
X10991704Y-13515194D02*
X11001227Y-13477099D01*
X11001227Y-13477099D02*
X11010751Y-13458051D01*
X11010751Y-13458051D02*
X11020275Y-13448528D01*
X11020275Y-13448528D02*
X11039323Y-13439004D01*
X11229799Y-13439004D02*
X11248846Y-13439004D01*
X11248846Y-13439004D02*
X11267894Y-13448528D01*
X11267894Y-13448528D02*
X11277418Y-13458051D01*
X11277418Y-13458051D02*
X11286942Y-13477099D01*
X11286942Y-13477099D02*
X11296465Y-13515194D01*
X11296465Y-13515194D02*
X11296465Y-13562813D01*
X11296465Y-13562813D02*
X11286942Y-13600908D01*
X11286942Y-13600908D02*
X11277418Y-13619956D01*
X11277418Y-13619956D02*
X11267894Y-13629480D01*
X11267894Y-13629480D02*
X11248846Y-13639004D01*
X11248846Y-13639004D02*
X11229799Y-13639004D01*
X11229799Y-13639004D02*
X11210751Y-13629480D01*
X11210751Y-13629480D02*
X11201227Y-13619956D01*
X11201227Y-13619956D02*
X11191703Y-13600908D01*
X11191703Y-13600908D02*
X11182180Y-13562813D01*
X11182180Y-13562813D02*
X11182180Y-13515194D01*
X11182180Y-13515194D02*
X11191703Y-13477099D01*
X11191703Y-13477099D02*
X11201227Y-13458051D01*
X11201227Y-13458051D02*
X11210751Y-13448528D01*
X11210751Y-13448528D02*
X11229799Y-13439004D01*
X11382180Y-13639004D02*
X11382180Y-13505670D01*
X11382180Y-13524718D02*
X11391703Y-13515194D01*
X11391703Y-13515194D02*
X11410751Y-13505670D01*
X11410751Y-13505670D02*
X11439323Y-13505670D01*
X11439323Y-13505670D02*
X11458370Y-13515194D01*
X11458370Y-13515194D02*
X11467894Y-13534242D01*
X11467894Y-13534242D02*
X11467894Y-13639004D01*
X11467894Y-13534242D02*
X11477418Y-13515194D01*
X11477418Y-13515194D02*
X11496465Y-13505670D01*
X11496465Y-13505670D02*
X11525037Y-13505670D01*
X11525037Y-13505670D02*
X11544084Y-13515194D01*
X11544084Y-13515194D02*
X11553608Y-13534242D01*
X11553608Y-13534242D02*
X11553608Y-13639004D01*
X11648846Y-13639004D02*
X11648846Y-13505670D01*
X11648846Y-13524718D02*
X11658370Y-13515194D01*
X11658370Y-13515194D02*
X11677418Y-13505670D01*
X11677418Y-13505670D02*
X11705989Y-13505670D01*
X11705989Y-13505670D02*
X11725037Y-13515194D01*
X11725037Y-13515194D02*
X11734561Y-13534242D01*
X11734561Y-13534242D02*
X11734561Y-13639004D01*
X11734561Y-13534242D02*
X11744084Y-13515194D01*
X11744084Y-13515194D02*
X11763132Y-13505670D01*
X11763132Y-13505670D02*
X11791703Y-13505670D01*
X11791703Y-13505670D02*
X11810751Y-13515194D01*
X11810751Y-13515194D02*
X11820275Y-13534242D01*
X11820275Y-13534242D02*
X11820275Y-13639004D01*
X12210751Y-13429480D02*
X12039323Y-13686623D01*
X12467894Y-13439004D02*
X12486942Y-13439004D01*
X12486942Y-13439004D02*
X12505989Y-13448528D01*
X12505989Y-13448528D02*
X12515513Y-13458051D01*
X12515513Y-13458051D02*
X12525037Y-13477099D01*
X12525037Y-13477099D02*
X12534561Y-13515194D01*
X12534561Y-13515194D02*
X12534561Y-13562813D01*
X12534561Y-13562813D02*
X12525037Y-13600908D01*
X12525037Y-13600908D02*
X12515513Y-13619956D01*
X12515513Y-13619956D02*
X12505989Y-13629480D01*
X12505989Y-13629480D02*
X12486942Y-13639004D01*
X12486942Y-13639004D02*
X12467894Y-13639004D01*
X12467894Y-13639004D02*
X12448846Y-13629480D01*
X12448846Y-13629480D02*
X12439323Y-13619956D01*
X12439323Y-13619956D02*
X12429799Y-13600908D01*
X12429799Y-13600908D02*
X12420275Y-13562813D01*
X12420275Y-13562813D02*
X12420275Y-13515194D01*
X12420275Y-13515194D02*
X12429799Y-13477099D01*
X12429799Y-13477099D02*
X12439323Y-13458051D01*
X12439323Y-13458051D02*
X12448846Y-13448528D01*
X12448846Y-13448528D02*
X12467894Y-13439004D01*
X12620275Y-13619956D02*
X12629799Y-13629480D01*
X12629799Y-13629480D02*
X12620275Y-13639004D01*
X12620275Y-13639004D02*
X12610751Y-13629480D01*
X12610751Y-13629480D02*
X12620275Y-13619956D01*
X12620275Y-13619956D02*
X12620275Y-13639004D01*
X12753608Y-13439004D02*
X12772656Y-13439004D01*
X12772656Y-13439004D02*
X12791704Y-13448528D01*
X12791704Y-13448528D02*
X12801227Y-13458051D01*
X12801227Y-13458051D02*
X12810751Y-13477099D01*
X12810751Y-13477099D02*
X12820275Y-13515194D01*
X12820275Y-13515194D02*
X12820275Y-13562813D01*
X12820275Y-13562813D02*
X12810751Y-13600908D01*
X12810751Y-13600908D02*
X12801227Y-13619956D01*
X12801227Y-13619956D02*
X12791704Y-13629480D01*
X12791704Y-13629480D02*
X12772656Y-13639004D01*
X12772656Y-13639004D02*
X12753608Y-13639004D01*
X12753608Y-13639004D02*
X12734561Y-13629480D01*
X12734561Y-13629480D02*
X12725037Y-13619956D01*
X12725037Y-13619956D02*
X12715513Y-13600908D01*
X12715513Y-13600908D02*
X12705989Y-13562813D01*
X12705989Y-13562813D02*
X12705989Y-13515194D01*
X12705989Y-13515194D02*
X12715513Y-13477099D01*
X12715513Y-13477099D02*
X12725037Y-13458051D01*
X12725037Y-13458051D02*
X12734561Y-13448528D01*
X12734561Y-13448528D02*
X12753608Y-13439004D01*
X12991704Y-13505670D02*
X12991704Y-13639004D01*
X12944085Y-13429480D02*
X12896466Y-13572337D01*
X12896466Y-13572337D02*
X13020275Y-13572337D01*
X13077418Y-13439004D02*
X13201227Y-13439004D01*
X13201227Y-13439004D02*
X13134561Y-13515194D01*
X13134561Y-13515194D02*
X13163132Y-13515194D01*
X13163132Y-13515194D02*
X13182180Y-13524718D01*
X13182180Y-13524718D02*
X13191704Y-13534242D01*
X13191704Y-13534242D02*
X13201227Y-13553289D01*
X13201227Y-13553289D02*
X13201227Y-13600908D01*
X13201227Y-13600908D02*
X13191704Y-13619956D01*
X13191704Y-13619956D02*
X13182180Y-13629480D01*
X13182180Y-13629480D02*
X13163132Y-13639004D01*
X13163132Y-13639004D02*
X13105989Y-13639004D01*
X13105989Y-13639004D02*
X13086942Y-13629480D01*
X13086942Y-13629480D02*
X13077418Y-13619956D01*
X13267894Y-13439004D02*
X13391704Y-13439004D01*
X13391704Y-13439004D02*
X13325037Y-13515194D01*
X13325037Y-13515194D02*
X13353608Y-13515194D01*
X13353608Y-13515194D02*
X13372656Y-13524718D01*
X13372656Y-13524718D02*
X13382180Y-13534242D01*
X13382180Y-13534242D02*
X13391704Y-13553289D01*
X13391704Y-13553289D02*
X13391704Y-13600908D01*
X13391704Y-13600908D02*
X13382180Y-13619956D01*
X13382180Y-13619956D02*
X13372656Y-13629480D01*
X13372656Y-13629480D02*
X13353608Y-13639004D01*
X13353608Y-13639004D02*
X13296466Y-13639004D01*
X13296466Y-13639004D02*
X13277418Y-13629480D01*
X13277418Y-13629480D02*
X13267894Y-13619956D01*
X13467894Y-13439004D02*
X13467894Y-13477099D01*
X13544085Y-13439004D02*
X13544085Y-13477099D01*
X13839323Y-13715194D02*
X13829799Y-13705670D01*
X13829799Y-13705670D02*
X13810751Y-13677099D01*
X13810751Y-13677099D02*
X13801228Y-13658051D01*
X13801228Y-13658051D02*
X13791704Y-13629480D01*
X13791704Y-13629480D02*
X13782180Y-13581861D01*
X13782180Y-13581861D02*
X13782180Y-13543766D01*
X13782180Y-13543766D02*
X13791704Y-13496147D01*
X13791704Y-13496147D02*
X13801228Y-13467575D01*
X13801228Y-13467575D02*
X13810751Y-13448528D01*
X13810751Y-13448528D02*
X13829799Y-13419956D01*
X13829799Y-13419956D02*
X13839323Y-13410432D01*
X14001228Y-13505670D02*
X14001228Y-13639004D01*
X13953608Y-13429480D02*
X13905989Y-13572337D01*
X13905989Y-13572337D02*
X14029799Y-13572337D01*
X14258370Y-13639004D02*
X14258370Y-13439004D01*
X14344085Y-13639004D02*
X14344085Y-13534242D01*
X14344085Y-13534242D02*
X14334561Y-13515194D01*
X14334561Y-13515194D02*
X14315513Y-13505670D01*
X14315513Y-13505670D02*
X14286942Y-13505670D01*
X14286942Y-13505670D02*
X14267894Y-13515194D01*
X14267894Y-13515194D02*
X14258370Y-13524718D01*
X14467894Y-13639004D02*
X14448847Y-13629480D01*
X14448847Y-13629480D02*
X14439323Y-13619956D01*
X14439323Y-13619956D02*
X14429799Y-13600908D01*
X14429799Y-13600908D02*
X14429799Y-13543766D01*
X14429799Y-13543766D02*
X14439323Y-13524718D01*
X14439323Y-13524718D02*
X14448847Y-13515194D01*
X14448847Y-13515194D02*
X14467894Y-13505670D01*
X14467894Y-13505670D02*
X14496466Y-13505670D01*
X14496466Y-13505670D02*
X14515513Y-13515194D01*
X14515513Y-13515194D02*
X14525037Y-13524718D01*
X14525037Y-13524718D02*
X14534561Y-13543766D01*
X14534561Y-13543766D02*
X14534561Y-13600908D01*
X14534561Y-13600908D02*
X14525037Y-13619956D01*
X14525037Y-13619956D02*
X14515513Y-13629480D01*
X14515513Y-13629480D02*
X14496466Y-13639004D01*
X14496466Y-13639004D02*
X14467894Y-13639004D01*
X14648847Y-13639004D02*
X14629799Y-13629480D01*
X14629799Y-13629480D02*
X14620275Y-13610432D01*
X14620275Y-13610432D02*
X14620275Y-13439004D01*
X14801228Y-13629480D02*
X14782180Y-13639004D01*
X14782180Y-13639004D02*
X14744085Y-13639004D01*
X14744085Y-13639004D02*
X14725037Y-13629480D01*
X14725037Y-13629480D02*
X14715513Y-13610432D01*
X14715513Y-13610432D02*
X14715513Y-13534242D01*
X14715513Y-13534242D02*
X14725037Y-13515194D01*
X14725037Y-13515194D02*
X14744085Y-13505670D01*
X14744085Y-13505670D02*
X14782180Y-13505670D01*
X14782180Y-13505670D02*
X14801228Y-13515194D01*
X14801228Y-13515194D02*
X14810751Y-13534242D01*
X14810751Y-13534242D02*
X14810751Y-13553289D01*
X14810751Y-13553289D02*
X14715513Y-13572337D01*
X14886942Y-13629480D02*
X14905990Y-13639004D01*
X14905990Y-13639004D02*
X14944085Y-13639004D01*
X14944085Y-13639004D02*
X14963132Y-13629480D01*
X14963132Y-13629480D02*
X14972656Y-13610432D01*
X14972656Y-13610432D02*
X14972656Y-13600908D01*
X14972656Y-13600908D02*
X14963132Y-13581861D01*
X14963132Y-13581861D02*
X14944085Y-13572337D01*
X14944085Y-13572337D02*
X14915513Y-13572337D01*
X14915513Y-13572337D02*
X14896466Y-13562813D01*
X14896466Y-13562813D02*
X14886942Y-13543766D01*
X14886942Y-13543766D02*
X14886942Y-13534242D01*
X14886942Y-13534242D02*
X14896466Y-13515194D01*
X14896466Y-13515194D02*
X14915513Y-13505670D01*
X14915513Y-13505670D02*
X14944085Y-13505670D01*
X14944085Y-13505670D02*
X14963132Y-13515194D01*
X15039323Y-13715194D02*
X15048847Y-13705670D01*
X15048847Y-13705670D02*
X15067894Y-13677099D01*
X15067894Y-13677099D02*
X15077418Y-13658051D01*
X15077418Y-13658051D02*
X15086942Y-13629480D01*
X15086942Y-13629480D02*
X15096466Y-13581861D01*
X15096466Y-13581861D02*
X15096466Y-13543766D01*
X15096466Y-13543766D02*
X15086942Y-13496147D01*
X15086942Y-13496147D02*
X15077418Y-13467575D01*
X15077418Y-13467575D02*
X15067894Y-13448528D01*
X15067894Y-13448528D02*
X15048847Y-13419956D01*
X15048847Y-13419956D02*
X15039323Y-13410432D01*
M02*
