G04 #@! TF.GenerationSoftware,KiCad,Pcbnew,8.0.3+1*
G04 #@! TF.CreationDate,2024-06-25T17:55:50-06:00*
G04 #@! TF.ProjectId,z80-cpu,7a38302d-6370-4752-9e6b-696361645f70,rev?*
G04 #@! TF.SameCoordinates,Original*
G04 #@! TF.FileFunction,Soldermask,Top*
G04 #@! TF.FilePolarity,Negative*
%FSLAX46Y46*%
G04 Gerber Fmt 4.6, Leading zero omitted, Abs format (unit mm)*
G04 Created by KiCad (PCBNEW 8.0.3+1) date 2024-06-25 17:55:50*
%MOMM*%
%LPD*%
G01*
G04 APERTURE LIST*
%ADD10C,1.600000*%
%ADD11O,1.600000X1.600000*%
%ADD12R,1.700000X1.700000*%
%ADD13O,1.700000X1.700000*%
%ADD14R,1.600000X2.400000*%
%ADD15O,1.600000X2.400000*%
%ADD16R,2.500000X2.500000*%
%ADD17C,2.500000*%
%ADD18C,2.000000*%
%ADD19C,3.200000*%
%ADD20R,1.600000X1.600000*%
%ADD21R,1.500000X1.500000*%
%ADD22C,1.500000*%
G04 APERTURE END LIST*
D10*
X154305000Y-71120000D03*
D11*
X154305000Y-81280000D03*
D12*
X176530000Y-102870000D03*
D13*
X176530000Y-100330000D03*
X179070000Y-102870000D03*
X179070000Y-100330000D03*
X181610000Y-102870000D03*
X181610000Y-100330000D03*
X184150000Y-102870000D03*
X184150000Y-100330000D03*
X186690000Y-102870000D03*
X186690000Y-100330000D03*
X189230000Y-102870000D03*
X189230000Y-100330000D03*
X191770000Y-102870000D03*
X191770000Y-100330000D03*
X194310000Y-102870000D03*
X194310000Y-100330000D03*
X196850000Y-102870000D03*
X196850000Y-100330000D03*
D10*
X176530000Y-73700000D03*
X176530000Y-78700000D03*
D14*
X132080000Y-80010000D03*
D15*
X134620000Y-80010000D03*
X137160000Y-80010000D03*
X139700000Y-80010000D03*
X139700000Y-72390000D03*
X137160000Y-72390000D03*
X134620000Y-72390000D03*
X132080000Y-72390000D03*
D10*
X160655000Y-71120000D03*
D11*
X160655000Y-81280000D03*
D14*
X115570000Y-106680000D03*
D15*
X118110000Y-106680000D03*
X120650000Y-106680000D03*
X123190000Y-106680000D03*
X125730000Y-106680000D03*
X128270000Y-106680000D03*
X130810000Y-106680000D03*
X133350000Y-106680000D03*
X135890000Y-106680000D03*
X138430000Y-106680000D03*
X140970000Y-106680000D03*
X143510000Y-106680000D03*
X146050000Y-106680000D03*
X148590000Y-106680000D03*
X151130000Y-106680000D03*
X153670000Y-106680000D03*
X156210000Y-106680000D03*
X158750000Y-106680000D03*
X161290000Y-106680000D03*
X163830000Y-106680000D03*
X163830000Y-91440000D03*
X161290000Y-91440000D03*
X158750000Y-91440000D03*
X156210000Y-91440000D03*
X153670000Y-91440000D03*
X151130000Y-91440000D03*
X148590000Y-91440000D03*
X146050000Y-91440000D03*
X143510000Y-91440000D03*
X140970000Y-91440000D03*
X138430000Y-91440000D03*
X135890000Y-91440000D03*
X133350000Y-91440000D03*
X130810000Y-91440000D03*
X128270000Y-91440000D03*
X125730000Y-91440000D03*
X123190000Y-91440000D03*
X120650000Y-91440000D03*
X118110000Y-91440000D03*
X115570000Y-91440000D03*
D12*
X104140000Y-116840000D03*
D13*
X106680000Y-116840000D03*
X109220000Y-116840000D03*
X111760000Y-116840000D03*
X114300000Y-116840000D03*
X116840000Y-116840000D03*
X119380000Y-116840000D03*
X121920000Y-116840000D03*
X124460000Y-116840000D03*
X127000000Y-116840000D03*
X129540000Y-116840000D03*
X132080000Y-116840000D03*
X134620000Y-116840000D03*
X137160000Y-116840000D03*
X139700000Y-116840000D03*
X142240000Y-116840000D03*
X144780000Y-116840000D03*
X147320000Y-116840000D03*
X149860000Y-116840000D03*
X152400000Y-116840000D03*
X154940000Y-116840000D03*
X157480000Y-116840000D03*
X160020000Y-116840000D03*
X162560000Y-116840000D03*
X165100000Y-116840000D03*
X167640000Y-116840000D03*
X170180000Y-116840000D03*
X172720000Y-116840000D03*
X175260000Y-116840000D03*
X177800000Y-116840000D03*
X180340000Y-116840000D03*
X182880000Y-116840000D03*
X185420000Y-116840000D03*
X187960000Y-116840000D03*
X190500000Y-116840000D03*
X193040000Y-116840000D03*
X195580000Y-116840000D03*
X198120000Y-116840000D03*
X200660000Y-116840000D03*
D16*
X181610000Y-81280000D03*
X189230000Y-81280000D03*
D17*
X196850000Y-81280000D03*
X196850000Y-73660000D03*
X181610000Y-73660000D03*
X189230000Y-73660000D03*
D10*
X147955000Y-81280000D03*
D11*
X147955000Y-71120000D03*
D10*
X123230000Y-83820000D03*
X128230000Y-83820000D03*
D14*
X181610000Y-95250000D03*
D15*
X184150000Y-95250000D03*
X186690000Y-95250000D03*
X189230000Y-95250000D03*
X191770000Y-95250000D03*
X194310000Y-95250000D03*
X196850000Y-95250000D03*
X196850000Y-87630000D03*
X194310000Y-87630000D03*
X191770000Y-87630000D03*
X189230000Y-87630000D03*
X186690000Y-87630000D03*
X184150000Y-87630000D03*
X181610000Y-87630000D03*
D18*
X114220913Y-75637107D03*
X118817107Y-71040913D03*
X117402894Y-78819088D03*
X121999088Y-74222893D03*
D19*
X108585000Y-81280000D03*
D10*
X128270000Y-72390000D03*
X128270000Y-77390000D03*
X177800000Y-88940000D03*
X177800000Y-93940000D03*
X167005000Y-71120000D03*
D11*
X167005000Y-81280000D03*
D20*
X107910000Y-95250000D03*
D10*
X105410000Y-95250000D03*
X157480000Y-71120000D03*
D11*
X157480000Y-81280000D03*
D21*
X147310000Y-85540000D03*
D22*
X149850000Y-85540000D03*
X152390000Y-85540000D03*
D10*
X151130000Y-71120000D03*
D11*
X151130000Y-81280000D03*
D10*
X163830000Y-71120000D03*
D11*
X163830000Y-81280000D03*
D10*
X123270000Y-81280000D03*
X128270000Y-81280000D03*
X144780000Y-71120000D03*
D11*
X144780000Y-81280000D03*
D10*
X111760000Y-95210000D03*
X111760000Y-90210000D03*
M02*
