G04 #@! TF.GenerationSoftware,KiCad,Pcbnew,8.0.3+1*
G04 #@! TF.CreationDate,2024-06-25T17:55:50-06:00*
G04 #@! TF.ProjectId,z80-cpu,7a38302d-6370-4752-9e6b-696361645f70,rev?*
G04 #@! TF.SameCoordinates,Original*
G04 #@! TF.FileFunction,Legend,Bot*
G04 #@! TF.FilePolarity,Positive*
%FSLAX46Y46*%
G04 Gerber Fmt 4.6, Leading zero omitted, Abs format (unit mm)*
G04 Created by KiCad (PCBNEW 8.0.3+1) date 2024-06-25 17:55:50*
%MOMM*%
%LPD*%
G01*
G04 APERTURE LIST*
%ADD10C,0.635000*%
%ADD11C,0.150000*%
%ADD12C,0.508000*%
%ADD13C,0.300000*%
%ADD14C,1.600000*%
%ADD15O,1.600000X1.600000*%
%ADD16R,1.700000X1.700000*%
%ADD17O,1.700000X1.700000*%
%ADD18R,1.600000X2.400000*%
%ADD19O,1.600000X2.400000*%
%ADD20R,2.500000X2.500000*%
%ADD21C,2.500000*%
%ADD22C,2.000000*%
%ADD23C,3.200000*%
%ADD24R,1.600000X1.600000*%
%ADD25R,1.500000X1.500000*%
%ADD26C,1.500000*%
G04 APERTURE END LIST*
D10*
X103124000Y-83693000D02*
X117856000Y-68961000D01*
X103124000Y-118135400D02*
X103124000Y-83820000D01*
D11*
X105740200Y-111455200D02*
X103149400Y-111455200D01*
X103149400Y-108966000D01*
X104114600Y-108000800D01*
X105714800Y-108000800D01*
X105740200Y-111455200D01*
G36*
X105740200Y-111455200D02*
G01*
X103149400Y-111455200D01*
X103149400Y-108966000D01*
X104114600Y-108000800D01*
X105714800Y-108000800D01*
X105740200Y-111455200D01*
G37*
X105740200Y-115620800D02*
X103428800Y-115646200D01*
X103428800Y-114985800D01*
X105003600Y-114985800D01*
X104952800Y-111455200D01*
X105740200Y-111429800D01*
X105740200Y-115620800D01*
G36*
X105740200Y-115620800D02*
G01*
X103428800Y-115646200D01*
X103428800Y-114985800D01*
X105003600Y-114985800D01*
X104952800Y-111455200D01*
X105740200Y-111429800D01*
X105740200Y-115620800D01*
G37*
D12*
X105562400Y-115443000D02*
X105562400Y-118262400D01*
D11*
G36*
X183407050Y-113183056D02*
G01*
X183406858Y-113201947D01*
X183403173Y-113266368D01*
X183394797Y-113328147D01*
X183379482Y-113395516D01*
X183358040Y-113459434D01*
X183331131Y-113519514D01*
X183299414Y-113575057D01*
X183262889Y-113626063D01*
X183221557Y-113672533D01*
X183181608Y-113709416D01*
X183125709Y-113751166D01*
X183071736Y-113782922D01*
X183013731Y-113809637D01*
X182952333Y-113830943D01*
X182888182Y-113846161D01*
X182821278Y-113855293D01*
X182751621Y-113858336D01*
X182682236Y-113855293D01*
X182615526Y-113846161D01*
X182551492Y-113830943D01*
X182490133Y-113809637D01*
X182446272Y-113790073D01*
X182391388Y-113759578D01*
X182334557Y-113719245D01*
X182282927Y-113672533D01*
X182241710Y-113626063D01*
X182205224Y-113575057D01*
X182173469Y-113519514D01*
X182146444Y-113459434D01*
X182140434Y-113443778D01*
X182120272Y-113378997D01*
X182106313Y-113310765D01*
X182099189Y-113248232D01*
X182096814Y-113183056D01*
X182335038Y-113183056D01*
X182335743Y-113209728D01*
X182344166Y-113274680D01*
X182363886Y-113337530D01*
X182369516Y-113350082D01*
X182401627Y-113403754D01*
X182446706Y-113452300D01*
X182464148Y-113466488D01*
X182519110Y-113500415D01*
X182578226Y-113524263D01*
X182623169Y-113536409D01*
X182687748Y-113546420D01*
X182751621Y-113549389D01*
X182798809Y-113547818D01*
X182865082Y-113539574D01*
X182925947Y-113524263D01*
X182944893Y-113517711D01*
X183005478Y-113489280D01*
X183057157Y-113452300D01*
X183067056Y-113443332D01*
X183109927Y-113392933D01*
X183139977Y-113337530D01*
X183151218Y-113307025D01*
X183164768Y-113245491D01*
X183168825Y-113183056D01*
X183168825Y-112981123D01*
X182335038Y-112981123D01*
X182335038Y-113183056D01*
X182096814Y-113183056D01*
X182096814Y-112677449D01*
X183407050Y-112677449D01*
X183407050Y-113183056D01*
G37*
G36*
X182208792Y-114810615D02*
G01*
X182259973Y-114801619D01*
X182299677Y-114773702D01*
X182326043Y-114723142D01*
X182334819Y-114661441D01*
X182335038Y-114648076D01*
X182335038Y-114337267D01*
X182546277Y-114300665D01*
X182537490Y-114362581D01*
X182536661Y-114371078D01*
X182533571Y-114433146D01*
X182533559Y-114437148D01*
X182536679Y-114499119D01*
X182547318Y-114561759D01*
X182565508Y-114618608D01*
X182595055Y-114678276D01*
X182632280Y-114729752D01*
X182652051Y-114750748D01*
X182703560Y-114792657D01*
X182758089Y-114822534D01*
X182780779Y-114831708D01*
X182842502Y-114849381D01*
X182907707Y-114858044D01*
X182938975Y-114859004D01*
X183003460Y-114855369D01*
X183070196Y-114842974D01*
X183132533Y-114821782D01*
X183189848Y-114792922D01*
X183241519Y-114757099D01*
X183283595Y-114718489D01*
X183323940Y-114670060D01*
X183357541Y-114615620D01*
X183382234Y-114560913D01*
X183402014Y-114495950D01*
X183412870Y-114433331D01*
X183416942Y-114367319D01*
X183416976Y-114360531D01*
X183413796Y-114298416D01*
X183404258Y-114239248D01*
X183386755Y-114176849D01*
X183369207Y-114131302D01*
X183340648Y-114073995D01*
X183318336Y-114037935D01*
X183280822Y-113987457D01*
X183256918Y-113960078D01*
X183139357Y-114046000D01*
X183111440Y-114077019D01*
X183101824Y-114115793D01*
X183117334Y-114166043D01*
X183150834Y-114217845D01*
X183179943Y-114274367D01*
X183183714Y-114283605D01*
X183197425Y-114346852D01*
X183198603Y-114376661D01*
X183191091Y-114439499D01*
X183179371Y-114471269D01*
X183142847Y-114521984D01*
X183127260Y-114535167D01*
X183071193Y-114564422D01*
X183049712Y-114570839D01*
X182985656Y-114580915D01*
X182954795Y-114582006D01*
X182892161Y-114575665D01*
X182832600Y-114551821D01*
X182803733Y-114528343D01*
X182768322Y-114472898D01*
X182753753Y-114411859D01*
X182751932Y-114376661D01*
X182756861Y-114311391D01*
X182771648Y-114247254D01*
X182786983Y-114205127D01*
X182738593Y-114033593D01*
X182096814Y-114144330D01*
X182096814Y-114810615D01*
X182208792Y-114810615D01*
G37*
G36*
X127527050Y-112853326D02*
G01*
X127527030Y-112855660D01*
X127506577Y-112916294D01*
X127460669Y-112951655D01*
X127229269Y-113028582D01*
X127229269Y-113523333D01*
X127460669Y-113600259D01*
X127508438Y-113636862D01*
X127510692Y-113639945D01*
X127527050Y-113700450D01*
X127527050Y-113934332D01*
X126216814Y-113430586D01*
X126216814Y-113275182D01*
X126486988Y-113275182D01*
X126525955Y-113286581D01*
X126586248Y-113305580D01*
X126605754Y-113312141D01*
X126665966Y-113334118D01*
X127021442Y-113453850D01*
X127021442Y-113098374D01*
X126667828Y-113217797D01*
X126647828Y-113225548D01*
X126587799Y-113246024D01*
X126548715Y-113258019D01*
X126486988Y-113275182D01*
X126216814Y-113275182D01*
X126216814Y-113121328D01*
X127527050Y-112617582D01*
X127527050Y-112853326D01*
G37*
G36*
X127131940Y-113962547D02*
G01*
X127197162Y-113973083D01*
X127258426Y-113991097D01*
X127299895Y-114008700D01*
X127356499Y-114041793D01*
X127406386Y-114082912D01*
X127438949Y-114118997D01*
X127475648Y-114173523D01*
X127502545Y-114229942D01*
X127504663Y-114235392D01*
X127523526Y-114298178D01*
X127533613Y-114359774D01*
X127536976Y-114425671D01*
X127533492Y-114490319D01*
X127521613Y-114557165D01*
X127501304Y-114619538D01*
X127481723Y-114661685D01*
X127446391Y-114718944D01*
X127403905Y-114769049D01*
X127371917Y-114798304D01*
X127319136Y-114835570D01*
X127260598Y-114864897D01*
X127219052Y-114879825D01*
X127154479Y-114894220D01*
X127087202Y-114899018D01*
X127038755Y-114896924D01*
X126972263Y-114885932D01*
X126913187Y-114865518D01*
X126890648Y-114854534D01*
X126837931Y-114821156D01*
X126790662Y-114777424D01*
X126778957Y-114763626D01*
X126744174Y-114711743D01*
X126719009Y-114654280D01*
X126714851Y-114641354D01*
X126700856Y-114580676D01*
X126695745Y-114515005D01*
X126695851Y-114505234D01*
X126702569Y-114441180D01*
X126703406Y-114436890D01*
X126709383Y-114416675D01*
X126897057Y-114416675D01*
X126897968Y-114439396D01*
X126911636Y-114501046D01*
X126917434Y-114514950D01*
X126952891Y-114565876D01*
X126963341Y-114575465D01*
X127018961Y-114607441D01*
X127044642Y-114615293D01*
X127108605Y-114622330D01*
X127130667Y-114621341D01*
X127191736Y-114606510D01*
X127205694Y-114600291D01*
X127258116Y-114564015D01*
X127268276Y-114553640D01*
X127302473Y-114500116D01*
X127308758Y-114483685D01*
X127318603Y-114420397D01*
X127317692Y-114396125D01*
X127304024Y-114333545D01*
X127299053Y-114322409D01*
X127261218Y-114272748D01*
X127252236Y-114265579D01*
X127194838Y-114237076D01*
X127169798Y-114231024D01*
X127107675Y-114225599D01*
X127084100Y-114226491D01*
X127020822Y-114239868D01*
X127006769Y-114245611D01*
X126954442Y-114279572D01*
X126946043Y-114287748D01*
X126911946Y-114339748D01*
X126906886Y-114353133D01*
X126897057Y-114416675D01*
X126709383Y-114416675D01*
X126721490Y-114375730D01*
X126701328Y-114392170D01*
X126680856Y-114409541D01*
X126216814Y-114795415D01*
X126216814Y-114548815D01*
X126218310Y-114521607D01*
X126235735Y-114460102D01*
X126240504Y-114450689D01*
X126280402Y-114400545D01*
X126677443Y-114107728D01*
X126739516Y-114065013D01*
X126801270Y-114029538D01*
X126862707Y-114001303D01*
X126923825Y-113980308D01*
X126996747Y-113964670D01*
X127069211Y-113959457D01*
X127131940Y-113962547D01*
G37*
G36*
X178327050Y-113183056D02*
G01*
X178326858Y-113201947D01*
X178323173Y-113266368D01*
X178314797Y-113328147D01*
X178299482Y-113395516D01*
X178278040Y-113459434D01*
X178251131Y-113519514D01*
X178219414Y-113575057D01*
X178182889Y-113626063D01*
X178141557Y-113672533D01*
X178101608Y-113709416D01*
X178045709Y-113751166D01*
X177991736Y-113782922D01*
X177933731Y-113809637D01*
X177872333Y-113830943D01*
X177808182Y-113846161D01*
X177741278Y-113855293D01*
X177671621Y-113858336D01*
X177602236Y-113855293D01*
X177535526Y-113846161D01*
X177471492Y-113830943D01*
X177410133Y-113809637D01*
X177366272Y-113790073D01*
X177311388Y-113759578D01*
X177254557Y-113719245D01*
X177202927Y-113672533D01*
X177161710Y-113626063D01*
X177125224Y-113575057D01*
X177093469Y-113519514D01*
X177066444Y-113459434D01*
X177060434Y-113443778D01*
X177040272Y-113378997D01*
X177026313Y-113310765D01*
X177019189Y-113248232D01*
X177016814Y-113183056D01*
X177255038Y-113183056D01*
X177255743Y-113209728D01*
X177264166Y-113274680D01*
X177283886Y-113337530D01*
X177289516Y-113350082D01*
X177321627Y-113403754D01*
X177366706Y-113452300D01*
X177384148Y-113466488D01*
X177439110Y-113500415D01*
X177498226Y-113524263D01*
X177543169Y-113536409D01*
X177607748Y-113546420D01*
X177671621Y-113549389D01*
X177718809Y-113547818D01*
X177785082Y-113539574D01*
X177845947Y-113524263D01*
X177864893Y-113517711D01*
X177925478Y-113489280D01*
X177977157Y-113452300D01*
X177987056Y-113443332D01*
X178029927Y-113392933D01*
X178059977Y-113337530D01*
X178071218Y-113307025D01*
X178084768Y-113245491D01*
X178088825Y-113183056D01*
X178088825Y-112981123D01*
X177255038Y-112981123D01*
X177255038Y-113183056D01*
X177016814Y-113183056D01*
X177016814Y-112677449D01*
X178327050Y-112677449D01*
X178327050Y-113183056D01*
G37*
G36*
X177006888Y-114443662D02*
G01*
X177010076Y-114507418D01*
X177020829Y-114571118D01*
X177033874Y-114614886D01*
X177058974Y-114672037D01*
X177093105Y-114724997D01*
X177107078Y-114741753D01*
X177153389Y-114784796D01*
X177209998Y-114818539D01*
X177213783Y-114820231D01*
X177276209Y-114840470D01*
X177341891Y-114847217D01*
X177406024Y-114843291D01*
X177449526Y-114834809D01*
X177507638Y-114811885D01*
X177530175Y-114797587D01*
X177575773Y-114754199D01*
X177588491Y-114736790D01*
X177618659Y-114679618D01*
X177628195Y-114654280D01*
X177655376Y-114716564D01*
X177697309Y-114777371D01*
X177749407Y-114822976D01*
X177811667Y-114853379D01*
X177884091Y-114868581D01*
X177924115Y-114870481D01*
X177986649Y-114866816D01*
X178049419Y-114854317D01*
X178105885Y-114832948D01*
X178160192Y-114801222D01*
X178210854Y-114758779D01*
X178234613Y-114732447D01*
X178272000Y-114677958D01*
X178299059Y-114621753D01*
X178311540Y-114586349D01*
X178327040Y-114523041D01*
X178335386Y-114457814D01*
X178336976Y-114413263D01*
X178334097Y-114346394D01*
X178324480Y-114280547D01*
X178316503Y-114247933D01*
X178294196Y-114187721D01*
X178263102Y-114133566D01*
X178252604Y-114119205D01*
X178209975Y-114072691D01*
X178158084Y-114031402D01*
X178141557Y-114020565D01*
X178087264Y-113990263D01*
X178025818Y-113963102D01*
X177980879Y-113946740D01*
X177930939Y-114070195D01*
X177918117Y-114132932D01*
X177921013Y-114159219D01*
X177954329Y-114213604D01*
X177961958Y-114218465D01*
X178017538Y-114254428D01*
X178062302Y-114297854D01*
X178066491Y-114303457D01*
X178093427Y-114362703D01*
X178098751Y-114409541D01*
X178090201Y-114472529D01*
X178083552Y-114490500D01*
X178049125Y-114543226D01*
X178044778Y-114547575D01*
X177992389Y-114580967D01*
X177990495Y-114581696D01*
X177929078Y-114593483D01*
X177866166Y-114589287D01*
X177855873Y-114587589D01*
X177801502Y-114556685D01*
X177800039Y-114555019D01*
X177770959Y-114499651D01*
X177764058Y-114474370D01*
X177754519Y-114409774D01*
X177751539Y-114347382D01*
X177751340Y-114323929D01*
X177552819Y-114323929D01*
X177550622Y-114389043D01*
X177542048Y-114451987D01*
X177541342Y-114455139D01*
X177519911Y-114515230D01*
X177509083Y-114532376D01*
X177459142Y-114568668D01*
X177397118Y-114577654D01*
X177394933Y-114577663D01*
X177331267Y-114568358D01*
X177284196Y-114540441D01*
X177252593Y-114486395D01*
X177245112Y-114427532D01*
X177254829Y-114364174D01*
X177275821Y-114323309D01*
X177322131Y-114279021D01*
X177351507Y-114264993D01*
X177404200Y-114230155D01*
X177414165Y-114215673D01*
X177423737Y-114152462D01*
X177420989Y-114129131D01*
X177395243Y-113982412D01*
X177330861Y-113995513D01*
X177267480Y-114016829D01*
X177224640Y-114037625D01*
X177169458Y-114073866D01*
X177122364Y-114116557D01*
X177103356Y-114138436D01*
X177067883Y-114190248D01*
X177040601Y-114247895D01*
X177030772Y-114276470D01*
X177015308Y-114341623D01*
X177008031Y-114405127D01*
X177006888Y-114443662D01*
G37*
G36*
X193567050Y-113227723D02*
G01*
X193080054Y-113227723D01*
X193080054Y-113304339D01*
X193091531Y-113358002D01*
X193126892Y-113391812D01*
X193509354Y-113608014D01*
X193554372Y-113655359D01*
X193567050Y-113717200D01*
X193567050Y-113990476D01*
X193109522Y-113713478D01*
X193101747Y-113708272D01*
X193054928Y-113666949D01*
X193052052Y-113663713D01*
X193016465Y-113610805D01*
X192988936Y-113670594D01*
X192954738Y-113722783D01*
X192917079Y-113765099D01*
X192869126Y-113804983D01*
X192825453Y-113831149D01*
X192764592Y-113855544D01*
X192709876Y-113867789D01*
X192644239Y-113872604D01*
X192613396Y-113871601D01*
X192549637Y-113862544D01*
X192490075Y-113844067D01*
X192468347Y-113834301D01*
X192412503Y-113797931D01*
X192367241Y-113752251D01*
X192334126Y-113704635D01*
X192306437Y-113648370D01*
X192285971Y-113589712D01*
X192274610Y-113544161D01*
X192264103Y-113479751D01*
X192258636Y-113416976D01*
X192256814Y-113349006D01*
X192495038Y-113349006D01*
X192497985Y-113403658D01*
X192511660Y-113466331D01*
X192542187Y-113521781D01*
X192554546Y-113534867D01*
X192611080Y-113568400D01*
X192673086Y-113577615D01*
X192688593Y-113577179D01*
X192751254Y-113565208D01*
X192762368Y-113560952D01*
X192814532Y-113524883D01*
X192827308Y-113510091D01*
X192857028Y-113453850D01*
X192867418Y-113412561D01*
X192872227Y-113349006D01*
X192872227Y-113227723D01*
X192495038Y-113227723D01*
X192495038Y-113349006D01*
X192256814Y-113349006D01*
X192256814Y-112925599D01*
X193567050Y-112925599D01*
X193567050Y-113227723D01*
G37*
G36*
X193089670Y-114271196D02*
G01*
X192634003Y-113972795D01*
X192634003Y-114239247D01*
X192641757Y-114282363D01*
X192668123Y-114307178D01*
X192950085Y-114472198D01*
X192892748Y-114498560D01*
X192884945Y-114503527D01*
X192672466Y-114621399D01*
X192643308Y-114647765D01*
X192634003Y-114682196D01*
X192634003Y-114935930D01*
X193077262Y-114637529D01*
X193567050Y-114948338D01*
X193567050Y-114682196D01*
X193552781Y-114634427D01*
X193518970Y-114605269D01*
X193236078Y-114440249D01*
X193289431Y-114416054D01*
X193518970Y-114280192D01*
X193551850Y-114250724D01*
X193567050Y-114206987D01*
X193567050Y-113960388D01*
X193089670Y-114271196D01*
G37*
G36*
X189716814Y-114092838D02*
G01*
X189955038Y-114092838D01*
X189955038Y-113726816D01*
X191027050Y-113726816D01*
X191027050Y-113424692D01*
X189955038Y-113424692D01*
X189955038Y-113058360D01*
X189716814Y-113058360D01*
X189716814Y-114092838D01*
G37*
G36*
X190549670Y-114271196D02*
G01*
X190094003Y-113972795D01*
X190094003Y-114239247D01*
X190101757Y-114282363D01*
X190128123Y-114307178D01*
X190410085Y-114472199D01*
X190352748Y-114498560D01*
X190344945Y-114503528D01*
X190132466Y-114621399D01*
X190103308Y-114647765D01*
X190094003Y-114682196D01*
X190094003Y-114935930D01*
X190537262Y-114637529D01*
X191027050Y-114948338D01*
X191027050Y-114682196D01*
X191012781Y-114634427D01*
X190978970Y-114605269D01*
X190696078Y-114440249D01*
X190749431Y-114416054D01*
X190978970Y-114280192D01*
X191011850Y-114250724D01*
X191027050Y-114206987D01*
X191027050Y-113960388D01*
X190549670Y-114271196D01*
G37*
G36*
X122447050Y-112853326D02*
G01*
X122447030Y-112855660D01*
X122426577Y-112916294D01*
X122380669Y-112951655D01*
X122149269Y-113028582D01*
X122149269Y-113523333D01*
X122380669Y-113600259D01*
X122428438Y-113636862D01*
X122430692Y-113639945D01*
X122447050Y-113700450D01*
X122447050Y-113934332D01*
X121136814Y-113430586D01*
X121136814Y-113275182D01*
X121406988Y-113275182D01*
X121445955Y-113286581D01*
X121506248Y-113305580D01*
X121525754Y-113312141D01*
X121585966Y-113334118D01*
X121941442Y-113453850D01*
X121941442Y-113098374D01*
X121587828Y-113217797D01*
X121567828Y-113225548D01*
X121507799Y-113246024D01*
X121468715Y-113258019D01*
X121406988Y-113275182D01*
X121136814Y-113275182D01*
X121136814Y-113121328D01*
X122447050Y-112617582D01*
X122447050Y-112853326D01*
G37*
G36*
X122100777Y-113958774D02*
G01*
X122167234Y-113969407D01*
X122228367Y-113991097D01*
X122254506Y-114004630D01*
X122306129Y-114040611D01*
X122350891Y-114085704D01*
X122371928Y-114113611D01*
X122405247Y-114171660D01*
X122429369Y-114232423D01*
X122445086Y-114293584D01*
X122454280Y-114358923D01*
X122456976Y-114421948D01*
X122454280Y-114484943D01*
X122445086Y-114550179D01*
X122429369Y-114611163D01*
X122416072Y-114647567D01*
X122388235Y-114704448D01*
X122350891Y-114758193D01*
X122331084Y-114780243D01*
X122283155Y-114821284D01*
X122228367Y-114853110D01*
X122196111Y-114866164D01*
X122132111Y-114881900D01*
X122068309Y-114886611D01*
X122029546Y-114884822D01*
X121968429Y-114873893D01*
X121939748Y-114864775D01*
X121882196Y-114835119D01*
X121856353Y-114815197D01*
X121812714Y-114767188D01*
X121786328Y-114724763D01*
X121761533Y-114667618D01*
X121739587Y-114709163D01*
X121699398Y-114760941D01*
X121650486Y-114800068D01*
X121608272Y-114821210D01*
X121544965Y-114838637D01*
X121479882Y-114843805D01*
X121461140Y-114843315D01*
X121398367Y-114833892D01*
X121339987Y-114812476D01*
X121328042Y-114806381D01*
X121272899Y-114769281D01*
X121228319Y-114724692D01*
X121214078Y-114706632D01*
X121179438Y-114650585D01*
X121154184Y-114591311D01*
X121142242Y-114551762D01*
X121130726Y-114488949D01*
X121126888Y-114421948D01*
X121334714Y-114421948D01*
X121334828Y-114429575D01*
X121347742Y-114492051D01*
X121382173Y-114539510D01*
X121431493Y-114565876D01*
X121489188Y-114573941D01*
X121491260Y-114573935D01*
X121553707Y-114567737D01*
X121609541Y-114544473D01*
X121648625Y-114497945D01*
X121654426Y-114484236D01*
X121663514Y-114421948D01*
X121871340Y-114421948D01*
X121872232Y-114446473D01*
X121885608Y-114507250D01*
X121887397Y-114511500D01*
X121924692Y-114562154D01*
X121927835Y-114564704D01*
X121984869Y-114591621D01*
X122000696Y-114595127D01*
X122063036Y-114600617D01*
X122072730Y-114600457D01*
X122136241Y-114590381D01*
X122140433Y-114589055D01*
X122195177Y-114558121D01*
X122199739Y-114553941D01*
X122234570Y-114502287D01*
X122240949Y-114484587D01*
X122249149Y-114421948D01*
X122248452Y-114401974D01*
X122234570Y-114341299D01*
X122232708Y-114337157D01*
X122195177Y-114285776D01*
X122192002Y-114283105D01*
X122136241Y-114253516D01*
X122125457Y-114250567D01*
X122063036Y-114243280D01*
X122047246Y-114243596D01*
X121984869Y-114252275D01*
X121980490Y-114253445D01*
X121924692Y-114281743D01*
X121921595Y-114284357D01*
X121885608Y-114336647D01*
X121878084Y-114359771D01*
X121871340Y-114421948D01*
X121663514Y-114421948D01*
X121663150Y-114407914D01*
X121648625Y-114346262D01*
X121609541Y-114299734D01*
X121553707Y-114276470D01*
X121551747Y-114276088D01*
X121489188Y-114270266D01*
X121431493Y-114278331D01*
X121382173Y-114304697D01*
X121347742Y-114351536D01*
X121344688Y-114358878D01*
X121334714Y-114421948D01*
X121126888Y-114421948D01*
X121128594Y-114376952D01*
X121137550Y-114312874D01*
X121154184Y-114252896D01*
X121163110Y-114229267D01*
X121190923Y-114172580D01*
X121228319Y-114119204D01*
X121240378Y-114105556D01*
X121286858Y-114063894D01*
X121339987Y-114031731D01*
X121356219Y-114024389D01*
X121415854Y-114006399D01*
X121479882Y-114000402D01*
X121527884Y-114003097D01*
X121593198Y-114017245D01*
X121650486Y-114043519D01*
X121687988Y-114071577D01*
X121730358Y-114120287D01*
X121761533Y-114176279D01*
X121780006Y-114131261D01*
X121812714Y-114075778D01*
X121834639Y-114048998D01*
X121882196Y-114007847D01*
X121910019Y-113991583D01*
X121968429Y-113969694D01*
X122004575Y-113962322D01*
X122068309Y-113957596D01*
X122100777Y-113958774D01*
G37*
G36*
X137687050Y-112853326D02*
G01*
X137687030Y-112855660D01*
X137666577Y-112916294D01*
X137620669Y-112951655D01*
X137389269Y-113028582D01*
X137389269Y-113523333D01*
X137620669Y-113600259D01*
X137668438Y-113636862D01*
X137670692Y-113639945D01*
X137687050Y-113700450D01*
X137687050Y-113934332D01*
X136376814Y-113430586D01*
X136376814Y-113275182D01*
X136646988Y-113275182D01*
X136685955Y-113286581D01*
X136746248Y-113305580D01*
X136765754Y-113312141D01*
X136825966Y-113334118D01*
X137181442Y-113453850D01*
X137181442Y-113098374D01*
X136827828Y-113217797D01*
X136807828Y-113225548D01*
X136747799Y-113246024D01*
X136708715Y-113258019D01*
X136646988Y-113275182D01*
X136376814Y-113275182D01*
X136376814Y-113121328D01*
X137687050Y-112617582D01*
X137687050Y-112853326D01*
G37*
G36*
X136366888Y-114436217D02*
G01*
X136370223Y-114500443D01*
X136381470Y-114565241D01*
X136395115Y-114610233D01*
X136421432Y-114669199D01*
X136457903Y-114724229D01*
X136472972Y-114741753D01*
X136520351Y-114784594D01*
X136575092Y-114817579D01*
X136592084Y-114825193D01*
X136655222Y-114845125D01*
X136718529Y-114853639D01*
X136744077Y-114854351D01*
X136808644Y-114849921D01*
X136872407Y-114835429D01*
X136876217Y-114834189D01*
X136935308Y-114810537D01*
X136991607Y-114779285D01*
X137045425Y-114741675D01*
X137094470Y-114701204D01*
X137097692Y-114698326D01*
X137146015Y-114653993D01*
X137191731Y-114610278D01*
X137201605Y-114600617D01*
X137461853Y-114346262D01*
X137445544Y-114407040D01*
X137437968Y-114443041D01*
X137429851Y-114506085D01*
X137428973Y-114532996D01*
X137428973Y-114775873D01*
X137445764Y-114835966D01*
X137454408Y-114846286D01*
X137510964Y-114871935D01*
X137521099Y-114872342D01*
X137687050Y-114872342D01*
X137687050Y-113957596D01*
X137598336Y-113957596D01*
X137543432Y-113968143D01*
X137491578Y-114004024D01*
X137490080Y-114005676D01*
X137115062Y-114381004D01*
X137068379Y-114425981D01*
X137023867Y-114464754D01*
X136972586Y-114502999D01*
X136938255Y-114524000D01*
X136880249Y-114550417D01*
X136853883Y-114558741D01*
X136790838Y-114569311D01*
X136764859Y-114570218D01*
X136700356Y-114562040D01*
X136646367Y-114532996D01*
X136613009Y-114479201D01*
X136605112Y-114420397D01*
X136615908Y-114357039D01*
X136639233Y-114316174D01*
X136688306Y-114273354D01*
X136723914Y-114257549D01*
X136778001Y-114226387D01*
X136791536Y-114208539D01*
X136801108Y-114145327D01*
X136798360Y-114121996D01*
X136772614Y-113975277D01*
X136711212Y-113986770D01*
X136649619Y-114005360D01*
X136594256Y-114030180D01*
X136540646Y-114063594D01*
X136490741Y-114105895D01*
X136467389Y-114131302D01*
X136430356Y-114183062D01*
X136401924Y-114240556D01*
X136391703Y-114269025D01*
X136375636Y-114334179D01*
X136368075Y-114397683D01*
X136366888Y-114436217D01*
G37*
G36*
X114827050Y-111822260D02*
G01*
X114827030Y-111824594D01*
X114806577Y-111885228D01*
X114760669Y-111920589D01*
X114529269Y-111997516D01*
X114529269Y-112492267D01*
X114760669Y-112569193D01*
X114808438Y-112605796D01*
X114810692Y-112608879D01*
X114827050Y-112669384D01*
X114827050Y-112903266D01*
X113516814Y-112399520D01*
X113516814Y-112244116D01*
X113786988Y-112244116D01*
X113825955Y-112255515D01*
X113886248Y-112274514D01*
X113905754Y-112281075D01*
X113965966Y-112303052D01*
X114321442Y-112422784D01*
X114321442Y-112067308D01*
X113967828Y-112186731D01*
X113947828Y-112194482D01*
X113887799Y-112214958D01*
X113848715Y-112226953D01*
X113786988Y-112244116D01*
X113516814Y-112244116D01*
X113516814Y-112090262D01*
X114827050Y-111586516D01*
X114827050Y-111822260D01*
G37*
G36*
X114619223Y-113070148D02*
G01*
X114619223Y-113320470D01*
X113964726Y-113320470D01*
X113899752Y-113321672D01*
X113864225Y-113323261D01*
X113986439Y-113175612D01*
X114004740Y-113136838D01*
X114004740Y-113100546D01*
X113993263Y-113070148D01*
X113975892Y-113050606D01*
X113859572Y-112963133D01*
X113516814Y-113368549D01*
X113516814Y-113597468D01*
X114619223Y-113597468D01*
X114619223Y-113811808D01*
X114827050Y-113811808D01*
X114827050Y-113070148D01*
X114619223Y-113070148D01*
G37*
G36*
X114619223Y-114101214D02*
G01*
X114619223Y-114351536D01*
X113964726Y-114351536D01*
X113899752Y-114352738D01*
X113864225Y-114354328D01*
X113986439Y-114206678D01*
X114004740Y-114167904D01*
X114004740Y-114131612D01*
X113993263Y-114101214D01*
X113975892Y-114081672D01*
X113859572Y-113994199D01*
X113516814Y-114399615D01*
X113516814Y-114628534D01*
X114619223Y-114628534D01*
X114619223Y-114842874D01*
X114827050Y-114842874D01*
X114827050Y-114101214D01*
X114619223Y-114101214D01*
G37*
G36*
X119907050Y-112853326D02*
G01*
X119907030Y-112855660D01*
X119886577Y-112916294D01*
X119840669Y-112951655D01*
X119609269Y-113028582D01*
X119609269Y-113523333D01*
X119840669Y-113600259D01*
X119888438Y-113636862D01*
X119890692Y-113639945D01*
X119907050Y-113700450D01*
X119907050Y-113934332D01*
X118596814Y-113430586D01*
X118596814Y-113275182D01*
X118866988Y-113275182D01*
X118905955Y-113286581D01*
X118966248Y-113305580D01*
X118985754Y-113312141D01*
X119045966Y-113334118D01*
X119401442Y-113453850D01*
X119401442Y-113098374D01*
X119047828Y-113217797D01*
X119027828Y-113225548D01*
X118967799Y-113246024D01*
X118928715Y-113258019D01*
X118866988Y-113275182D01*
X118596814Y-113275182D01*
X118596814Y-113121328D01*
X119907050Y-112617582D01*
X119907050Y-112853326D01*
G37*
G36*
X119057631Y-113961622D02*
G01*
X119121811Y-113971451D01*
X119183070Y-113992337D01*
X119196004Y-113998552D01*
X119250813Y-114031953D01*
X119299390Y-114075778D01*
X119305076Y-114082261D01*
X119341844Y-114133814D01*
X119368252Y-114190548D01*
X119385235Y-114254059D01*
X119390896Y-114317415D01*
X119389613Y-114352515D01*
X119380039Y-114416675D01*
X119372030Y-114445610D01*
X119347159Y-114504148D01*
X119376007Y-114482435D01*
X119405475Y-114458551D01*
X119907050Y-114046000D01*
X119907050Y-114301595D01*
X119905925Y-114324995D01*
X119889059Y-114387517D01*
X119885617Y-114394499D01*
X119845322Y-114444282D01*
X119445489Y-114725002D01*
X119434239Y-114732928D01*
X119376642Y-114769539D01*
X119316803Y-114801121D01*
X119254723Y-114827675D01*
X119215749Y-114840746D01*
X119153770Y-114855283D01*
X119087570Y-114863734D01*
X119025184Y-114866138D01*
X118972071Y-114863685D01*
X118910753Y-114854021D01*
X118848376Y-114835119D01*
X118819024Y-114822655D01*
X118760738Y-114789139D01*
X118709722Y-114746716D01*
X118682193Y-114716414D01*
X118647006Y-114664928D01*
X118619147Y-114606200D01*
X118600781Y-114546409D01*
X118590038Y-114481340D01*
X118586888Y-114417606D01*
X118587087Y-114413883D01*
X118805260Y-114413883D01*
X118805563Y-114426617D01*
X118817668Y-114489880D01*
X118820037Y-114496359D01*
X118853339Y-114549436D01*
X118857808Y-114553935D01*
X118911965Y-114587589D01*
X118930189Y-114593696D01*
X118993234Y-114601547D01*
X119014255Y-114600801D01*
X119075139Y-114588066D01*
X119131268Y-114553778D01*
X119143409Y-114541201D01*
X119174520Y-114482727D01*
X119183070Y-114417606D01*
X119180104Y-114375294D01*
X119160638Y-114314824D01*
X119116145Y-114266871D01*
X119057749Y-114243423D01*
X118993234Y-114237076D01*
X118980866Y-114237371D01*
X118918789Y-114249173D01*
X118912415Y-114251534D01*
X118859233Y-114283915D01*
X118856135Y-114286821D01*
X118819839Y-114339438D01*
X118814885Y-114351979D01*
X118805260Y-114413883D01*
X118587087Y-114413883D01*
X118590250Y-114354762D01*
X118601716Y-114290043D01*
X118621319Y-114229942D01*
X118639910Y-114189404D01*
X118673542Y-114134195D01*
X118714065Y-114085704D01*
X118740649Y-114060683D01*
X118794980Y-114021146D01*
X118850858Y-113992648D01*
X118890543Y-113978398D01*
X118952323Y-113964658D01*
X119016809Y-113960078D01*
X119057631Y-113961622D01*
G37*
G36*
X159950247Y-110411212D02*
G01*
X160008040Y-110439124D01*
X160021901Y-110445333D01*
X160080712Y-110470559D01*
X160097586Y-110477282D01*
X160039077Y-110500779D01*
X160020039Y-110508922D01*
X159962697Y-110536124D01*
X159947455Y-110544283D01*
X159282101Y-110878356D01*
X159255425Y-110896657D01*
X159241466Y-110917440D01*
X159236814Y-110943806D01*
X159236814Y-110978237D01*
X159236814Y-111209017D01*
X160547050Y-111209017D01*
X160547050Y-110942565D01*
X159799495Y-110942565D01*
X159735330Y-110944332D01*
X159681624Y-110948148D01*
X160348839Y-110603219D01*
X160395275Y-110561488D01*
X160396298Y-110559793D01*
X160412118Y-110497755D01*
X160412118Y-110456810D01*
X160397271Y-110396176D01*
X160396298Y-110394462D01*
X160348839Y-110351346D01*
X159681003Y-110004555D01*
X159743041Y-110009829D01*
X159799495Y-110011690D01*
X160547050Y-110011690D01*
X160547050Y-109745548D01*
X159236814Y-109745548D01*
X159236814Y-109976018D01*
X159236814Y-110010449D01*
X159241466Y-110036815D01*
X159255425Y-110057598D01*
X159282101Y-110076209D01*
X159950247Y-110411212D01*
G37*
G36*
X160547050Y-111753708D02*
G01*
X160060054Y-111753708D01*
X160060054Y-111830324D01*
X160071531Y-111883987D01*
X160106892Y-111917797D01*
X160489354Y-112133999D01*
X160534372Y-112181344D01*
X160547050Y-112243185D01*
X160547050Y-112516461D01*
X160089522Y-112239463D01*
X160081747Y-112234258D01*
X160034928Y-112192935D01*
X160032052Y-112189698D01*
X159996465Y-112136790D01*
X159968936Y-112196579D01*
X159934738Y-112248769D01*
X159897079Y-112291085D01*
X159849126Y-112330968D01*
X159805453Y-112357135D01*
X159744592Y-112381529D01*
X159689876Y-112393775D01*
X159624239Y-112398590D01*
X159593396Y-112397586D01*
X159529637Y-112388529D01*
X159470075Y-112370052D01*
X159448347Y-112360286D01*
X159392503Y-112323917D01*
X159347241Y-112278236D01*
X159314126Y-112230621D01*
X159286437Y-112174355D01*
X159265971Y-112115698D01*
X159254610Y-112070147D01*
X159244103Y-112005736D01*
X159238636Y-111942962D01*
X159236814Y-111874991D01*
X159475038Y-111874991D01*
X159477985Y-111929643D01*
X159491660Y-111992316D01*
X159522187Y-112047766D01*
X159534546Y-112060852D01*
X159591080Y-112094386D01*
X159653086Y-112103600D01*
X159668593Y-112103164D01*
X159731254Y-112091193D01*
X159742368Y-112086937D01*
X159794532Y-112050868D01*
X159807308Y-112036076D01*
X159837028Y-111979835D01*
X159847418Y-111938546D01*
X159852227Y-111874991D01*
X159852227Y-111753708D01*
X159475038Y-111753708D01*
X159475038Y-111874991D01*
X159236814Y-111874991D01*
X159236814Y-111451584D01*
X160547050Y-111451584D01*
X160547050Y-111753708D01*
G37*
G36*
X159236814Y-113458503D02*
G01*
X159475038Y-113458503D01*
X159475038Y-112924049D01*
X159772819Y-112924049D01*
X159772819Y-113333187D01*
X159991192Y-113333187D01*
X159991192Y-112924049D01*
X160308825Y-112924049D01*
X160308825Y-113458503D01*
X160547050Y-113458503D01*
X160547050Y-112620374D01*
X159236814Y-112620374D01*
X159236814Y-113458503D01*
G37*
G36*
X159960968Y-113540645D02*
G01*
X160027872Y-113549776D01*
X160092333Y-113564995D01*
X160154351Y-113586301D01*
X160213035Y-113613152D01*
X160267802Y-113645004D01*
X160318654Y-113681858D01*
X160365589Y-113723714D01*
X160407988Y-113770475D01*
X160445540Y-113821734D01*
X160478246Y-113877490D01*
X160506105Y-113937744D01*
X160512265Y-113953476D01*
X160532931Y-114018509D01*
X160547239Y-114086915D01*
X160554541Y-114149537D01*
X160556976Y-114214743D01*
X160556685Y-114236010D01*
X160552323Y-114298183D01*
X160550245Y-114315902D01*
X160539915Y-114378212D01*
X160720135Y-114539820D01*
X160741097Y-114563272D01*
X160771006Y-114618918D01*
X160779511Y-114652360D01*
X160784964Y-114715077D01*
X160784964Y-114963538D01*
X160423595Y-114633807D01*
X160412224Y-114648803D01*
X160369222Y-114698082D01*
X160321232Y-114742373D01*
X160306581Y-114754078D01*
X160252934Y-114791304D01*
X160195606Y-114822712D01*
X160174158Y-114832519D01*
X160111766Y-114856030D01*
X160050748Y-114872652D01*
X160021555Y-114878556D01*
X159956733Y-114887156D01*
X159889760Y-114890023D01*
X159820995Y-114886979D01*
X159754596Y-114877848D01*
X159690561Y-114862629D01*
X159628892Y-114841323D01*
X159570266Y-114814492D01*
X159515673Y-114782698D01*
X159465112Y-114745940D01*
X159418584Y-114704220D01*
X159376301Y-114657750D01*
X159338788Y-114606743D01*
X159306044Y-114551200D01*
X159278069Y-114491121D01*
X159271871Y-114475465D01*
X159251079Y-114410684D01*
X159236684Y-114342452D01*
X159229337Y-114279918D01*
X159226888Y-114214743D01*
X159484964Y-114214743D01*
X159485654Y-114241333D01*
X159493896Y-114306214D01*
X159513192Y-114369217D01*
X159518641Y-114381768D01*
X159549769Y-114435441D01*
X159593530Y-114483986D01*
X159610480Y-114498175D01*
X159663983Y-114532102D01*
X159721638Y-114555950D01*
X159765708Y-114568095D01*
X159829125Y-114578106D01*
X159891932Y-114581075D01*
X159932780Y-114579873D01*
X159998384Y-114572218D01*
X160063156Y-114555950D01*
X160081714Y-114549397D01*
X160140941Y-114520967D01*
X160191263Y-114483986D01*
X160200874Y-114475019D01*
X160242386Y-114424619D01*
X160271292Y-114369217D01*
X160282049Y-114338606D01*
X160295017Y-114277032D01*
X160298899Y-114214743D01*
X160298225Y-114187869D01*
X160290164Y-114122322D01*
X160271292Y-114058718D01*
X160265898Y-114046111D01*
X160234956Y-113992252D01*
X160191263Y-113943638D01*
X160174314Y-113929531D01*
X160120811Y-113895672D01*
X160063156Y-113871674D01*
X160019012Y-113859679D01*
X159955268Y-113849791D01*
X159891932Y-113846859D01*
X159851446Y-113848047D01*
X159786256Y-113855608D01*
X159721638Y-113871674D01*
X159703080Y-113878295D01*
X159643852Y-113906810D01*
X159593530Y-113943638D01*
X159583917Y-113952608D01*
X159542309Y-114003103D01*
X159513192Y-114058718D01*
X159502193Y-114089615D01*
X159488934Y-114151799D01*
X159484964Y-114214743D01*
X159226888Y-114214743D01*
X159227086Y-114195849D01*
X159230912Y-114131382D01*
X159239605Y-114069497D01*
X159255502Y-114001934D01*
X159277759Y-113937744D01*
X159305598Y-113877490D01*
X159338245Y-113821734D01*
X159375700Y-113770475D01*
X159417964Y-113723714D01*
X159464647Y-113681858D01*
X159515363Y-113645004D01*
X159570111Y-113613152D01*
X159628892Y-113586301D01*
X159690910Y-113564995D01*
X159755371Y-113549776D01*
X159822275Y-113540645D01*
X159891621Y-113537601D01*
X159960968Y-113540645D01*
G37*
X158984950Y-109746612D02*
X158984950Y-114808000D01*
G36*
X149790247Y-112989498D02*
G01*
X149848040Y-113017410D01*
X149861901Y-113023619D01*
X149920712Y-113048845D01*
X149937586Y-113055568D01*
X149879077Y-113079065D01*
X149860039Y-113087208D01*
X149802697Y-113114410D01*
X149787455Y-113122569D01*
X149122101Y-113456642D01*
X149095425Y-113474943D01*
X149081466Y-113495726D01*
X149076814Y-113522092D01*
X149076814Y-113556523D01*
X149076814Y-113787303D01*
X150387050Y-113787303D01*
X150387050Y-113520851D01*
X149639495Y-113520851D01*
X149575330Y-113522618D01*
X149521624Y-113526434D01*
X150188839Y-113181505D01*
X150235275Y-113139774D01*
X150236298Y-113138079D01*
X150252118Y-113076041D01*
X150252118Y-113035096D01*
X150237271Y-112974462D01*
X150236298Y-112972748D01*
X150188839Y-112929632D01*
X149521003Y-112582841D01*
X149583041Y-112588115D01*
X149639495Y-112589976D01*
X150387050Y-112589976D01*
X150387050Y-112323834D01*
X149076814Y-112323834D01*
X149076814Y-112554304D01*
X149076814Y-112588735D01*
X149081466Y-112615101D01*
X149095425Y-112635884D01*
X149122101Y-112654495D01*
X149790247Y-112989498D01*
G37*
G36*
X150179223Y-114101214D02*
G01*
X150179223Y-114351536D01*
X149524726Y-114351536D01*
X149459752Y-114352738D01*
X149424225Y-114354327D01*
X149546439Y-114206678D01*
X149564740Y-114167904D01*
X149564740Y-114131612D01*
X149553263Y-114101214D01*
X149535892Y-114081672D01*
X149419572Y-113994199D01*
X149076814Y-114399615D01*
X149076814Y-114628534D01*
X150179223Y-114628534D01*
X150179223Y-114842874D01*
X150387050Y-114842874D01*
X150387050Y-114101214D01*
X150179223Y-114101214D01*
G37*
X148824950Y-112324898D02*
X148824950Y-114808000D01*
G36*
X180867050Y-113183056D02*
G01*
X180866858Y-113201947D01*
X180863173Y-113266368D01*
X180854797Y-113328147D01*
X180839482Y-113395516D01*
X180818040Y-113459434D01*
X180791131Y-113519514D01*
X180759414Y-113575057D01*
X180722889Y-113626063D01*
X180681557Y-113672533D01*
X180641608Y-113709416D01*
X180585709Y-113751166D01*
X180531736Y-113782922D01*
X180473731Y-113809637D01*
X180412333Y-113830943D01*
X180348182Y-113846161D01*
X180281278Y-113855293D01*
X180211621Y-113858336D01*
X180142236Y-113855293D01*
X180075526Y-113846161D01*
X180011492Y-113830943D01*
X179950133Y-113809637D01*
X179906272Y-113790073D01*
X179851388Y-113759578D01*
X179794557Y-113719245D01*
X179742927Y-113672533D01*
X179701710Y-113626063D01*
X179665224Y-113575057D01*
X179633469Y-113519514D01*
X179606444Y-113459434D01*
X179600434Y-113443778D01*
X179580272Y-113378997D01*
X179566313Y-113310765D01*
X179559189Y-113248232D01*
X179556814Y-113183056D01*
X179795038Y-113183056D01*
X179795743Y-113209728D01*
X179804166Y-113274680D01*
X179823886Y-113337530D01*
X179829516Y-113350082D01*
X179861627Y-113403754D01*
X179906706Y-113452300D01*
X179924148Y-113466488D01*
X179979110Y-113500415D01*
X180038226Y-113524263D01*
X180083169Y-113536409D01*
X180147748Y-113546420D01*
X180211621Y-113549389D01*
X180258809Y-113547818D01*
X180325082Y-113539574D01*
X180385947Y-113524263D01*
X180404893Y-113517711D01*
X180465478Y-113489280D01*
X180517157Y-113452300D01*
X180527056Y-113443332D01*
X180569927Y-113392933D01*
X180599977Y-113337530D01*
X180611218Y-113307025D01*
X180624768Y-113245491D01*
X180628825Y-113183056D01*
X180628825Y-112981123D01*
X179795038Y-112981123D01*
X179795038Y-113183056D01*
X179556814Y-113183056D01*
X179556814Y-112677449D01*
X180867050Y-112677449D01*
X180867050Y-113183056D01*
G37*
G36*
X180502578Y-113928129D02*
G01*
X180542592Y-113954185D01*
X180558722Y-114001333D01*
X180558722Y-114524931D01*
X180867050Y-114524931D01*
X180867050Y-114765948D01*
X180558722Y-114765948D01*
X180558722Y-114846286D01*
X180543523Y-114885991D01*
X180507541Y-114899949D01*
X180350896Y-114899949D01*
X180350896Y-114765948D01*
X179556814Y-114765948D01*
X179556814Y-114533616D01*
X179871034Y-114533616D01*
X179882912Y-114532312D01*
X179945480Y-114527103D01*
X179949958Y-114526840D01*
X180012480Y-114524931D01*
X180350896Y-114524931D01*
X180350896Y-114189928D01*
X179871034Y-114533616D01*
X179556814Y-114533616D01*
X179556814Y-114501667D01*
X180365785Y-113899591D01*
X180502578Y-113928129D01*
G37*
G36*
X135147050Y-112853326D02*
G01*
X135147030Y-112855660D01*
X135126577Y-112916294D01*
X135080669Y-112951655D01*
X134849269Y-113028582D01*
X134849269Y-113523333D01*
X135080669Y-113600259D01*
X135128438Y-113636862D01*
X135130692Y-113639945D01*
X135147050Y-113700450D01*
X135147050Y-113934332D01*
X133836814Y-113430586D01*
X133836814Y-113275182D01*
X134106988Y-113275182D01*
X134145955Y-113286581D01*
X134206248Y-113305580D01*
X134225754Y-113312141D01*
X134285966Y-113334118D01*
X134641442Y-113453850D01*
X134641442Y-113098374D01*
X134287828Y-113217797D01*
X134267828Y-113225548D01*
X134207799Y-113246024D01*
X134168715Y-113258019D01*
X134106988Y-113275182D01*
X133836814Y-113275182D01*
X133836814Y-113121328D01*
X135147050Y-112617582D01*
X135147050Y-112853326D01*
G37*
G36*
X133826888Y-114443662D02*
G01*
X133830076Y-114507418D01*
X133840829Y-114571118D01*
X133853874Y-114614886D01*
X133878974Y-114672037D01*
X133913105Y-114724997D01*
X133927078Y-114741753D01*
X133973389Y-114784796D01*
X134029998Y-114818539D01*
X134033783Y-114820230D01*
X134096209Y-114840470D01*
X134161891Y-114847217D01*
X134226024Y-114843291D01*
X134269526Y-114834809D01*
X134327638Y-114811884D01*
X134350175Y-114797587D01*
X134395773Y-114754199D01*
X134408491Y-114736790D01*
X134438659Y-114679617D01*
X134448195Y-114654280D01*
X134475376Y-114716564D01*
X134517309Y-114777371D01*
X134569407Y-114822976D01*
X134631667Y-114853379D01*
X134704091Y-114868581D01*
X134744115Y-114870481D01*
X134806649Y-114866816D01*
X134869419Y-114854317D01*
X134925885Y-114832948D01*
X134980192Y-114801222D01*
X135030854Y-114758778D01*
X135054613Y-114732447D01*
X135092000Y-114677958D01*
X135119059Y-114621753D01*
X135131540Y-114586348D01*
X135147040Y-114523041D01*
X135155386Y-114457814D01*
X135156976Y-114413263D01*
X135154097Y-114346393D01*
X135144480Y-114280547D01*
X135136503Y-114247933D01*
X135114196Y-114187721D01*
X135083102Y-114133565D01*
X135072604Y-114119204D01*
X135029975Y-114072691D01*
X134978084Y-114031402D01*
X134961557Y-114020565D01*
X134907264Y-113990263D01*
X134845818Y-113963102D01*
X134800879Y-113946740D01*
X134750939Y-114070195D01*
X134738117Y-114132932D01*
X134741013Y-114159219D01*
X134774329Y-114213604D01*
X134781958Y-114218465D01*
X134837538Y-114254427D01*
X134882302Y-114297854D01*
X134886491Y-114303456D01*
X134913427Y-114362703D01*
X134918751Y-114409541D01*
X134910201Y-114472528D01*
X134903552Y-114490500D01*
X134869125Y-114543225D01*
X134864778Y-114547575D01*
X134812389Y-114580967D01*
X134810495Y-114581695D01*
X134749078Y-114593483D01*
X134686166Y-114589287D01*
X134675873Y-114587589D01*
X134621502Y-114556685D01*
X134620039Y-114555019D01*
X134590959Y-114499651D01*
X134584058Y-114474370D01*
X134574519Y-114409773D01*
X134571539Y-114347382D01*
X134571340Y-114323929D01*
X134372819Y-114323929D01*
X134370622Y-114389043D01*
X134362048Y-114451987D01*
X134361342Y-114455139D01*
X134339911Y-114515230D01*
X134329083Y-114532375D01*
X134279142Y-114568668D01*
X134217118Y-114577654D01*
X134214933Y-114577663D01*
X134151267Y-114568357D01*
X134104196Y-114540440D01*
X134072593Y-114486395D01*
X134065112Y-114427532D01*
X134074829Y-114364173D01*
X134095821Y-114323308D01*
X134142131Y-114279021D01*
X134171507Y-114264993D01*
X134224200Y-114230155D01*
X134234165Y-114215673D01*
X134243737Y-114152462D01*
X134240989Y-114129131D01*
X134215243Y-113982411D01*
X134150861Y-113995513D01*
X134087480Y-114016829D01*
X134044640Y-114037625D01*
X133989458Y-114073866D01*
X133942364Y-114116557D01*
X133923356Y-114138436D01*
X133887883Y-114190248D01*
X133860601Y-114247895D01*
X133850772Y-114276470D01*
X133835308Y-114341623D01*
X133828031Y-114405127D01*
X133826888Y-114443662D01*
G37*
G36*
X185947050Y-113183056D02*
G01*
X185946858Y-113201947D01*
X185943173Y-113266368D01*
X185934797Y-113328147D01*
X185919482Y-113395516D01*
X185898040Y-113459434D01*
X185871131Y-113519514D01*
X185839414Y-113575057D01*
X185802889Y-113626063D01*
X185761557Y-113672533D01*
X185721608Y-113709416D01*
X185665709Y-113751166D01*
X185611736Y-113782922D01*
X185553731Y-113809637D01*
X185492333Y-113830943D01*
X185428182Y-113846161D01*
X185361278Y-113855293D01*
X185291621Y-113858336D01*
X185222236Y-113855293D01*
X185155526Y-113846161D01*
X185091492Y-113830943D01*
X185030133Y-113809637D01*
X184986272Y-113790073D01*
X184931388Y-113759578D01*
X184874557Y-113719245D01*
X184822927Y-113672533D01*
X184781710Y-113626063D01*
X184745224Y-113575057D01*
X184713469Y-113519514D01*
X184686444Y-113459434D01*
X184680434Y-113443778D01*
X184660272Y-113378997D01*
X184646313Y-113310765D01*
X184639189Y-113248232D01*
X184636814Y-113183056D01*
X184875038Y-113183056D01*
X184875743Y-113209728D01*
X184884166Y-113274680D01*
X184903886Y-113337530D01*
X184909516Y-113350082D01*
X184941627Y-113403754D01*
X184986706Y-113452300D01*
X185004148Y-113466488D01*
X185059110Y-113500415D01*
X185118226Y-113524263D01*
X185163169Y-113536409D01*
X185227748Y-113546420D01*
X185291621Y-113549389D01*
X185338809Y-113547818D01*
X185405082Y-113539574D01*
X185465947Y-113524263D01*
X185484893Y-113517711D01*
X185545478Y-113489280D01*
X185597157Y-113452300D01*
X185607056Y-113443332D01*
X185649927Y-113392933D01*
X185679977Y-113337530D01*
X185691218Y-113307025D01*
X185704768Y-113245491D01*
X185708825Y-113183056D01*
X185708825Y-112981123D01*
X184875038Y-112981123D01*
X184875038Y-113183056D01*
X184636814Y-113183056D01*
X184636814Y-112677449D01*
X185947050Y-112677449D01*
X185947050Y-113183056D01*
G37*
G36*
X185551940Y-113962547D02*
G01*
X185617162Y-113973084D01*
X185678426Y-113991097D01*
X185719895Y-114008700D01*
X185776499Y-114041793D01*
X185826386Y-114082913D01*
X185858949Y-114118998D01*
X185895648Y-114173523D01*
X185922545Y-114229942D01*
X185924663Y-114235392D01*
X185943526Y-114298179D01*
X185953613Y-114359774D01*
X185956976Y-114425671D01*
X185953492Y-114490320D01*
X185941613Y-114557165D01*
X185921304Y-114619539D01*
X185901723Y-114661686D01*
X185866391Y-114718944D01*
X185823905Y-114769049D01*
X185791917Y-114798304D01*
X185739136Y-114835570D01*
X185680598Y-114864898D01*
X185639052Y-114879826D01*
X185574479Y-114894220D01*
X185507202Y-114899018D01*
X185458755Y-114896925D01*
X185392263Y-114885932D01*
X185333187Y-114865518D01*
X185310648Y-114854534D01*
X185257931Y-114821156D01*
X185210662Y-114777425D01*
X185198957Y-114763626D01*
X185164174Y-114711743D01*
X185139009Y-114654280D01*
X185134851Y-114641355D01*
X185120856Y-114580676D01*
X185115745Y-114515005D01*
X185115851Y-114505234D01*
X185122569Y-114441180D01*
X185123406Y-114436890D01*
X185129383Y-114416675D01*
X185317057Y-114416675D01*
X185317968Y-114439397D01*
X185331636Y-114501047D01*
X185337434Y-114514951D01*
X185372891Y-114565876D01*
X185383341Y-114575465D01*
X185438961Y-114607441D01*
X185464642Y-114615293D01*
X185528605Y-114622330D01*
X185550667Y-114621342D01*
X185611736Y-114606511D01*
X185625694Y-114600291D01*
X185678116Y-114564015D01*
X185688276Y-114553641D01*
X185722473Y-114500116D01*
X185728758Y-114483685D01*
X185738603Y-114420398D01*
X185737692Y-114396125D01*
X185724024Y-114333545D01*
X185719053Y-114322410D01*
X185681218Y-114272748D01*
X185672236Y-114265579D01*
X185614838Y-114237076D01*
X185589798Y-114231024D01*
X185527675Y-114225599D01*
X185504100Y-114226491D01*
X185440822Y-114239868D01*
X185426769Y-114245611D01*
X185374442Y-114279572D01*
X185366043Y-114287748D01*
X185331946Y-114339749D01*
X185326886Y-114353133D01*
X185317057Y-114416675D01*
X185129383Y-114416675D01*
X185141490Y-114375731D01*
X185121328Y-114392171D01*
X185100856Y-114409541D01*
X184636814Y-114795416D01*
X184636814Y-114548816D01*
X184638310Y-114521608D01*
X184655735Y-114460102D01*
X184660504Y-114450690D01*
X184700402Y-114400546D01*
X185097443Y-114107728D01*
X185159516Y-114065013D01*
X185221270Y-114029538D01*
X185282707Y-114001303D01*
X185343825Y-113980308D01*
X185416747Y-113964670D01*
X185489211Y-113959458D01*
X185551940Y-113962547D01*
G37*
G36*
X146794890Y-112544688D02*
G01*
X147142922Y-112544688D01*
X147142922Y-112875349D01*
X147350748Y-112875349D01*
X147350748Y-112544688D01*
X147708085Y-112544688D01*
X147708085Y-112319801D01*
X147350748Y-112319801D01*
X147350748Y-111991002D01*
X147142922Y-111991002D01*
X147142922Y-112319801D01*
X146794890Y-112319801D01*
X146794890Y-112544688D01*
G37*
G36*
X146648792Y-113852753D02*
G01*
X146699973Y-113843757D01*
X146739677Y-113815840D01*
X146766043Y-113765279D01*
X146774819Y-113703579D01*
X146775038Y-113690214D01*
X146775038Y-113379405D01*
X146986277Y-113342803D01*
X146977490Y-113404719D01*
X146976661Y-113413216D01*
X146973571Y-113475284D01*
X146973559Y-113479286D01*
X146976679Y-113541257D01*
X146987318Y-113603897D01*
X147005508Y-113660746D01*
X147035055Y-113720414D01*
X147072280Y-113771890D01*
X147092051Y-113792886D01*
X147143560Y-113834794D01*
X147198089Y-113864671D01*
X147220779Y-113873845D01*
X147282502Y-113891519D01*
X147347707Y-113900182D01*
X147378975Y-113901142D01*
X147443460Y-113897507D01*
X147510196Y-113885111D01*
X147572533Y-113863919D01*
X147629848Y-113835060D01*
X147681519Y-113799237D01*
X147723595Y-113760627D01*
X147763940Y-113712198D01*
X147797541Y-113657758D01*
X147822234Y-113603051D01*
X147842014Y-113538088D01*
X147852870Y-113475469D01*
X147856942Y-113409457D01*
X147856976Y-113402669D01*
X147853796Y-113340554D01*
X147844258Y-113281385D01*
X147826755Y-113218987D01*
X147809207Y-113173440D01*
X147780648Y-113116133D01*
X147758336Y-113080073D01*
X147720822Y-113029595D01*
X147696918Y-113002216D01*
X147579357Y-113088138D01*
X147551440Y-113119157D01*
X147541824Y-113157930D01*
X147557334Y-113208181D01*
X147590834Y-113259982D01*
X147619943Y-113316505D01*
X147623714Y-113325742D01*
X147637425Y-113388990D01*
X147638603Y-113418799D01*
X147631091Y-113481636D01*
X147619371Y-113513406D01*
X147582847Y-113564122D01*
X147567260Y-113577305D01*
X147511193Y-113606560D01*
X147489712Y-113612977D01*
X147425656Y-113623053D01*
X147394795Y-113624144D01*
X147332161Y-113617803D01*
X147272600Y-113593958D01*
X147243733Y-113570481D01*
X147208322Y-113515036D01*
X147193753Y-113453997D01*
X147191932Y-113418799D01*
X147196861Y-113353529D01*
X147211648Y-113289392D01*
X147226983Y-113247265D01*
X147178593Y-113075731D01*
X146536814Y-113186468D01*
X146536814Y-113852753D01*
X146648792Y-113852753D01*
G37*
G36*
X147847050Y-114584487D02*
G01*
X147847050Y-114332614D01*
X146914003Y-113973416D01*
X146914003Y-114204196D01*
X146927961Y-114253516D01*
X146962702Y-114280813D01*
X147383008Y-114409541D01*
X147443279Y-114428269D01*
X147483509Y-114439319D01*
X147544383Y-114454392D01*
X147580908Y-114462273D01*
X147520033Y-114476013D01*
X147483509Y-114485537D01*
X147421277Y-114504027D01*
X147383008Y-114516866D01*
X146962702Y-114650867D01*
X146927961Y-114677544D01*
X146914003Y-114724072D01*
X146914003Y-114943685D01*
X147847050Y-114584487D01*
G37*
G36*
X170707050Y-113183056D02*
G01*
X170706858Y-113201947D01*
X170703173Y-113266368D01*
X170694797Y-113328147D01*
X170679482Y-113395516D01*
X170658040Y-113459434D01*
X170631131Y-113519514D01*
X170599414Y-113575057D01*
X170562889Y-113626063D01*
X170521557Y-113672533D01*
X170481608Y-113709416D01*
X170425709Y-113751166D01*
X170371736Y-113782922D01*
X170313731Y-113809637D01*
X170252333Y-113830943D01*
X170188182Y-113846161D01*
X170121278Y-113855293D01*
X170051621Y-113858336D01*
X169982236Y-113855293D01*
X169915526Y-113846161D01*
X169851492Y-113830943D01*
X169790133Y-113809637D01*
X169746272Y-113790073D01*
X169691388Y-113759578D01*
X169634557Y-113719245D01*
X169582927Y-113672533D01*
X169541710Y-113626063D01*
X169505224Y-113575057D01*
X169473469Y-113519514D01*
X169446444Y-113459434D01*
X169440434Y-113443778D01*
X169420272Y-113378997D01*
X169406313Y-113310765D01*
X169399189Y-113248232D01*
X169396814Y-113183056D01*
X169635038Y-113183056D01*
X169635743Y-113209728D01*
X169644166Y-113274680D01*
X169663886Y-113337530D01*
X169669516Y-113350082D01*
X169701627Y-113403754D01*
X169746706Y-113452300D01*
X169764148Y-113466488D01*
X169819110Y-113500415D01*
X169878226Y-113524263D01*
X169923169Y-113536409D01*
X169987748Y-113546420D01*
X170051621Y-113549389D01*
X170098809Y-113547818D01*
X170165082Y-113539574D01*
X170225947Y-113524263D01*
X170244893Y-113517711D01*
X170305478Y-113489280D01*
X170357157Y-113452300D01*
X170367056Y-113443332D01*
X170409927Y-113392933D01*
X170439977Y-113337530D01*
X170451218Y-113307025D01*
X170464768Y-113245491D01*
X170468825Y-113183056D01*
X170468825Y-112981123D01*
X169635038Y-112981123D01*
X169635038Y-113183056D01*
X169396814Y-113183056D01*
X169396814Y-112677449D01*
X170707050Y-112677449D01*
X170707050Y-113183056D01*
G37*
G36*
X170083209Y-113939922D02*
G01*
X170153796Y-113943120D01*
X170220019Y-113949761D01*
X170281878Y-113959845D01*
X170347231Y-113975588D01*
X170377814Y-113985097D01*
X170441734Y-114009682D01*
X170498882Y-114038684D01*
X170554437Y-114076089D01*
X170601722Y-114118715D01*
X170644290Y-114170923D01*
X170676961Y-114228701D01*
X170699743Y-114291098D01*
X170713068Y-114357160D01*
X170716976Y-114420398D01*
X170713068Y-114483696D01*
X170699743Y-114549964D01*
X170676961Y-114612715D01*
X170644290Y-114671023D01*
X170601722Y-114723540D01*
X170554437Y-114766258D01*
X170522107Y-114789576D01*
X170467969Y-114820833D01*
X170407059Y-114847624D01*
X170347231Y-114867689D01*
X170315267Y-114876341D01*
X170247064Y-114890183D01*
X170182711Y-114898510D01*
X170113995Y-114903304D01*
X170051621Y-114904602D01*
X170020034Y-114904277D01*
X169949447Y-114900997D01*
X169883224Y-114894184D01*
X169821365Y-114883839D01*
X169756012Y-114867689D01*
X169725356Y-114858098D01*
X169661308Y-114833292D01*
X169604081Y-114804020D01*
X169548496Y-114766258D01*
X169501271Y-114723540D01*
X169458910Y-114671023D01*
X169426592Y-114612715D01*
X169403987Y-114549964D01*
X169390765Y-114483696D01*
X169386888Y-114420398D01*
X169605260Y-114420398D01*
X169605715Y-114431813D01*
X169623872Y-114492672D01*
X169642003Y-114518378D01*
X169691803Y-114556570D01*
X169704797Y-114563448D01*
X169763970Y-114586044D01*
X169828596Y-114601548D01*
X169856941Y-114606463D01*
X169920857Y-114613793D01*
X169986618Y-114617542D01*
X170051621Y-114618608D01*
X170085034Y-114618342D01*
X170147150Y-114616209D01*
X170209521Y-114611261D01*
X170274957Y-114601548D01*
X170290865Y-114598306D01*
X170352427Y-114581928D01*
X170411750Y-114556570D01*
X170437363Y-114540104D01*
X170480302Y-114492672D01*
X170485574Y-114481501D01*
X170498603Y-114420398D01*
X170498156Y-114408990D01*
X170480302Y-114348434D01*
X170461938Y-114323047D01*
X170411750Y-114285776D01*
X170398620Y-114279121D01*
X170339283Y-114257189D01*
X170274957Y-114242039D01*
X170246686Y-114237303D01*
X170182782Y-114230239D01*
X170116877Y-114226627D01*
X170051621Y-114225599D01*
X170026522Y-114225744D01*
X169956427Y-114227911D01*
X169894135Y-114232679D01*
X169828596Y-114242039D01*
X169812583Y-114245217D01*
X169750816Y-114261194D01*
X169691803Y-114285776D01*
X169666364Y-114301768D01*
X169623872Y-114348434D01*
X169618510Y-114359515D01*
X169605260Y-114420398D01*
X169386888Y-114420398D01*
X169390765Y-114357160D01*
X169403987Y-114291098D01*
X169426592Y-114228701D01*
X169458910Y-114170923D01*
X169501271Y-114118715D01*
X169548496Y-114076089D01*
X169580837Y-114052992D01*
X169635032Y-114022027D01*
X169696049Y-113995478D01*
X169756012Y-113975588D01*
X169787976Y-113967154D01*
X169856178Y-113953661D01*
X169920531Y-113945544D01*
X169989248Y-113940871D01*
X170051621Y-113939606D01*
X170083209Y-113939922D01*
G37*
G36*
X140227050Y-112853326D02*
G01*
X140227030Y-112855660D01*
X140206577Y-112916294D01*
X140160669Y-112951655D01*
X139929269Y-113028582D01*
X139929269Y-113523333D01*
X140160669Y-113600259D01*
X140208438Y-113636862D01*
X140210692Y-113639945D01*
X140227050Y-113700450D01*
X140227050Y-113934332D01*
X138916814Y-113430586D01*
X138916814Y-113275182D01*
X139186988Y-113275182D01*
X139225955Y-113286581D01*
X139286248Y-113305580D01*
X139305754Y-113312141D01*
X139365966Y-113334118D01*
X139721442Y-113453850D01*
X139721442Y-113098374D01*
X139367828Y-113217797D01*
X139347828Y-113225548D01*
X139287799Y-113246024D01*
X139248715Y-113258019D01*
X139186988Y-113275182D01*
X138916814Y-113275182D01*
X138916814Y-113121328D01*
X140227050Y-112617582D01*
X140227050Y-112853326D01*
G37*
G36*
X140019223Y-114101214D02*
G01*
X140019223Y-114351536D01*
X139364726Y-114351536D01*
X139299752Y-114352738D01*
X139264225Y-114354327D01*
X139386439Y-114206678D01*
X139404740Y-114167904D01*
X139404740Y-114131612D01*
X139393263Y-114101214D01*
X139375892Y-114081672D01*
X139259572Y-113994199D01*
X138916814Y-114399615D01*
X138916814Y-114628534D01*
X140019223Y-114628534D01*
X140019223Y-114842874D01*
X140227050Y-114842874D01*
X140227050Y-114101214D01*
X140019223Y-114101214D01*
G37*
G36*
X200938899Y-110069074D02*
G01*
X200932617Y-110133348D01*
X200919047Y-110177640D01*
X200887059Y-110231535D01*
X200861352Y-110258289D01*
X200808014Y-110293597D01*
X200769846Y-110308850D01*
X200708298Y-110322645D01*
X200647011Y-110326530D01*
X199876814Y-110326530D01*
X199876814Y-110628344D01*
X200650424Y-110628344D01*
X200716402Y-110625252D01*
X200779289Y-110615977D01*
X200845537Y-110598420D01*
X200870968Y-110589260D01*
X200930891Y-110561755D01*
X200985422Y-110527707D01*
X201034562Y-110487116D01*
X201043742Y-110478212D01*
X201085957Y-110429982D01*
X201121871Y-110375632D01*
X201151484Y-110315164D01*
X201156651Y-110302336D01*
X201176144Y-110241998D01*
X201189257Y-110177538D01*
X201195991Y-110108956D01*
X201196976Y-110069074D01*
X201194455Y-110005582D01*
X201185595Y-109938094D01*
X201170355Y-109874776D01*
X201156651Y-109834882D01*
X201128298Y-109773189D01*
X201093644Y-109717616D01*
X201052689Y-109668161D01*
X201043742Y-109659005D01*
X200995681Y-109617135D01*
X200942228Y-109581870D01*
X200883384Y-109553208D01*
X200870968Y-109548268D01*
X200806246Y-109527984D01*
X200744733Y-109516152D01*
X200680129Y-109510405D01*
X200650424Y-109509804D01*
X199876814Y-109509804D01*
X199876814Y-109811928D01*
X200646081Y-109811928D01*
X200711220Y-109816270D01*
X200768916Y-109829298D01*
X200827431Y-109855393D01*
X200861041Y-109879549D01*
X200901439Y-109926731D01*
X200919047Y-109960508D01*
X200935622Y-110021827D01*
X200938899Y-110069074D01*
G37*
G36*
X200146057Y-111576279D02*
G01*
X200178317Y-111548052D01*
X200188863Y-111510209D01*
X200176145Y-111465852D01*
X200146988Y-111412500D01*
X200121373Y-111353739D01*
X200118140Y-111344258D01*
X200106143Y-111283359D01*
X200105112Y-111256475D01*
X200112059Y-111190632D01*
X200139172Y-111132868D01*
X200141404Y-111130228D01*
X200193209Y-111095523D01*
X200239114Y-111088663D01*
X200299253Y-111109044D01*
X200304253Y-111113478D01*
X200341585Y-111164546D01*
X200348920Y-111179238D01*
X200372145Y-111237514D01*
X200383351Y-111271985D01*
X200401977Y-111331646D01*
X200418092Y-111379000D01*
X200441887Y-111439632D01*
X200463380Y-111485704D01*
X200496957Y-111540949D01*
X200529450Y-111578761D01*
X200580060Y-111619470D01*
X200627159Y-111644211D01*
X200690515Y-111663055D01*
X200755748Y-111669238D01*
X200765814Y-111669336D01*
X200831855Y-111664930D01*
X200894581Y-111651713D01*
X200934556Y-111638007D01*
X200990623Y-111610541D01*
X201045061Y-111571827D01*
X201071659Y-111547122D01*
X201111906Y-111498761D01*
X201145174Y-111442549D01*
X201163475Y-111400713D01*
X201182548Y-111338179D01*
X201193017Y-111276432D01*
X201196943Y-111210021D01*
X201196976Y-111203123D01*
X201193474Y-111137913D01*
X201184568Y-111079358D01*
X201169601Y-111017397D01*
X201149517Y-110957454D01*
X201124779Y-110900224D01*
X201095854Y-110846406D01*
X201058701Y-110792448D01*
X201026682Y-110756451D01*
X200885546Y-110845786D01*
X200860111Y-110873703D01*
X200849875Y-110911856D01*
X200866935Y-110965829D01*
X200899335Y-111019060D01*
X200904468Y-111027556D01*
X200933257Y-111084960D01*
X200942001Y-111106654D01*
X200956395Y-111168668D01*
X200958751Y-111211808D01*
X200951804Y-111276727D01*
X200926854Y-111333763D01*
X200922459Y-111339606D01*
X200868282Y-111376476D01*
X200807689Y-111385203D01*
X200746855Y-111369868D01*
X200733554Y-111360078D01*
X200694727Y-111311649D01*
X200686095Y-111294628D01*
X200663265Y-111236486D01*
X200652905Y-111202192D01*
X200634867Y-111139694D01*
X200621266Y-111095798D01*
X200598921Y-111035264D01*
X200578150Y-110989403D01*
X200544431Y-110934660D01*
X200511149Y-110896967D01*
X200461208Y-110858170D01*
X200407546Y-110831207D01*
X200347470Y-110814243D01*
X200281797Y-110806998D01*
X200254003Y-110806392D01*
X200190602Y-110812032D01*
X200128507Y-110828953D01*
X200111006Y-110835860D01*
X200052847Y-110866928D01*
X200004052Y-110905240D01*
X199986620Y-110922402D01*
X199945898Y-110973225D01*
X199914761Y-111027591D01*
X199899457Y-111062607D01*
X199880914Y-111122619D01*
X199870068Y-111188348D01*
X199866888Y-111253063D01*
X199869601Y-111315796D01*
X199876503Y-111369694D01*
X199889917Y-111431689D01*
X199904420Y-111477329D01*
X199928777Y-111535333D01*
X199948467Y-111572247D01*
X199982927Y-111623937D01*
X200006162Y-111651345D01*
X200146057Y-111576279D01*
G37*
G36*
X199876814Y-112680550D02*
G01*
X200115038Y-112680550D01*
X200115038Y-112146096D01*
X200412819Y-112146096D01*
X200412819Y-112555234D01*
X200631192Y-112555234D01*
X200631192Y-112146096D01*
X200948825Y-112146096D01*
X200948825Y-112680550D01*
X201187050Y-112680550D01*
X201187050Y-111842421D01*
X199876814Y-111842421D01*
X199876814Y-112680550D01*
G37*
G36*
X201187050Y-113163203D02*
G01*
X200700054Y-113163203D01*
X200700054Y-113239820D01*
X200711531Y-113293482D01*
X200746892Y-113327293D01*
X201129354Y-113543494D01*
X201174372Y-113590840D01*
X201187050Y-113652681D01*
X201187050Y-113925957D01*
X200729522Y-113648958D01*
X200721747Y-113643753D01*
X200674928Y-113602430D01*
X200672052Y-113599194D01*
X200636465Y-113546286D01*
X200608936Y-113606075D01*
X200574738Y-113658264D01*
X200537079Y-113700580D01*
X200489126Y-113740464D01*
X200445453Y-113766630D01*
X200384592Y-113791025D01*
X200329876Y-113803270D01*
X200264239Y-113808085D01*
X200233396Y-113807082D01*
X200169637Y-113798025D01*
X200110075Y-113779548D01*
X200088347Y-113769782D01*
X200032503Y-113733412D01*
X199987241Y-113687732D01*
X199954126Y-113640116D01*
X199926437Y-113583850D01*
X199905971Y-113525193D01*
X199894610Y-113479642D01*
X199884103Y-113415231D01*
X199878636Y-113352457D01*
X199876814Y-113284487D01*
X200115038Y-113284487D01*
X200117985Y-113339138D01*
X200131660Y-113401812D01*
X200162187Y-113457262D01*
X200174546Y-113470348D01*
X200231080Y-113503881D01*
X200293086Y-113513096D01*
X200308593Y-113512660D01*
X200371254Y-113500688D01*
X200382368Y-113496432D01*
X200434532Y-113460364D01*
X200447308Y-113445572D01*
X200477028Y-113389331D01*
X200487418Y-113348042D01*
X200492227Y-113284487D01*
X200492227Y-113163203D01*
X200115038Y-113163203D01*
X200115038Y-113284487D01*
X199876814Y-113284487D01*
X199876814Y-112861080D01*
X201187050Y-112861080D01*
X201187050Y-113163203D01*
G37*
G36*
X199866888Y-114443661D02*
G01*
X199870076Y-114507418D01*
X199880829Y-114571118D01*
X199893874Y-114614885D01*
X199918974Y-114672036D01*
X199953105Y-114724996D01*
X199967078Y-114741752D01*
X200013389Y-114784795D01*
X200069998Y-114818538D01*
X200073783Y-114820230D01*
X200136209Y-114840470D01*
X200201891Y-114847216D01*
X200266024Y-114843290D01*
X200309526Y-114834809D01*
X200367638Y-114811884D01*
X200390175Y-114797586D01*
X200435773Y-114754199D01*
X200448491Y-114736789D01*
X200478659Y-114679617D01*
X200488195Y-114654279D01*
X200515376Y-114716564D01*
X200557309Y-114777370D01*
X200609407Y-114822975D01*
X200671667Y-114853379D01*
X200744091Y-114868580D01*
X200784115Y-114870480D01*
X200846649Y-114866815D01*
X200909419Y-114854316D01*
X200965885Y-114832948D01*
X201020192Y-114801221D01*
X201070854Y-114758778D01*
X201094613Y-114732447D01*
X201132000Y-114677957D01*
X201159059Y-114621753D01*
X201171540Y-114586348D01*
X201187040Y-114523040D01*
X201195386Y-114457813D01*
X201196976Y-114413263D01*
X201194097Y-114346393D01*
X201184480Y-114280547D01*
X201176503Y-114247932D01*
X201154196Y-114187721D01*
X201123102Y-114133565D01*
X201112604Y-114119204D01*
X201069975Y-114072690D01*
X201018084Y-114031401D01*
X201001557Y-114020564D01*
X200947264Y-113990263D01*
X200885818Y-113963102D01*
X200840879Y-113946739D01*
X200790939Y-114070194D01*
X200778117Y-114132931D01*
X200781013Y-114159218D01*
X200814329Y-114213603D01*
X200821958Y-114218464D01*
X200877538Y-114254427D01*
X200922302Y-114297853D01*
X200926491Y-114303456D01*
X200953427Y-114362703D01*
X200958751Y-114409540D01*
X200950201Y-114472528D01*
X200943552Y-114490500D01*
X200909125Y-114543225D01*
X200904778Y-114547574D01*
X200852389Y-114580967D01*
X200850495Y-114581695D01*
X200789078Y-114593482D01*
X200726166Y-114589286D01*
X200715873Y-114587589D01*
X200661502Y-114556685D01*
X200660039Y-114555019D01*
X200630959Y-114499650D01*
X200624058Y-114474370D01*
X200614519Y-114409773D01*
X200611539Y-114347382D01*
X200611340Y-114323928D01*
X200412819Y-114323928D01*
X200410622Y-114389043D01*
X200402048Y-114451986D01*
X200401342Y-114455138D01*
X200379911Y-114515230D01*
X200369083Y-114532375D01*
X200319142Y-114568667D01*
X200257118Y-114577654D01*
X200254933Y-114577663D01*
X200191267Y-114568357D01*
X200144196Y-114540440D01*
X200112593Y-114486394D01*
X200105112Y-114427531D01*
X200114829Y-114364173D01*
X200135821Y-114323308D01*
X200182131Y-114279021D01*
X200211507Y-114264993D01*
X200264200Y-114230155D01*
X200274165Y-114215673D01*
X200283737Y-114152461D01*
X200280989Y-114129130D01*
X200255243Y-113982411D01*
X200190861Y-113995513D01*
X200127480Y-114016829D01*
X200084640Y-114037625D01*
X200029458Y-114073865D01*
X199982364Y-114116557D01*
X199963356Y-114138436D01*
X199927883Y-114190247D01*
X199900601Y-114247895D01*
X199890772Y-114276470D01*
X199875308Y-114341623D01*
X199868031Y-114405127D01*
X199866888Y-114443661D01*
G37*
G36*
X155118398Y-112584392D02*
G01*
X155122430Y-112605795D01*
X155136699Y-112626577D01*
X155264496Y-112746310D01*
X155313991Y-112704435D01*
X155357010Y-112657596D01*
X155393554Y-112605795D01*
X155423623Y-112549030D01*
X155446965Y-112487225D01*
X155463637Y-112419992D01*
X155472755Y-112356710D01*
X155476767Y-112289272D01*
X155476976Y-112269240D01*
X155474571Y-112205842D01*
X155465934Y-112136985D01*
X155451016Y-112071966D01*
X155429817Y-112010787D01*
X155426725Y-112003409D01*
X155399060Y-111946858D01*
X155362236Y-111888567D01*
X155319377Y-111835921D01*
X155287450Y-111803958D01*
X155234774Y-111761063D01*
X155176895Y-111724155D01*
X155121080Y-111696373D01*
X155076522Y-111678642D01*
X155014136Y-111659507D01*
X154949190Y-111645839D01*
X154881685Y-111637639D01*
X154811621Y-111634905D01*
X154748982Y-111637161D01*
X154680193Y-111645265D01*
X154614389Y-111659262D01*
X154551571Y-111679153D01*
X154543929Y-111682054D01*
X154485071Y-111708168D01*
X154430400Y-111739051D01*
X154373901Y-111779495D01*
X154333621Y-111815125D01*
X154287010Y-111866130D01*
X154246631Y-111922485D01*
X154215971Y-111977068D01*
X154196208Y-112020779D01*
X154174630Y-112082158D01*
X154159218Y-112146561D01*
X154149970Y-112213988D01*
X154146888Y-112284440D01*
X154149500Y-112346831D01*
X154158097Y-112409990D01*
X154160536Y-112422163D01*
X154176433Y-112484821D01*
X154197448Y-112543137D01*
X154225297Y-112600493D01*
X154254523Y-112646740D01*
X154293727Y-112696794D01*
X154326797Y-112731111D01*
X154463590Y-112629059D01*
X154486544Y-112605795D01*
X154496780Y-112568262D01*
X154489956Y-112537864D01*
X154472896Y-112507465D01*
X154450872Y-112472414D01*
X154429159Y-112426816D01*
X154412099Y-112365089D01*
X154405306Y-112302642D01*
X154404964Y-112282579D01*
X154410189Y-112219390D01*
X154427383Y-112157222D01*
X154432261Y-112145475D01*
X154463081Y-112090995D01*
X154504943Y-112043876D01*
X154511359Y-112038150D01*
X154565171Y-112000414D01*
X154624865Y-111973188D01*
X154638846Y-111968358D01*
X154703622Y-111952492D01*
X154769684Y-111945025D01*
X154811001Y-111943853D01*
X154875787Y-111947078D01*
X154940527Y-111957954D01*
X154985017Y-111971149D01*
X155042621Y-111996553D01*
X155095954Y-112031124D01*
X155112814Y-112045284D01*
X155155994Y-112092671D01*
X155188405Y-112147010D01*
X155191912Y-112154781D01*
X155211282Y-112215431D01*
X155218793Y-112279898D01*
X155218899Y-112288782D01*
X155216249Y-112352798D01*
X155215177Y-112363538D01*
X155202415Y-112425280D01*
X155201838Y-112427126D01*
X155177334Y-112482340D01*
X155140025Y-112533696D01*
X155138560Y-112535382D01*
X155124291Y-112558336D01*
X155118398Y-112584392D01*
G37*
G36*
X155228825Y-113174370D02*
G01*
X155228825Y-113656713D01*
X155467050Y-113656713D01*
X155467050Y-112872247D01*
X154156814Y-112872247D01*
X154156814Y-113174370D01*
X155228825Y-113174370D01*
G37*
G36*
X154692819Y-114107417D02*
G01*
X154692819Y-114155496D01*
X154679275Y-114218996D01*
X154650013Y-114251965D01*
X154217611Y-114545093D01*
X154174745Y-114591409D01*
X154170152Y-114600617D01*
X154157139Y-114661769D01*
X154156814Y-114675372D01*
X154156814Y-114938102D01*
X154691268Y-114552227D01*
X154739037Y-114509499D01*
X154771297Y-114463823D01*
X154801938Y-114520010D01*
X154806038Y-114525241D01*
X154851135Y-114567944D01*
X154864043Y-114577042D01*
X155467050Y-114970361D01*
X155467050Y-114700497D01*
X155463637Y-114656140D01*
X155452781Y-114624501D01*
X155435410Y-114601237D01*
X155411526Y-114582626D01*
X154956790Y-114287636D01*
X154921428Y-114247002D01*
X154911232Y-114185788D01*
X154911192Y-114180621D01*
X154911192Y-114107417D01*
X155467050Y-114107417D01*
X155467050Y-113805293D01*
X154156814Y-113805293D01*
X154156814Y-114107417D01*
X154692819Y-114107417D01*
G37*
G36*
X173247050Y-113183056D02*
G01*
X173246858Y-113201947D01*
X173243173Y-113266368D01*
X173234797Y-113328147D01*
X173219482Y-113395516D01*
X173198040Y-113459434D01*
X173171131Y-113519514D01*
X173139414Y-113575057D01*
X173102889Y-113626063D01*
X173061557Y-113672533D01*
X173021608Y-113709416D01*
X172965709Y-113751166D01*
X172911736Y-113782922D01*
X172853731Y-113809637D01*
X172792333Y-113830943D01*
X172728182Y-113846161D01*
X172661278Y-113855293D01*
X172591621Y-113858336D01*
X172522236Y-113855293D01*
X172455526Y-113846161D01*
X172391492Y-113830943D01*
X172330133Y-113809637D01*
X172286272Y-113790073D01*
X172231388Y-113759578D01*
X172174557Y-113719245D01*
X172122927Y-113672533D01*
X172081710Y-113626063D01*
X172045224Y-113575057D01*
X172013469Y-113519514D01*
X171986444Y-113459434D01*
X171980434Y-113443778D01*
X171960272Y-113378997D01*
X171946313Y-113310765D01*
X171939189Y-113248232D01*
X171936814Y-113183056D01*
X172175038Y-113183056D01*
X172175743Y-113209728D01*
X172184166Y-113274680D01*
X172203886Y-113337530D01*
X172209516Y-113350082D01*
X172241627Y-113403754D01*
X172286706Y-113452300D01*
X172304148Y-113466488D01*
X172359110Y-113500415D01*
X172418226Y-113524263D01*
X172463169Y-113536409D01*
X172527748Y-113546420D01*
X172591621Y-113549389D01*
X172638809Y-113547818D01*
X172705082Y-113539574D01*
X172765947Y-113524263D01*
X172784893Y-113517711D01*
X172845478Y-113489280D01*
X172897157Y-113452300D01*
X172907056Y-113443332D01*
X172949927Y-113392933D01*
X172979977Y-113337530D01*
X172991218Y-113307025D01*
X173004768Y-113245491D01*
X173008825Y-113183056D01*
X173008825Y-112981123D01*
X172175038Y-112981123D01*
X172175038Y-113183056D01*
X171936814Y-113183056D01*
X171936814Y-112677449D01*
X173247050Y-112677449D01*
X173247050Y-113183056D01*
G37*
G36*
X173039223Y-114101214D02*
G01*
X173039223Y-114351536D01*
X172384726Y-114351536D01*
X172319752Y-114352738D01*
X172284225Y-114354328D01*
X172406439Y-114206678D01*
X172424740Y-114167904D01*
X172424740Y-114131612D01*
X172413263Y-114101214D01*
X172395892Y-114081672D01*
X172279572Y-113994199D01*
X171936814Y-114399615D01*
X171936814Y-114628534D01*
X173039223Y-114628534D01*
X173039223Y-114842874D01*
X173247050Y-114842874D01*
X173247050Y-114101214D01*
X173039223Y-114101214D01*
G37*
G36*
X152927050Y-110089857D02*
G01*
X152440054Y-110089857D01*
X152440054Y-110166473D01*
X152451531Y-110220136D01*
X152486892Y-110253946D01*
X152869354Y-110470148D01*
X152914372Y-110517493D01*
X152927050Y-110579334D01*
X152927050Y-110852610D01*
X152469522Y-110575612D01*
X152461747Y-110570406D01*
X152414928Y-110529083D01*
X152412052Y-110525847D01*
X152376465Y-110472939D01*
X152348936Y-110532728D01*
X152314738Y-110584917D01*
X152277079Y-110627233D01*
X152229126Y-110667117D01*
X152185453Y-110693283D01*
X152124592Y-110717678D01*
X152069876Y-110729923D01*
X152004239Y-110734738D01*
X151973396Y-110733735D01*
X151909637Y-110724678D01*
X151850075Y-110706201D01*
X151828347Y-110696435D01*
X151772503Y-110660065D01*
X151727241Y-110614385D01*
X151694126Y-110566769D01*
X151666437Y-110510504D01*
X151645971Y-110451846D01*
X151634610Y-110406295D01*
X151624103Y-110341885D01*
X151618636Y-110279110D01*
X151616814Y-110211140D01*
X151855038Y-110211140D01*
X151857985Y-110265792D01*
X151871660Y-110328465D01*
X151902187Y-110383915D01*
X151914546Y-110397001D01*
X151971080Y-110430534D01*
X152033086Y-110439749D01*
X152048593Y-110439313D01*
X152111254Y-110427342D01*
X152122368Y-110423086D01*
X152174532Y-110387017D01*
X152187308Y-110372225D01*
X152217028Y-110315984D01*
X152227418Y-110274695D01*
X152232227Y-110211140D01*
X152232227Y-110089857D01*
X151855038Y-110089857D01*
X151855038Y-110211140D01*
X151616814Y-110211140D01*
X151616814Y-109787733D01*
X152927050Y-109787733D01*
X152927050Y-110089857D01*
G37*
G36*
X151616814Y-111794652D02*
G01*
X151855038Y-111794652D01*
X151855038Y-111260197D01*
X152152819Y-111260197D01*
X152152819Y-111669336D01*
X152371192Y-111669336D01*
X152371192Y-111260197D01*
X152688825Y-111260197D01*
X152688825Y-111794652D01*
X152927050Y-111794652D01*
X152927050Y-110956523D01*
X151616814Y-110956523D01*
X151616814Y-111794652D01*
G37*
G36*
X151886057Y-112694198D02*
G01*
X151918317Y-112665971D01*
X151928863Y-112628128D01*
X151916145Y-112583771D01*
X151886988Y-112530419D01*
X151861373Y-112471658D01*
X151858140Y-112462178D01*
X151846143Y-112401278D01*
X151845112Y-112374394D01*
X151852059Y-112308551D01*
X151879172Y-112250787D01*
X151881404Y-112248148D01*
X151933209Y-112213442D01*
X151979114Y-112206582D01*
X152039253Y-112226963D01*
X152044253Y-112231397D01*
X152081585Y-112282465D01*
X152088920Y-112297157D01*
X152112145Y-112355433D01*
X152123351Y-112389904D01*
X152141977Y-112449565D01*
X152158092Y-112496919D01*
X152181887Y-112557551D01*
X152203380Y-112603623D01*
X152236957Y-112658868D01*
X152269450Y-112696680D01*
X152320060Y-112737389D01*
X152367159Y-112762130D01*
X152430515Y-112780974D01*
X152495748Y-112787157D01*
X152505814Y-112787255D01*
X152571855Y-112782849D01*
X152634581Y-112769632D01*
X152674556Y-112755926D01*
X152730623Y-112728460D01*
X152785061Y-112689746D01*
X152811659Y-112665041D01*
X152851906Y-112616680D01*
X152885174Y-112560468D01*
X152903475Y-112518632D01*
X152922548Y-112456098D01*
X152933017Y-112394351D01*
X152936943Y-112327940D01*
X152936976Y-112321042D01*
X152933474Y-112255832D01*
X152924568Y-112197277D01*
X152909601Y-112135316D01*
X152889517Y-112075373D01*
X152864779Y-112018143D01*
X152835854Y-111964325D01*
X152798701Y-111910367D01*
X152766682Y-111874370D01*
X152625546Y-111963705D01*
X152600111Y-111991622D01*
X152589875Y-112029775D01*
X152606935Y-112083748D01*
X152639335Y-112136979D01*
X152644468Y-112145475D01*
X152673257Y-112202879D01*
X152682001Y-112224573D01*
X152696395Y-112286587D01*
X152698751Y-112329727D01*
X152691804Y-112394646D01*
X152666854Y-112451682D01*
X152662459Y-112457525D01*
X152608282Y-112494395D01*
X152547689Y-112503122D01*
X152486855Y-112487787D01*
X152473554Y-112477997D01*
X152434727Y-112429568D01*
X152426095Y-112412547D01*
X152403265Y-112354405D01*
X152392905Y-112320111D01*
X152374867Y-112257613D01*
X152361266Y-112213717D01*
X152338921Y-112153183D01*
X152318150Y-112107322D01*
X152284431Y-112052579D01*
X152251149Y-112014886D01*
X152201208Y-111976089D01*
X152147546Y-111949126D01*
X152087470Y-111932162D01*
X152021797Y-111924917D01*
X151994003Y-111924311D01*
X151930602Y-111929951D01*
X151868507Y-111946872D01*
X151851006Y-111953779D01*
X151792847Y-111984847D01*
X151744052Y-112023159D01*
X151726620Y-112040321D01*
X151685898Y-112091144D01*
X151654761Y-112145510D01*
X151639457Y-112180526D01*
X151620914Y-112240538D01*
X151610068Y-112306267D01*
X151606888Y-112370982D01*
X151609601Y-112433715D01*
X151616503Y-112487613D01*
X151629917Y-112549608D01*
X151644420Y-112595248D01*
X151668777Y-112653252D01*
X151688467Y-112690166D01*
X151722927Y-112741856D01*
X151746162Y-112769264D01*
X151886057Y-112694198D01*
G37*
G36*
X151616814Y-113798469D02*
G01*
X151855038Y-113798469D01*
X151855038Y-113264015D01*
X152152819Y-113264015D01*
X152152819Y-113673153D01*
X152371192Y-113673153D01*
X152371192Y-113264015D01*
X152688825Y-113264015D01*
X152688825Y-113798469D01*
X152927050Y-113798469D01*
X152927050Y-112960340D01*
X151616814Y-112960340D01*
X151616814Y-113798469D01*
G37*
G36*
X151616814Y-114914217D02*
G01*
X151855038Y-114914217D01*
X151855038Y-114548195D01*
X152927050Y-114548195D01*
X152927050Y-114246071D01*
X151855038Y-114246071D01*
X151855038Y-113879739D01*
X151616814Y-113879739D01*
X151616814Y-114914217D01*
G37*
X151364950Y-109788797D02*
X151364950Y-114808000D01*
G36*
X117367050Y-111822260D02*
G01*
X117367030Y-111824594D01*
X117346577Y-111885228D01*
X117300669Y-111920589D01*
X117069269Y-111997516D01*
X117069269Y-112492267D01*
X117300669Y-112569193D01*
X117348438Y-112605796D01*
X117350692Y-112608879D01*
X117367050Y-112669384D01*
X117367050Y-112903266D01*
X116056814Y-112399520D01*
X116056814Y-112244116D01*
X116326988Y-112244116D01*
X116365955Y-112255515D01*
X116426248Y-112274514D01*
X116445754Y-112281075D01*
X116505966Y-112303052D01*
X116861442Y-112422784D01*
X116861442Y-112067308D01*
X116507828Y-112186731D01*
X116487828Y-112194482D01*
X116427799Y-112214958D01*
X116388715Y-112226953D01*
X116326988Y-112244116D01*
X116056814Y-112244116D01*
X116056814Y-112090262D01*
X117367050Y-111586516D01*
X117367050Y-111822260D01*
G37*
G36*
X117159223Y-113070148D02*
G01*
X117159223Y-113320470D01*
X116504726Y-113320470D01*
X116439752Y-113321672D01*
X116404225Y-113323261D01*
X116526439Y-113175612D01*
X116544740Y-113136838D01*
X116544740Y-113100546D01*
X116533263Y-113070148D01*
X116515892Y-113050606D01*
X116399572Y-112963133D01*
X116056814Y-113368549D01*
X116056814Y-113597468D01*
X117159223Y-113597468D01*
X117159223Y-113811808D01*
X117367050Y-113811808D01*
X117367050Y-113070148D01*
X117159223Y-113070148D01*
G37*
G36*
X116743209Y-113939922D02*
G01*
X116813796Y-113943120D01*
X116880019Y-113949761D01*
X116941878Y-113959845D01*
X117007231Y-113975588D01*
X117037814Y-113985097D01*
X117101734Y-114009682D01*
X117158882Y-114038684D01*
X117214437Y-114076089D01*
X117261722Y-114118715D01*
X117304290Y-114170923D01*
X117336961Y-114228701D01*
X117359743Y-114291098D01*
X117373068Y-114357160D01*
X117376976Y-114420398D01*
X117373068Y-114483696D01*
X117359743Y-114549964D01*
X117336961Y-114612715D01*
X117304290Y-114671023D01*
X117261722Y-114723540D01*
X117214437Y-114766258D01*
X117182107Y-114789576D01*
X117127969Y-114820833D01*
X117067059Y-114847624D01*
X117007231Y-114867689D01*
X116975267Y-114876341D01*
X116907064Y-114890183D01*
X116842711Y-114898510D01*
X116773995Y-114903304D01*
X116711621Y-114904602D01*
X116680034Y-114904277D01*
X116609447Y-114900997D01*
X116543224Y-114894184D01*
X116481365Y-114883839D01*
X116416012Y-114867689D01*
X116385356Y-114858098D01*
X116321308Y-114833292D01*
X116264081Y-114804020D01*
X116208496Y-114766258D01*
X116161271Y-114723540D01*
X116118910Y-114671023D01*
X116086592Y-114612715D01*
X116063987Y-114549964D01*
X116050765Y-114483696D01*
X116046888Y-114420398D01*
X116265260Y-114420398D01*
X116265715Y-114431813D01*
X116283872Y-114492672D01*
X116302003Y-114518379D01*
X116351803Y-114556570D01*
X116364797Y-114563448D01*
X116423970Y-114586044D01*
X116488596Y-114601548D01*
X116516941Y-114606463D01*
X116580857Y-114613793D01*
X116646618Y-114617542D01*
X116711621Y-114618608D01*
X116745034Y-114618342D01*
X116807150Y-114616209D01*
X116869521Y-114611261D01*
X116934957Y-114601548D01*
X116950865Y-114598306D01*
X117012427Y-114581928D01*
X117071750Y-114556570D01*
X117097363Y-114540104D01*
X117140302Y-114492672D01*
X117145574Y-114481502D01*
X117158603Y-114420398D01*
X117158156Y-114408990D01*
X117140302Y-114348434D01*
X117121938Y-114323047D01*
X117071750Y-114285776D01*
X117058620Y-114279121D01*
X116999283Y-114257189D01*
X116934957Y-114242039D01*
X116906686Y-114237303D01*
X116842782Y-114230239D01*
X116776877Y-114226627D01*
X116711621Y-114225599D01*
X116686522Y-114225744D01*
X116616427Y-114227911D01*
X116554135Y-114232680D01*
X116488596Y-114242039D01*
X116472583Y-114245217D01*
X116410816Y-114261194D01*
X116351803Y-114285776D01*
X116326364Y-114301768D01*
X116283872Y-114348434D01*
X116278510Y-114359515D01*
X116265260Y-114420398D01*
X116046888Y-114420398D01*
X116050765Y-114357160D01*
X116063987Y-114291098D01*
X116086592Y-114228701D01*
X116118910Y-114170923D01*
X116161271Y-114118715D01*
X116208496Y-114076089D01*
X116240837Y-114052992D01*
X116295032Y-114022027D01*
X116356049Y-113995478D01*
X116416012Y-113975588D01*
X116447976Y-113967154D01*
X116516178Y-113953661D01*
X116580531Y-113945544D01*
X116649248Y-113940871D01*
X116711621Y-113939606D01*
X116743209Y-113939922D01*
G37*
G36*
X161776814Y-111876542D02*
G01*
X161776814Y-112129966D01*
X161791844Y-112190668D01*
X161795115Y-112195726D01*
X161842884Y-112230157D01*
X162529641Y-112408825D01*
X162591524Y-112422939D01*
X162600984Y-112424955D01*
X162662386Y-112437556D01*
X162680392Y-112441085D01*
X162619353Y-112454142D01*
X162559331Y-112470453D01*
X162529641Y-112480168D01*
X161842884Y-112691097D01*
X161797286Y-112725527D01*
X161776894Y-112784778D01*
X161776814Y-112789426D01*
X161776814Y-112878761D01*
X161793171Y-112938993D01*
X161795425Y-112942039D01*
X161842884Y-112978641D01*
X162529331Y-113187708D01*
X162592403Y-113207951D01*
X162653130Y-113222958D01*
X162672948Y-113227102D01*
X162610886Y-113238900D01*
X162597262Y-113241681D01*
X162535304Y-113255991D01*
X162529331Y-113257501D01*
X161842884Y-113436169D01*
X161796666Y-113469980D01*
X161776891Y-113529848D01*
X161776814Y-113534499D01*
X161776814Y-113772103D01*
X163087050Y-113370099D01*
X163087050Y-113096823D01*
X162282731Y-112851774D01*
X162221796Y-112833081D01*
X162194637Y-112826029D01*
X162255108Y-112809209D01*
X162282731Y-112799973D01*
X163087050Y-112551822D01*
X163087050Y-112278546D01*
X161776814Y-111876542D01*
G37*
G36*
X163087050Y-114194270D02*
G01*
X162600054Y-114194270D01*
X162600054Y-114270886D01*
X162611531Y-114324549D01*
X162646892Y-114358359D01*
X163029354Y-114574561D01*
X163074372Y-114621906D01*
X163087050Y-114683747D01*
X163087050Y-114957023D01*
X162629522Y-114680025D01*
X162621747Y-114674819D01*
X162574928Y-114633496D01*
X162572052Y-114630260D01*
X162536465Y-114577352D01*
X162508936Y-114637141D01*
X162474738Y-114689330D01*
X162437079Y-114731646D01*
X162389126Y-114771530D01*
X162345453Y-114797696D01*
X162284592Y-114822091D01*
X162229876Y-114834336D01*
X162164239Y-114839151D01*
X162133396Y-114838148D01*
X162069637Y-114829091D01*
X162010075Y-114810614D01*
X161988347Y-114800848D01*
X161932503Y-114764478D01*
X161887241Y-114718798D01*
X161854126Y-114671182D01*
X161826437Y-114614917D01*
X161805971Y-114556259D01*
X161794610Y-114510708D01*
X161784103Y-114446298D01*
X161778636Y-114383523D01*
X161776814Y-114315553D01*
X162015038Y-114315553D01*
X162017985Y-114370205D01*
X162031660Y-114432878D01*
X162062187Y-114488328D01*
X162074546Y-114501414D01*
X162131080Y-114534947D01*
X162193086Y-114544162D01*
X162208593Y-114543726D01*
X162271254Y-114531755D01*
X162282368Y-114527499D01*
X162334532Y-114491430D01*
X162347308Y-114476638D01*
X162377028Y-114420397D01*
X162387418Y-114379108D01*
X162392227Y-114315553D01*
X162392227Y-114194270D01*
X162015038Y-114194270D01*
X162015038Y-114315553D01*
X161776814Y-114315553D01*
X161776814Y-113892146D01*
X163087050Y-113892146D01*
X163087050Y-114194270D01*
G37*
X161524950Y-111999820D02*
X161524950Y-114808000D01*
G36*
X195858899Y-110069074D02*
G01*
X195852617Y-110133348D01*
X195839047Y-110177640D01*
X195807059Y-110231535D01*
X195781352Y-110258289D01*
X195728014Y-110293597D01*
X195689846Y-110308850D01*
X195628298Y-110322645D01*
X195567011Y-110326530D01*
X194796814Y-110326530D01*
X194796814Y-110628344D01*
X195570424Y-110628344D01*
X195636402Y-110625252D01*
X195699289Y-110615977D01*
X195765537Y-110598420D01*
X195790968Y-110589260D01*
X195850891Y-110561755D01*
X195905422Y-110527707D01*
X195954562Y-110487116D01*
X195963742Y-110478212D01*
X196005957Y-110429982D01*
X196041871Y-110375632D01*
X196071484Y-110315164D01*
X196076651Y-110302336D01*
X196096144Y-110241998D01*
X196109257Y-110177538D01*
X196115991Y-110108956D01*
X196116976Y-110069074D01*
X196114455Y-110005582D01*
X196105595Y-109938094D01*
X196090355Y-109874776D01*
X196076651Y-109834882D01*
X196048298Y-109773189D01*
X196013644Y-109717616D01*
X195972689Y-109668161D01*
X195963742Y-109659005D01*
X195915681Y-109617135D01*
X195862228Y-109581870D01*
X195803384Y-109553208D01*
X195790968Y-109548268D01*
X195726246Y-109527984D01*
X195664733Y-109516152D01*
X195600129Y-109510405D01*
X195570424Y-109509804D01*
X194796814Y-109509804D01*
X194796814Y-109811928D01*
X195566081Y-109811928D01*
X195631220Y-109816270D01*
X195688916Y-109829298D01*
X195747431Y-109855393D01*
X195781041Y-109879549D01*
X195821439Y-109926731D01*
X195839047Y-109960508D01*
X195855622Y-110021827D01*
X195858899Y-110069074D01*
G37*
G36*
X195066057Y-111576279D02*
G01*
X195098317Y-111548052D01*
X195108863Y-111510209D01*
X195096145Y-111465852D01*
X195066988Y-111412500D01*
X195041373Y-111353739D01*
X195038140Y-111344258D01*
X195026143Y-111283359D01*
X195025112Y-111256475D01*
X195032059Y-111190632D01*
X195059172Y-111132868D01*
X195061404Y-111130228D01*
X195113209Y-111095523D01*
X195159114Y-111088663D01*
X195219253Y-111109044D01*
X195224253Y-111113478D01*
X195261585Y-111164546D01*
X195268920Y-111179238D01*
X195292145Y-111237514D01*
X195303351Y-111271985D01*
X195321977Y-111331646D01*
X195338092Y-111379000D01*
X195361887Y-111439632D01*
X195383380Y-111485704D01*
X195416957Y-111540949D01*
X195449450Y-111578761D01*
X195500060Y-111619470D01*
X195547159Y-111644211D01*
X195610515Y-111663055D01*
X195675748Y-111669238D01*
X195685814Y-111669336D01*
X195751855Y-111664930D01*
X195814581Y-111651713D01*
X195854556Y-111638007D01*
X195910623Y-111610541D01*
X195965061Y-111571827D01*
X195991659Y-111547122D01*
X196031906Y-111498761D01*
X196065174Y-111442549D01*
X196083475Y-111400713D01*
X196102548Y-111338179D01*
X196113017Y-111276432D01*
X196116943Y-111210021D01*
X196116976Y-111203123D01*
X196113474Y-111137913D01*
X196104568Y-111079358D01*
X196089601Y-111017397D01*
X196069517Y-110957454D01*
X196044779Y-110900224D01*
X196015854Y-110846406D01*
X195978701Y-110792448D01*
X195946682Y-110756451D01*
X195805546Y-110845786D01*
X195780111Y-110873703D01*
X195769875Y-110911856D01*
X195786935Y-110965829D01*
X195819335Y-111019060D01*
X195824468Y-111027556D01*
X195853257Y-111084960D01*
X195862001Y-111106654D01*
X195876395Y-111168668D01*
X195878751Y-111211808D01*
X195871804Y-111276727D01*
X195846854Y-111333763D01*
X195842459Y-111339606D01*
X195788282Y-111376476D01*
X195727689Y-111385203D01*
X195666855Y-111369868D01*
X195653554Y-111360078D01*
X195614727Y-111311649D01*
X195606095Y-111294628D01*
X195583265Y-111236486D01*
X195572905Y-111202192D01*
X195554867Y-111139694D01*
X195541266Y-111095798D01*
X195518921Y-111035264D01*
X195498150Y-110989403D01*
X195464431Y-110934660D01*
X195431149Y-110896967D01*
X195381208Y-110858170D01*
X195327546Y-110831207D01*
X195267470Y-110814243D01*
X195201797Y-110806998D01*
X195174003Y-110806392D01*
X195110602Y-110812032D01*
X195048507Y-110828953D01*
X195031006Y-110835860D01*
X194972847Y-110866928D01*
X194924052Y-110905240D01*
X194906620Y-110922402D01*
X194865898Y-110973225D01*
X194834761Y-111027591D01*
X194819457Y-111062607D01*
X194800914Y-111122619D01*
X194790068Y-111188348D01*
X194786888Y-111253063D01*
X194789601Y-111315796D01*
X194796503Y-111369694D01*
X194809917Y-111431689D01*
X194824420Y-111477329D01*
X194848777Y-111535333D01*
X194868467Y-111572247D01*
X194902927Y-111623937D01*
X194926162Y-111651345D01*
X195066057Y-111576279D01*
G37*
G36*
X194796814Y-112680550D02*
G01*
X195035038Y-112680550D01*
X195035038Y-112146096D01*
X195332819Y-112146096D01*
X195332819Y-112555234D01*
X195551192Y-112555234D01*
X195551192Y-112146096D01*
X195868825Y-112146096D01*
X195868825Y-112680550D01*
X196107050Y-112680550D01*
X196107050Y-111842421D01*
X194796814Y-111842421D01*
X194796814Y-112680550D01*
G37*
G36*
X196107050Y-113163203D02*
G01*
X195620054Y-113163203D01*
X195620054Y-113239820D01*
X195631531Y-113293482D01*
X195666892Y-113327293D01*
X196049354Y-113543494D01*
X196094372Y-113590840D01*
X196107050Y-113652681D01*
X196107050Y-113925957D01*
X195649522Y-113648958D01*
X195641747Y-113643753D01*
X195594928Y-113602430D01*
X195592052Y-113599194D01*
X195556465Y-113546286D01*
X195528936Y-113606075D01*
X195494738Y-113658264D01*
X195457079Y-113700580D01*
X195409126Y-113740464D01*
X195365453Y-113766630D01*
X195304592Y-113791025D01*
X195249876Y-113803270D01*
X195184239Y-113808085D01*
X195153396Y-113807082D01*
X195089637Y-113798025D01*
X195030075Y-113779548D01*
X195008347Y-113769782D01*
X194952503Y-113733412D01*
X194907241Y-113687732D01*
X194874126Y-113640116D01*
X194846437Y-113583850D01*
X194825971Y-113525193D01*
X194814610Y-113479642D01*
X194804103Y-113415231D01*
X194798636Y-113352457D01*
X194796814Y-113284487D01*
X195035038Y-113284487D01*
X195037985Y-113339138D01*
X195051660Y-113401812D01*
X195082187Y-113457262D01*
X195094546Y-113470348D01*
X195151080Y-113503881D01*
X195213086Y-113513096D01*
X195228593Y-113512660D01*
X195291254Y-113500688D01*
X195302368Y-113496432D01*
X195354532Y-113460364D01*
X195367308Y-113445572D01*
X195397028Y-113389331D01*
X195407418Y-113348042D01*
X195412227Y-113284487D01*
X195412227Y-113163203D01*
X195035038Y-113163203D01*
X195035038Y-113284487D01*
X194796814Y-113284487D01*
X194796814Y-112861080D01*
X196107050Y-112861080D01*
X196107050Y-113163203D01*
G37*
G36*
X195899223Y-114101213D02*
G01*
X195899223Y-114351535D01*
X195244726Y-114351535D01*
X195179752Y-114352737D01*
X195144225Y-114354327D01*
X195266439Y-114206677D01*
X195284740Y-114167904D01*
X195284740Y-114131612D01*
X195273263Y-114101213D01*
X195255892Y-114081671D01*
X195139572Y-113994198D01*
X194796814Y-114399614D01*
X194796814Y-114628533D01*
X195899223Y-114628533D01*
X195899223Y-114842874D01*
X196107050Y-114842874D01*
X196107050Y-114101213D01*
X195899223Y-114101213D01*
G37*
D13*
G36*
X193129840Y-69322629D02*
G01*
X193144245Y-69329599D01*
X193204910Y-69384839D01*
X193225700Y-69417910D01*
X193257658Y-69494627D01*
X193278427Y-69574924D01*
X193282558Y-69595741D01*
X193294726Y-69680942D01*
X193300925Y-69761922D01*
X193303742Y-69853045D01*
X193303930Y-69885674D01*
X193302594Y-69970507D01*
X193297898Y-70056183D01*
X193288715Y-70139258D01*
X193282558Y-70176010D01*
X193262864Y-70259634D01*
X193234351Y-70336773D01*
X193225700Y-70353841D01*
X193177248Y-70419085D01*
X193144245Y-70442958D01*
X193065522Y-70466169D01*
X193050692Y-70466750D01*
X192971257Y-70449812D01*
X192956736Y-70442958D01*
X192895074Y-70387139D01*
X192873668Y-70353841D01*
X192840702Y-70276721D01*
X192819411Y-70196690D01*
X192815197Y-70176010D01*
X192802570Y-70090944D01*
X192796137Y-70009861D01*
X192793365Y-69929111D01*
X192793019Y-69885674D01*
X192794405Y-69801169D01*
X192799278Y-69715681D01*
X192808808Y-69632590D01*
X192815197Y-69595741D01*
X192835352Y-69511728D01*
X192864727Y-69434802D01*
X192873668Y-69417910D01*
X192923317Y-69353170D01*
X192956736Y-69329599D01*
X193035852Y-69305995D01*
X193050692Y-69305404D01*
X193129840Y-69322629D01*
G37*
G36*
X194469892Y-69998075D02*
G01*
X194499954Y-70007857D01*
X194567931Y-70054640D01*
X194571329Y-70058666D01*
X194608117Y-70131203D01*
X194609637Y-70136896D01*
X194620920Y-70217986D01*
X194621331Y-70238513D01*
X194611858Y-70319660D01*
X194608024Y-70333679D01*
X194569558Y-70406169D01*
X194566087Y-70410296D01*
X194499291Y-70459087D01*
X194493906Y-70461508D01*
X194415029Y-70479553D01*
X194389062Y-70480460D01*
X194307632Y-70469799D01*
X194284622Y-70461508D01*
X194217472Y-70416227D01*
X194212038Y-70410296D01*
X194171823Y-70339129D01*
X194170100Y-70333679D01*
X194157001Y-70251115D01*
X194156793Y-70238513D01*
X194163931Y-70157470D01*
X194168487Y-70136896D01*
X194203480Y-70062752D01*
X194206795Y-70058666D01*
X194272646Y-70010182D01*
X194278170Y-70007857D01*
X194357181Y-69990467D01*
X194389062Y-69989308D01*
X194469892Y-69998075D01*
G37*
G36*
X194471053Y-69304661D02*
G01*
X194480599Y-69308630D01*
X194541489Y-69353391D01*
X194575765Y-69417507D01*
X194586249Y-69492510D01*
X194578680Y-69573837D01*
X194578184Y-69576385D01*
X194547941Y-69648969D01*
X194487454Y-69699778D01*
X194407307Y-69718661D01*
X194389062Y-69719134D01*
X194308088Y-69707320D01*
X194290267Y-69699778D01*
X194229780Y-69648969D01*
X194199537Y-69576385D01*
X194191480Y-69495204D01*
X194191472Y-69492510D01*
X194201956Y-69417507D01*
X194236232Y-69353391D01*
X194297929Y-69308630D01*
X194379148Y-69291843D01*
X194389062Y-69291694D01*
X194471053Y-69304661D01*
G37*
G36*
X184784574Y-69834462D02*
G01*
X184626905Y-69834462D01*
X184544284Y-69828210D01*
X184490609Y-69814703D01*
X184417495Y-69776067D01*
X184398265Y-69759458D01*
X184351376Y-69691645D01*
X184345844Y-69677196D01*
X184330281Y-69595738D01*
X184329714Y-69575579D01*
X184341693Y-69494970D01*
X184385286Y-69421476D01*
X184402298Y-69405409D01*
X184474383Y-69365724D01*
X184555859Y-69347947D01*
X184626905Y-69344116D01*
X184784574Y-69344116D01*
X184784574Y-69834462D01*
G37*
G36*
X196619781Y-70934078D02*
G01*
X181094512Y-70934078D01*
X181094512Y-70190124D01*
X181277956Y-70190124D01*
X181283683Y-70275977D01*
X181300865Y-70357521D01*
X181318684Y-70409489D01*
X181354390Y-70482376D01*
X181404718Y-70553145D01*
X181436835Y-70587723D01*
X181499703Y-70640044D01*
X181572779Y-70683292D01*
X181627166Y-70707084D01*
X181708460Y-70731879D01*
X181788731Y-70745488D01*
X181875066Y-70750592D01*
X181884033Y-70750634D01*
X181968806Y-70746082D01*
X182044928Y-70734505D01*
X182125476Y-70715048D01*
X182203403Y-70688938D01*
X182277802Y-70656779D01*
X182347765Y-70619176D01*
X182417911Y-70570877D01*
X182464706Y-70529253D01*
X182348571Y-70345776D01*
X182312279Y-70312710D01*
X182262680Y-70299403D01*
X182192516Y-70321582D01*
X182123315Y-70363702D01*
X182112270Y-70370374D01*
X182037644Y-70407801D01*
X182009442Y-70419167D01*
X181928825Y-70437880D01*
X181872742Y-70440942D01*
X181788348Y-70431912D01*
X181714201Y-70399476D01*
X181706605Y-70393763D01*
X181658674Y-70323333D01*
X181647328Y-70244562D01*
X181667264Y-70165478D01*
X181679991Y-70148186D01*
X181742949Y-70097712D01*
X181765076Y-70086490D01*
X181840661Y-70056810D01*
X181885243Y-70043343D01*
X181966491Y-70019894D01*
X182023556Y-70002212D01*
X182102250Y-69973164D01*
X182161869Y-69946161D01*
X182233035Y-69902327D01*
X182282036Y-69859060D01*
X182332472Y-69794137D01*
X182367524Y-69724376D01*
X182389576Y-69646277D01*
X182398996Y-69560902D01*
X182399784Y-69524770D01*
X182392451Y-69442349D01*
X182370454Y-69361626D01*
X182363544Y-69344116D01*
X182568340Y-69344116D01*
X183263131Y-69344116D01*
X183263131Y-69731231D01*
X182731251Y-69731231D01*
X182731251Y-70015116D01*
X183263131Y-70015116D01*
X183263131Y-70428038D01*
X182568340Y-70428038D01*
X182568340Y-70737731D01*
X183657908Y-70737731D01*
X183792995Y-70737731D01*
X184148254Y-70737731D01*
X184228647Y-70721250D01*
X184290196Y-70662727D01*
X184571258Y-70165526D01*
X184615211Y-70119556D01*
X184684973Y-70104636D01*
X184784574Y-70104636D01*
X184784574Y-70737731D01*
X185177335Y-70737731D01*
X186635468Y-70737731D01*
X186986291Y-70737731D01*
X187043956Y-70733295D01*
X187085086Y-70719181D01*
X187115330Y-70696600D01*
X187139525Y-70665550D01*
X187523010Y-70074393D01*
X187575836Y-70028423D01*
X187655413Y-70015168D01*
X187662130Y-70015116D01*
X187757296Y-70015116D01*
X187757296Y-70737731D01*
X188150056Y-70737731D01*
X188150056Y-70428038D01*
X188343211Y-70428038D01*
X188343211Y-70737731D01*
X189363017Y-70737731D01*
X189363017Y-70474412D01*
X189526735Y-70474412D01*
X189581173Y-70538754D01*
X189642063Y-70594679D01*
X189709405Y-70642187D01*
X189783198Y-70681276D01*
X189863545Y-70711620D01*
X189950948Y-70733295D01*
X190033215Y-70745148D01*
X190120885Y-70750363D01*
X190146925Y-70750634D01*
X190229344Y-70747508D01*
X190318858Y-70736281D01*
X190403382Y-70716887D01*
X190482915Y-70689328D01*
X190492506Y-70685309D01*
X190566023Y-70649344D01*
X190641800Y-70601473D01*
X190710241Y-70545756D01*
X190751793Y-70504252D01*
X190807556Y-70435772D01*
X190855537Y-70360530D01*
X190891653Y-70287971D01*
X190914704Y-70230045D01*
X190939579Y-70148942D01*
X190957347Y-70064513D01*
X190968008Y-69976757D01*
X190971561Y-69885674D01*
X190969281Y-69822364D01*
X191133262Y-69822364D01*
X191133262Y-70092539D01*
X191563122Y-70092539D01*
X191563122Y-70557077D01*
X191855474Y-70557077D01*
X191855474Y-70092539D01*
X192282914Y-70092539D01*
X192282914Y-69885674D01*
X192421227Y-69885674D01*
X192422914Y-69966759D01*
X192429146Y-70056091D01*
X192439971Y-70139750D01*
X192457966Y-70228413D01*
X192469213Y-70269966D01*
X192495298Y-70347742D01*
X192530126Y-70426926D01*
X192570760Y-70497305D01*
X192601074Y-70539334D01*
X192656607Y-70600805D01*
X192724879Y-70656143D01*
X192800680Y-70698616D01*
X192882255Y-70728232D01*
X192968405Y-70745554D01*
X193050692Y-70750634D01*
X193132901Y-70745554D01*
X193218781Y-70728232D01*
X193299898Y-70698616D01*
X193375010Y-70656143D01*
X193442879Y-70600805D01*
X193498294Y-70539334D01*
X193546920Y-70467112D01*
X193584622Y-70392820D01*
X193616583Y-70309724D01*
X193628945Y-70269966D01*
X193634870Y-70245368D01*
X193785001Y-70245368D01*
X193791125Y-70328311D01*
X193811582Y-70411510D01*
X193828552Y-70453443D01*
X193869926Y-70524668D01*
X193923280Y-70586975D01*
X193951945Y-70612725D01*
X194021813Y-70661271D01*
X194095758Y-70697459D01*
X194143083Y-70714746D01*
X194222362Y-70735178D01*
X194307169Y-70747130D01*
X194389062Y-70750634D01*
X194470995Y-70747130D01*
X194555936Y-70735178D01*
X194635445Y-70714746D01*
X194714437Y-70683387D01*
X194789901Y-70640072D01*
X194826180Y-70612725D01*
X194884801Y-70554533D01*
X194931576Y-70487424D01*
X194949169Y-70453443D01*
X194977367Y-70373970D01*
X194991189Y-70287577D01*
X194992720Y-70245368D01*
X194986577Y-70162514D01*
X194976993Y-70115524D01*
X194948537Y-70039591D01*
X194927394Y-70003421D01*
X194873898Y-69941597D01*
X194839083Y-69913095D01*
X194766956Y-69870574D01*
X194708432Y-69846559D01*
X194781223Y-69806031D01*
X194844545Y-69750951D01*
X194881021Y-69702197D01*
X194915177Y-69627723D01*
X194933569Y-69542815D01*
X194937072Y-69480413D01*
X194929276Y-69397176D01*
X194905890Y-69319650D01*
X194896344Y-69298549D01*
X194854533Y-69229481D01*
X194806923Y-69176366D01*
X195105628Y-69176366D01*
X195115709Y-69236046D01*
X195142727Y-69290484D01*
X195937119Y-70428038D01*
X195131033Y-70428038D01*
X195131033Y-70737731D01*
X196436337Y-70737731D01*
X196436337Y-70586514D01*
X196427062Y-70533285D01*
X196401658Y-70484896D01*
X195604846Y-69344116D01*
X196371414Y-69344116D01*
X196371414Y-69034424D01*
X195105628Y-69034424D01*
X195105628Y-69176366D01*
X194806923Y-69176366D01*
X194800372Y-69169057D01*
X194782629Y-69153381D01*
X194713241Y-69104766D01*
X194639548Y-69068609D01*
X194608831Y-69057006D01*
X194530859Y-69035382D01*
X194447558Y-69023738D01*
X194389062Y-69021520D01*
X194301961Y-69026510D01*
X194220304Y-69041481D01*
X194168890Y-69057006D01*
X194091834Y-69089836D01*
X194018973Y-69134867D01*
X193995495Y-69153381D01*
X193937530Y-69211335D01*
X193889300Y-69283021D01*
X193881377Y-69298549D01*
X193853535Y-69374443D01*
X193841285Y-69456048D01*
X193840649Y-69480413D01*
X193841610Y-69492510D01*
X193847367Y-69565020D01*
X193870022Y-69647320D01*
X193897507Y-69702197D01*
X193948372Y-69765784D01*
X194015682Y-69818030D01*
X194069692Y-69846559D01*
X193995403Y-69878793D01*
X193940250Y-69913095D01*
X193877839Y-69969825D01*
X193851940Y-70003421D01*
X193813387Y-70078239D01*
X193801534Y-70115524D01*
X193787326Y-70194975D01*
X193785317Y-70238513D01*
X193785001Y-70245368D01*
X193634870Y-70245368D01*
X193649410Y-70185008D01*
X193662520Y-70104591D01*
X193671154Y-70018501D01*
X193675311Y-69926738D01*
X193675722Y-69885674D01*
X193674077Y-69804589D01*
X193668002Y-69715257D01*
X193657450Y-69631598D01*
X193639909Y-69542935D01*
X193628945Y-69501382D01*
X193603087Y-69423429D01*
X193568574Y-69344108D01*
X193528320Y-69273654D01*
X193498294Y-69231611D01*
X193442879Y-69170218D01*
X193375010Y-69115149D01*
X193299898Y-69073135D01*
X193218781Y-69043749D01*
X193132901Y-69026561D01*
X193050692Y-69021520D01*
X192968405Y-69026561D01*
X192882255Y-69043749D01*
X192800680Y-69073135D01*
X192724879Y-69115149D01*
X192656607Y-69170218D01*
X192601074Y-69231611D01*
X192551984Y-69303872D01*
X192513930Y-69378267D01*
X192481682Y-69461530D01*
X192469213Y-69501382D01*
X192448219Y-69586340D01*
X192434770Y-69666757D01*
X192425913Y-69752847D01*
X192421649Y-69844610D01*
X192421227Y-69885674D01*
X192282914Y-69885674D01*
X192282914Y-69822364D01*
X191855474Y-69822364D01*
X191855474Y-69369924D01*
X191563122Y-69369924D01*
X191563122Y-69822364D01*
X191133262Y-69822364D01*
X190969281Y-69822364D01*
X190968628Y-69804242D01*
X190958093Y-69714817D01*
X190939897Y-69629272D01*
X190914039Y-69547609D01*
X190910268Y-69537674D01*
X190876320Y-69461158D01*
X190836172Y-69390086D01*
X190783594Y-69316637D01*
X190737276Y-69264273D01*
X190670969Y-69203679D01*
X190597707Y-69151187D01*
X190526749Y-69111329D01*
X190469925Y-69085636D01*
X190390132Y-69057585D01*
X190306409Y-69037549D01*
X190218753Y-69025527D01*
X190127166Y-69021520D01*
X190046057Y-69024916D01*
X189963951Y-69036092D01*
X189948126Y-69039263D01*
X189866670Y-69059929D01*
X189790860Y-69087249D01*
X189716297Y-69123453D01*
X189656176Y-69161446D01*
X189591106Y-69212411D01*
X189546494Y-69255402D01*
X189679161Y-69433233D01*
X189709405Y-69463073D01*
X189758197Y-69476380D01*
X189797715Y-69467509D01*
X189837233Y-69445330D01*
X189882800Y-69416700D01*
X189942077Y-69388473D01*
X190022323Y-69366294D01*
X190103503Y-69357464D01*
X190129586Y-69357020D01*
X190211731Y-69363812D01*
X190292550Y-69386164D01*
X190307820Y-69392505D01*
X190378644Y-69432572D01*
X190439899Y-69486992D01*
X190447343Y-69495333D01*
X190496400Y-69565288D01*
X190531794Y-69642891D01*
X190538073Y-69661067D01*
X190558699Y-69745274D01*
X190568405Y-69831156D01*
X190569929Y-69884867D01*
X190565736Y-69969089D01*
X190551597Y-70053251D01*
X190534444Y-70111088D01*
X190501419Y-70185973D01*
X190456476Y-70255306D01*
X190438068Y-70277225D01*
X190376465Y-70333358D01*
X190305824Y-70375492D01*
X190295723Y-70380052D01*
X190216877Y-70405233D01*
X190133070Y-70414998D01*
X190121521Y-70415135D01*
X190038301Y-70411690D01*
X190024339Y-70410296D01*
X189944074Y-70393705D01*
X189941674Y-70392956D01*
X189869896Y-70361100D01*
X189803133Y-70312599D01*
X189800941Y-70310694D01*
X189771101Y-70292145D01*
X189737228Y-70284483D01*
X189709405Y-70289725D01*
X189682387Y-70308275D01*
X189526735Y-70474412D01*
X189363017Y-70474412D01*
X189363017Y-69034424D01*
X188970257Y-69034424D01*
X188970257Y-70428038D01*
X188343211Y-70428038D01*
X188150056Y-70428038D01*
X188150056Y-69034424D01*
X187757296Y-69034424D01*
X187757296Y-69731231D01*
X187694793Y-69731231D01*
X187612243Y-69713624D01*
X187569384Y-69675583D01*
X187188317Y-69113460D01*
X187128106Y-69057735D01*
X187116136Y-69051763D01*
X187036638Y-69034847D01*
X187018954Y-69034424D01*
X186677406Y-69034424D01*
X187179043Y-69729215D01*
X187234590Y-69791315D01*
X187293967Y-69833252D01*
X187220925Y-69873085D01*
X187214125Y-69878416D01*
X187158611Y-69937042D01*
X187146783Y-69953822D01*
X186635468Y-70737731D01*
X185177335Y-70737731D01*
X185177335Y-69822364D01*
X185432992Y-69822364D01*
X185432992Y-70092539D01*
X185862851Y-70092539D01*
X185862851Y-70557077D01*
X186155204Y-70557077D01*
X186155204Y-70092539D01*
X186582643Y-70092539D01*
X186582643Y-69822364D01*
X186155204Y-69822364D01*
X186155204Y-69369924D01*
X185862851Y-69369924D01*
X185862851Y-69822364D01*
X185432992Y-69822364D01*
X185177335Y-69822364D01*
X185177335Y-69034424D01*
X184626905Y-69034424D01*
X184538544Y-69036793D01*
X184456938Y-69043900D01*
X184373204Y-69057559D01*
X184313987Y-69072329D01*
X184237733Y-69098934D01*
X184164587Y-69134930D01*
X184102687Y-69177979D01*
X184043303Y-69236821D01*
X183996022Y-69309417D01*
X183983326Y-69337664D01*
X183959307Y-69415094D01*
X183947532Y-69497981D01*
X183946228Y-69538077D01*
X183948979Y-69575579D01*
X183952487Y-69623405D01*
X183968406Y-69694536D01*
X184000119Y-69773655D01*
X184034135Y-69830429D01*
X184085984Y-69892769D01*
X184140995Y-69941725D01*
X184208841Y-69986183D01*
X184286567Y-70021971D01*
X184217787Y-70068234D01*
X184213579Y-70071973D01*
X184159859Y-70132838D01*
X184153093Y-70142944D01*
X183792995Y-70737731D01*
X183657908Y-70737731D01*
X183657908Y-69034424D01*
X182568340Y-69034424D01*
X182568340Y-69344116D01*
X182363544Y-69344116D01*
X182361475Y-69338874D01*
X182321086Y-69263267D01*
X182271280Y-69199833D01*
X182248970Y-69177173D01*
X182182900Y-69124234D01*
X182112225Y-69083755D01*
X182066703Y-69063861D01*
X181988689Y-69039755D01*
X181903241Y-69025655D01*
X181819111Y-69021520D01*
X181737558Y-69025048D01*
X181667491Y-69034021D01*
X181586897Y-69051458D01*
X181527565Y-69070313D01*
X181452160Y-69101977D01*
X181404172Y-69127573D01*
X181336975Y-69172371D01*
X181301344Y-69202577D01*
X181398930Y-69384440D01*
X181435625Y-69426378D01*
X181484821Y-69440088D01*
X181542485Y-69423555D01*
X181611843Y-69385650D01*
X181688233Y-69352351D01*
X181700557Y-69348148D01*
X181779726Y-69332552D01*
X181814675Y-69331212D01*
X181900272Y-69340243D01*
X181975364Y-69375489D01*
X181978796Y-69378392D01*
X182023913Y-69445738D01*
X182032831Y-69505414D01*
X182006336Y-69583595D01*
X182000571Y-69590095D01*
X181934184Y-69638627D01*
X181915083Y-69648163D01*
X181839325Y-69678355D01*
X181794513Y-69692923D01*
X181716953Y-69717136D01*
X181655393Y-69738086D01*
X181576572Y-69769020D01*
X181516677Y-69796960D01*
X181444859Y-69840610D01*
X181395704Y-69882851D01*
X181342782Y-69948645D01*
X181310619Y-70009873D01*
X181286122Y-70092236D01*
X181278084Y-70177039D01*
X181277956Y-70190124D01*
X181094512Y-70190124D01*
X181094512Y-68838076D01*
X196619781Y-68838076D01*
X196619781Y-70934078D01*
G37*
D11*
G36*
X142767050Y-112853326D02*
G01*
X142767030Y-112855660D01*
X142746577Y-112916294D01*
X142700669Y-112951655D01*
X142469269Y-113028582D01*
X142469269Y-113523333D01*
X142700669Y-113600259D01*
X142748438Y-113636862D01*
X142750692Y-113639945D01*
X142767050Y-113700450D01*
X142767050Y-113934332D01*
X141456814Y-113430586D01*
X141456814Y-113275182D01*
X141726988Y-113275182D01*
X141765955Y-113286581D01*
X141826248Y-113305580D01*
X141845754Y-113312141D01*
X141905966Y-113334118D01*
X142261442Y-113453850D01*
X142261442Y-113098374D01*
X141907828Y-113217797D01*
X141887828Y-113225548D01*
X141827799Y-113246024D01*
X141788715Y-113258019D01*
X141726988Y-113275182D01*
X141456814Y-113275182D01*
X141456814Y-113121328D01*
X142767050Y-112617582D01*
X142767050Y-112853326D01*
G37*
G36*
X142143209Y-113939922D02*
G01*
X142213796Y-113943119D01*
X142280019Y-113949760D01*
X142341878Y-113959845D01*
X142407231Y-113975587D01*
X142437814Y-113985096D01*
X142501734Y-114009682D01*
X142558882Y-114038684D01*
X142614437Y-114076088D01*
X142661722Y-114118715D01*
X142704290Y-114170922D01*
X142736961Y-114228701D01*
X142759743Y-114291098D01*
X142773068Y-114357160D01*
X142776976Y-114420397D01*
X142773068Y-114483695D01*
X142759743Y-114549964D01*
X142736961Y-114612714D01*
X142704290Y-114671023D01*
X142661722Y-114723540D01*
X142614437Y-114766258D01*
X142582107Y-114789576D01*
X142527969Y-114820833D01*
X142467059Y-114847624D01*
X142407231Y-114867689D01*
X142375267Y-114876340D01*
X142307064Y-114890183D01*
X142242711Y-114898510D01*
X142173995Y-114903304D01*
X142111621Y-114904602D01*
X142080034Y-114904277D01*
X142009447Y-114900997D01*
X141943224Y-114894184D01*
X141881365Y-114883838D01*
X141816012Y-114867689D01*
X141785356Y-114858098D01*
X141721308Y-114833291D01*
X141664081Y-114804019D01*
X141608496Y-114766258D01*
X141561271Y-114723540D01*
X141518910Y-114671023D01*
X141486592Y-114612714D01*
X141463987Y-114549964D01*
X141450765Y-114483695D01*
X141446888Y-114420397D01*
X141665260Y-114420397D01*
X141665715Y-114431813D01*
X141683872Y-114492671D01*
X141702003Y-114518378D01*
X141751803Y-114556570D01*
X141764797Y-114563448D01*
X141823970Y-114586044D01*
X141888596Y-114601547D01*
X141916941Y-114606462D01*
X141980857Y-114613793D01*
X142046618Y-114617542D01*
X142111621Y-114618608D01*
X142145034Y-114618341D01*
X142207150Y-114616209D01*
X142269521Y-114611261D01*
X142334957Y-114601547D01*
X142350865Y-114598306D01*
X142412427Y-114581928D01*
X142471750Y-114556570D01*
X142497363Y-114540104D01*
X142540302Y-114492671D01*
X142545574Y-114481501D01*
X142558603Y-114420397D01*
X142558156Y-114408990D01*
X142540302Y-114348434D01*
X142521938Y-114323047D01*
X142471750Y-114285776D01*
X142458620Y-114279121D01*
X142399283Y-114257188D01*
X142334957Y-114242039D01*
X142306686Y-114237303D01*
X142242782Y-114230239D01*
X142176877Y-114226627D01*
X142111621Y-114225599D01*
X142086522Y-114225744D01*
X142016427Y-114227911D01*
X141954135Y-114232679D01*
X141888596Y-114242039D01*
X141872583Y-114245217D01*
X141810816Y-114261193D01*
X141751803Y-114285776D01*
X141726364Y-114301768D01*
X141683872Y-114348434D01*
X141678510Y-114359514D01*
X141665260Y-114420397D01*
X141446888Y-114420397D01*
X141450765Y-114357160D01*
X141463987Y-114291098D01*
X141486592Y-114228701D01*
X141518910Y-114170922D01*
X141561271Y-114118715D01*
X141608496Y-114076088D01*
X141640837Y-114052991D01*
X141695032Y-114022026D01*
X141756049Y-113995478D01*
X141816012Y-113975587D01*
X141847976Y-113967154D01*
X141916178Y-113953661D01*
X141980531Y-113945544D01*
X142049248Y-113940870D01*
X142111621Y-113939605D01*
X142143209Y-113939922D01*
G37*
G36*
X104288442Y-112422784D02*
G01*
X103932966Y-112303052D01*
X103872754Y-112281075D01*
X103853248Y-112274514D01*
X103792955Y-112255515D01*
X103753988Y-112244116D01*
X103815715Y-112226953D01*
X103854799Y-112214958D01*
X103914828Y-112194482D01*
X103934828Y-112186731D01*
X104288442Y-112067308D01*
X104288442Y-112422784D01*
G37*
G36*
X104945087Y-115000115D02*
G01*
X103342703Y-115000115D01*
X103342703Y-114144330D01*
X103483814Y-114144330D01*
X103483814Y-114810615D01*
X103595792Y-114810615D01*
X103646973Y-114801619D01*
X103686677Y-114773702D01*
X103713043Y-114723142D01*
X103721819Y-114661441D01*
X103722038Y-114648076D01*
X103722038Y-114337267D01*
X103933277Y-114300665D01*
X103924490Y-114362582D01*
X103923661Y-114371078D01*
X103920571Y-114433146D01*
X103920559Y-114437148D01*
X103923679Y-114499119D01*
X103934318Y-114561759D01*
X103952508Y-114618608D01*
X103982055Y-114678276D01*
X104019280Y-114729753D01*
X104039051Y-114750748D01*
X104090560Y-114792657D01*
X104145089Y-114822534D01*
X104167779Y-114831708D01*
X104229502Y-114849381D01*
X104294707Y-114858045D01*
X104325975Y-114859004D01*
X104390460Y-114855369D01*
X104457196Y-114842974D01*
X104519533Y-114821782D01*
X104576848Y-114792922D01*
X104628519Y-114757099D01*
X104670595Y-114718489D01*
X104710940Y-114670060D01*
X104744541Y-114615620D01*
X104769234Y-114560913D01*
X104789014Y-114495950D01*
X104799870Y-114433331D01*
X104803942Y-114367319D01*
X104803976Y-114360531D01*
X104800796Y-114298416D01*
X104791258Y-114239248D01*
X104773755Y-114176849D01*
X104756207Y-114131302D01*
X104727648Y-114073995D01*
X104705336Y-114037935D01*
X104667822Y-113987457D01*
X104643918Y-113960078D01*
X104526357Y-114046000D01*
X104498440Y-114077019D01*
X104488824Y-114115793D01*
X104504334Y-114166043D01*
X104537834Y-114217845D01*
X104566943Y-114274367D01*
X104570714Y-114283605D01*
X104584425Y-114346852D01*
X104585603Y-114376661D01*
X104578091Y-114439499D01*
X104566371Y-114471269D01*
X104529847Y-114521984D01*
X104514260Y-114535167D01*
X104458193Y-114564422D01*
X104436712Y-114570839D01*
X104372656Y-114580915D01*
X104341795Y-114582006D01*
X104279161Y-114575665D01*
X104219600Y-114551821D01*
X104190733Y-114528343D01*
X104155322Y-114472898D01*
X104140753Y-114411859D01*
X104138932Y-114376661D01*
X104143861Y-114311391D01*
X104158648Y-114247254D01*
X104173983Y-114205127D01*
X104125593Y-114033593D01*
X103483814Y-114144330D01*
X103342703Y-114144330D01*
X103342703Y-113368549D01*
X103483814Y-113368549D01*
X103483814Y-113597468D01*
X104586223Y-113597468D01*
X104586223Y-113811808D01*
X104794050Y-113811808D01*
X104794050Y-113070148D01*
X104586223Y-113070148D01*
X104586223Y-113320470D01*
X103931726Y-113320470D01*
X103866752Y-113321672D01*
X103831225Y-113323261D01*
X103953439Y-113175612D01*
X103971740Y-113136838D01*
X103971740Y-113100546D01*
X103960263Y-113070148D01*
X103942892Y-113050606D01*
X103826572Y-112963133D01*
X103483814Y-113368549D01*
X103342703Y-113368549D01*
X103342703Y-112090262D01*
X103483814Y-112090262D01*
X103483814Y-112244116D01*
X103483814Y-112399520D01*
X104794050Y-112903266D01*
X104794050Y-112669384D01*
X104777692Y-112608879D01*
X104775438Y-112605796D01*
X104727669Y-112569193D01*
X104496269Y-112492267D01*
X104496269Y-111997516D01*
X104727669Y-111920589D01*
X104773577Y-111885228D01*
X104794030Y-111824594D01*
X104794050Y-111822260D01*
X104794050Y-111586516D01*
X103483814Y-112090262D01*
X103342703Y-112090262D01*
X103342703Y-111445405D01*
X104945087Y-111445405D01*
X104945087Y-115000115D01*
G37*
G36*
X168167050Y-110770100D02*
G01*
X168167050Y-110466426D01*
X166856814Y-110466426D01*
X166856814Y-110770100D01*
X168167050Y-110770100D01*
G37*
G36*
X167580968Y-110946540D02*
G01*
X167647872Y-110955671D01*
X167712333Y-110970889D01*
X167774351Y-110992195D01*
X167833035Y-111019046D01*
X167887802Y-111050899D01*
X167938654Y-111087753D01*
X167985589Y-111129609D01*
X168027988Y-111176370D01*
X168065540Y-111227628D01*
X168098246Y-111283385D01*
X168126105Y-111343639D01*
X168132265Y-111359406D01*
X168152931Y-111424536D01*
X168167239Y-111492962D01*
X168174541Y-111555538D01*
X168176976Y-111620637D01*
X168176777Y-111639528D01*
X168172952Y-111703949D01*
X168164258Y-111765728D01*
X168148361Y-111833097D01*
X168126105Y-111897015D01*
X168098246Y-111957095D01*
X168065540Y-112012638D01*
X168027988Y-112063644D01*
X167985589Y-112110114D01*
X167938654Y-112151951D01*
X167887802Y-112188747D01*
X167833035Y-112220503D01*
X167774351Y-112247218D01*
X167712333Y-112268524D01*
X167647872Y-112283742D01*
X167580968Y-112292874D01*
X167511621Y-112295917D01*
X167442566Y-112292874D01*
X167375914Y-112283742D01*
X167311666Y-112268524D01*
X167249822Y-112247218D01*
X167191042Y-112220503D01*
X167136293Y-112188747D01*
X167085578Y-112151951D01*
X167038894Y-112110114D01*
X166996612Y-112063644D01*
X166959098Y-112012638D01*
X166926354Y-111957095D01*
X166898379Y-111897015D01*
X166892144Y-111881359D01*
X166871225Y-111816578D01*
X166856743Y-111748346D01*
X166849352Y-111685813D01*
X166846888Y-111620637D01*
X167104964Y-111620637D01*
X167105654Y-111647309D01*
X167113896Y-111712261D01*
X167133192Y-111775111D01*
X167138641Y-111787663D01*
X167169769Y-111841335D01*
X167213530Y-111889881D01*
X167230480Y-111904069D01*
X167283983Y-111937996D01*
X167341638Y-111961844D01*
X167385708Y-111973990D01*
X167449125Y-111984001D01*
X167511932Y-111986970D01*
X167552780Y-111985767D01*
X167618384Y-111978112D01*
X167683156Y-111961844D01*
X167701714Y-111955292D01*
X167760941Y-111926861D01*
X167811263Y-111889881D01*
X167820874Y-111880913D01*
X167862386Y-111830513D01*
X167891292Y-111775111D01*
X167902049Y-111744606D01*
X167915017Y-111683072D01*
X167918899Y-111620637D01*
X167918225Y-111593764D01*
X167910164Y-111528217D01*
X167891292Y-111464612D01*
X167885898Y-111452005D01*
X167854956Y-111398146D01*
X167811263Y-111349532D01*
X167794314Y-111335426D01*
X167740811Y-111301567D01*
X167683156Y-111277569D01*
X167639012Y-111265573D01*
X167575268Y-111255686D01*
X167511932Y-111252754D01*
X167471446Y-111253941D01*
X167406256Y-111261502D01*
X167341638Y-111277569D01*
X167323080Y-111284189D01*
X167263852Y-111312705D01*
X167213530Y-111349532D01*
X167203917Y-111358503D01*
X167162309Y-111408998D01*
X167133192Y-111464612D01*
X167122193Y-111495509D01*
X167108934Y-111557693D01*
X167104964Y-111620637D01*
X166846888Y-111620637D01*
X166847086Y-111601780D01*
X166850912Y-111537401D01*
X166859605Y-111475546D01*
X166875502Y-111407945D01*
X166897759Y-111343639D01*
X166925598Y-111283385D01*
X166958245Y-111227628D01*
X166995700Y-111176370D01*
X167037964Y-111129609D01*
X167084647Y-111087753D01*
X167135363Y-111050899D01*
X167190111Y-111019046D01*
X167248892Y-110992195D01*
X167310910Y-110970889D01*
X167375371Y-110955671D01*
X167442275Y-110946540D01*
X167511621Y-110943496D01*
X167580968Y-110946540D01*
G37*
G36*
X168167050Y-112768644D02*
G01*
X167680054Y-112768644D01*
X167680054Y-112845261D01*
X167691531Y-112898924D01*
X167726892Y-112932734D01*
X168109354Y-113148935D01*
X168154372Y-113196281D01*
X168167050Y-113258122D01*
X168167050Y-113531398D01*
X167709522Y-113254399D01*
X167701747Y-113249194D01*
X167654928Y-113207871D01*
X167652052Y-113204635D01*
X167616465Y-113151727D01*
X167588936Y-113211516D01*
X167554738Y-113263705D01*
X167517079Y-113306021D01*
X167469126Y-113345905D01*
X167425453Y-113372071D01*
X167364592Y-113396466D01*
X167309876Y-113408711D01*
X167244239Y-113413526D01*
X167213396Y-113412523D01*
X167149637Y-113403466D01*
X167090075Y-113384989D01*
X167068347Y-113375223D01*
X167012503Y-113338853D01*
X166967241Y-113293173D01*
X166934126Y-113245557D01*
X166906437Y-113189291D01*
X166885971Y-113130634D01*
X166874610Y-113085083D01*
X166864103Y-113020673D01*
X166858636Y-112957898D01*
X166856814Y-112889928D01*
X167095038Y-112889928D01*
X167097985Y-112944579D01*
X167111660Y-113007253D01*
X167142187Y-113062703D01*
X167154546Y-113075789D01*
X167211080Y-113109322D01*
X167273086Y-113118537D01*
X167288593Y-113118101D01*
X167351254Y-113106129D01*
X167362368Y-113101873D01*
X167414532Y-113065805D01*
X167427308Y-113051013D01*
X167457028Y-112994772D01*
X167467418Y-112953483D01*
X167472227Y-112889928D01*
X167472227Y-112768644D01*
X167095038Y-112768644D01*
X167095038Y-112889928D01*
X166856814Y-112889928D01*
X166856814Y-112466521D01*
X168167050Y-112466521D01*
X168167050Y-112768644D01*
G37*
G36*
X167580968Y-113540645D02*
G01*
X167647872Y-113549776D01*
X167712333Y-113564995D01*
X167774351Y-113586301D01*
X167833035Y-113613152D01*
X167887802Y-113645004D01*
X167938654Y-113681859D01*
X167985589Y-113723715D01*
X168027988Y-113770475D01*
X168065540Y-113821734D01*
X168098246Y-113877490D01*
X168126105Y-113937745D01*
X168132265Y-113953476D01*
X168152931Y-114018509D01*
X168167239Y-114086915D01*
X168174541Y-114149538D01*
X168176976Y-114214743D01*
X168176685Y-114236010D01*
X168172323Y-114298183D01*
X168170245Y-114315902D01*
X168159915Y-114378212D01*
X168340135Y-114539820D01*
X168361097Y-114563272D01*
X168391006Y-114618918D01*
X168399511Y-114652361D01*
X168404964Y-114715077D01*
X168404964Y-114963538D01*
X168043595Y-114633807D01*
X168032224Y-114648803D01*
X167989222Y-114698082D01*
X167941232Y-114742373D01*
X167926581Y-114754078D01*
X167872934Y-114791304D01*
X167815606Y-114822712D01*
X167794158Y-114832519D01*
X167731766Y-114856030D01*
X167670748Y-114872652D01*
X167641555Y-114878556D01*
X167576733Y-114887156D01*
X167509760Y-114890023D01*
X167440995Y-114886979D01*
X167374596Y-114877848D01*
X167310561Y-114862629D01*
X167248892Y-114841323D01*
X167190266Y-114814492D01*
X167135673Y-114782698D01*
X167085112Y-114745940D01*
X167038584Y-114704220D01*
X166996301Y-114657750D01*
X166958788Y-114606743D01*
X166926044Y-114551200D01*
X166898069Y-114491121D01*
X166891871Y-114475465D01*
X166871079Y-114410684D01*
X166856684Y-114342452D01*
X166849337Y-114279918D01*
X166846888Y-114214743D01*
X167104964Y-114214743D01*
X167105654Y-114241333D01*
X167113896Y-114306214D01*
X167133192Y-114369217D01*
X167138641Y-114381768D01*
X167169769Y-114435441D01*
X167213530Y-114483986D01*
X167230480Y-114498175D01*
X167283983Y-114532102D01*
X167341638Y-114555950D01*
X167385708Y-114568096D01*
X167449125Y-114578106D01*
X167511932Y-114581075D01*
X167552780Y-114579873D01*
X167618384Y-114572218D01*
X167683156Y-114555950D01*
X167701714Y-114549397D01*
X167760941Y-114520967D01*
X167811263Y-114483986D01*
X167820874Y-114475019D01*
X167862386Y-114424619D01*
X167891292Y-114369217D01*
X167902049Y-114338606D01*
X167915017Y-114277033D01*
X167918899Y-114214743D01*
X167918225Y-114187869D01*
X167910164Y-114122322D01*
X167891292Y-114058718D01*
X167885898Y-114046111D01*
X167854956Y-113992252D01*
X167811263Y-113943638D01*
X167794314Y-113929531D01*
X167740811Y-113895672D01*
X167683156Y-113871674D01*
X167639012Y-113859679D01*
X167575268Y-113849792D01*
X167511932Y-113846859D01*
X167471446Y-113848047D01*
X167406256Y-113855608D01*
X167341638Y-113871674D01*
X167323080Y-113878295D01*
X167263852Y-113906811D01*
X167213530Y-113943638D01*
X167203917Y-113952608D01*
X167162309Y-114003103D01*
X167133192Y-114058718D01*
X167122193Y-114089615D01*
X167108934Y-114151799D01*
X167104964Y-114214743D01*
X166846888Y-114214743D01*
X166847086Y-114195849D01*
X166850912Y-114131382D01*
X166859605Y-114069497D01*
X166875502Y-114001934D01*
X166897759Y-113937745D01*
X166925598Y-113877490D01*
X166958245Y-113821734D01*
X166995700Y-113770475D01*
X167037964Y-113723715D01*
X167084647Y-113681859D01*
X167135363Y-113645004D01*
X167190111Y-113613152D01*
X167248892Y-113586301D01*
X167310910Y-113564995D01*
X167375371Y-113549776D01*
X167442275Y-113540645D01*
X167511621Y-113537602D01*
X167580968Y-113540645D01*
G37*
X166604950Y-110467490D02*
X166604950Y-114808000D01*
G36*
X107207050Y-111822260D02*
G01*
X107207030Y-111824594D01*
X107186577Y-111885228D01*
X107140669Y-111920589D01*
X106909269Y-111997516D01*
X106909269Y-112492267D01*
X107140669Y-112569193D01*
X107188438Y-112605796D01*
X107190692Y-112608879D01*
X107207050Y-112669384D01*
X107207050Y-112903266D01*
X105896814Y-112399520D01*
X105896814Y-112244116D01*
X106166988Y-112244116D01*
X106205955Y-112255515D01*
X106266248Y-112274514D01*
X106285754Y-112281075D01*
X106345966Y-112303052D01*
X106701442Y-112422784D01*
X106701442Y-112067308D01*
X106347828Y-112186731D01*
X106327828Y-112194482D01*
X106267799Y-112214958D01*
X106228715Y-112226953D01*
X106166988Y-112244116D01*
X105896814Y-112244116D01*
X105896814Y-112090262D01*
X107207050Y-111586516D01*
X107207050Y-111822260D01*
G37*
G36*
X106999223Y-113070148D02*
G01*
X106999223Y-113320470D01*
X106344726Y-113320470D01*
X106279752Y-113321672D01*
X106244225Y-113323261D01*
X106366439Y-113175612D01*
X106384740Y-113136838D01*
X106384740Y-113100546D01*
X106373263Y-113070148D01*
X106355892Y-113050606D01*
X106239572Y-112963133D01*
X105896814Y-113368549D01*
X105896814Y-113597468D01*
X106999223Y-113597468D01*
X106999223Y-113811808D01*
X107207050Y-113811808D01*
X107207050Y-113070148D01*
X106999223Y-113070148D01*
G37*
G36*
X106842578Y-113928129D02*
G01*
X106882592Y-113954185D01*
X106898722Y-114001333D01*
X106898722Y-114524931D01*
X107207050Y-114524931D01*
X107207050Y-114765948D01*
X106898722Y-114765948D01*
X106898722Y-114846286D01*
X106883523Y-114885991D01*
X106847541Y-114899949D01*
X106690896Y-114899949D01*
X106690896Y-114765948D01*
X105896814Y-114765948D01*
X105896814Y-114533617D01*
X106211034Y-114533617D01*
X106222912Y-114532312D01*
X106285480Y-114527103D01*
X106289958Y-114526840D01*
X106352480Y-114524931D01*
X106690896Y-114524931D01*
X106690896Y-114189928D01*
X106211034Y-114533617D01*
X105896814Y-114533617D01*
X105896814Y-114501667D01*
X106705785Y-113899591D01*
X106842578Y-113928129D01*
G37*
G36*
X175787050Y-113183056D02*
G01*
X175786858Y-113201947D01*
X175783173Y-113266368D01*
X175774797Y-113328147D01*
X175759482Y-113395516D01*
X175738040Y-113459434D01*
X175711131Y-113519514D01*
X175679414Y-113575057D01*
X175642889Y-113626063D01*
X175601557Y-113672533D01*
X175561608Y-113709416D01*
X175505709Y-113751166D01*
X175451736Y-113782922D01*
X175393731Y-113809637D01*
X175332333Y-113830943D01*
X175268182Y-113846161D01*
X175201278Y-113855293D01*
X175131621Y-113858336D01*
X175062236Y-113855293D01*
X174995526Y-113846161D01*
X174931492Y-113830943D01*
X174870133Y-113809637D01*
X174826272Y-113790073D01*
X174771388Y-113759578D01*
X174714557Y-113719245D01*
X174662927Y-113672533D01*
X174621710Y-113626063D01*
X174585224Y-113575057D01*
X174553469Y-113519514D01*
X174526444Y-113459434D01*
X174520434Y-113443778D01*
X174500272Y-113378997D01*
X174486313Y-113310765D01*
X174479189Y-113248232D01*
X174476814Y-113183056D01*
X174715038Y-113183056D01*
X174715743Y-113209728D01*
X174724166Y-113274680D01*
X174743886Y-113337530D01*
X174749516Y-113350082D01*
X174781627Y-113403754D01*
X174826706Y-113452300D01*
X174844148Y-113466488D01*
X174899110Y-113500415D01*
X174958226Y-113524263D01*
X175003169Y-113536409D01*
X175067748Y-113546420D01*
X175131621Y-113549389D01*
X175178809Y-113547818D01*
X175245082Y-113539574D01*
X175305947Y-113524263D01*
X175324893Y-113517711D01*
X175385478Y-113489280D01*
X175437157Y-113452300D01*
X175447056Y-113443332D01*
X175489927Y-113392933D01*
X175519977Y-113337530D01*
X175531218Y-113307025D01*
X175544768Y-113245491D01*
X175548825Y-113183056D01*
X175548825Y-112981123D01*
X174715038Y-112981123D01*
X174715038Y-113183056D01*
X174476814Y-113183056D01*
X174476814Y-112677449D01*
X175787050Y-112677449D01*
X175787050Y-113183056D01*
G37*
G36*
X174466888Y-114436217D02*
G01*
X174470223Y-114500444D01*
X174481470Y-114565241D01*
X174495115Y-114610233D01*
X174521432Y-114669200D01*
X174557903Y-114724229D01*
X174572972Y-114741753D01*
X174620351Y-114784594D01*
X174675092Y-114817579D01*
X174692084Y-114825194D01*
X174755222Y-114845126D01*
X174818529Y-114853639D01*
X174844077Y-114854351D01*
X174908644Y-114849921D01*
X174972407Y-114835430D01*
X174976217Y-114834189D01*
X175035308Y-114810537D01*
X175091607Y-114779286D01*
X175145425Y-114741675D01*
X175194470Y-114701204D01*
X175197692Y-114698327D01*
X175246015Y-114653993D01*
X175291731Y-114610278D01*
X175301605Y-114600617D01*
X175561853Y-114346263D01*
X175545544Y-114407040D01*
X175537968Y-114443041D01*
X175529851Y-114506085D01*
X175528973Y-114532996D01*
X175528973Y-114775874D01*
X175545764Y-114835967D01*
X175554408Y-114846286D01*
X175610964Y-114871935D01*
X175621099Y-114872342D01*
X175787050Y-114872342D01*
X175787050Y-113957597D01*
X175698336Y-113957597D01*
X175643432Y-113968143D01*
X175591578Y-114004024D01*
X175590080Y-114005676D01*
X175215062Y-114381004D01*
X175168379Y-114425981D01*
X175123867Y-114464755D01*
X175072586Y-114503000D01*
X175038255Y-114524001D01*
X174980249Y-114550418D01*
X174953883Y-114558742D01*
X174890838Y-114569311D01*
X174864859Y-114570219D01*
X174800356Y-114562040D01*
X174746367Y-114532996D01*
X174713009Y-114479201D01*
X174705112Y-114420398D01*
X174715908Y-114357039D01*
X174739233Y-114316174D01*
X174788306Y-114273354D01*
X174823914Y-114257549D01*
X174878001Y-114226387D01*
X174891536Y-114208539D01*
X174901108Y-114145328D01*
X174898360Y-114121996D01*
X174872614Y-113975277D01*
X174811212Y-113986770D01*
X174749619Y-114005360D01*
X174694256Y-114030181D01*
X174640646Y-114063594D01*
X174590741Y-114105895D01*
X174567389Y-114131302D01*
X174530356Y-114183062D01*
X174501924Y-114240556D01*
X174491703Y-114269026D01*
X174475636Y-114334179D01*
X174468075Y-114397683D01*
X174466888Y-114436217D01*
G37*
G36*
X112287050Y-111822260D02*
G01*
X112287030Y-111824594D01*
X112266577Y-111885228D01*
X112220669Y-111920589D01*
X111989269Y-111997516D01*
X111989269Y-112492267D01*
X112220669Y-112569193D01*
X112268438Y-112605796D01*
X112270692Y-112608879D01*
X112287050Y-112669384D01*
X112287050Y-112903266D01*
X110976814Y-112399520D01*
X110976814Y-112244116D01*
X111246988Y-112244116D01*
X111285955Y-112255515D01*
X111346248Y-112274514D01*
X111365754Y-112281075D01*
X111425966Y-112303052D01*
X111781442Y-112422784D01*
X111781442Y-112067308D01*
X111427828Y-112186731D01*
X111407828Y-112194482D01*
X111347799Y-112214958D01*
X111308715Y-112226953D01*
X111246988Y-112244116D01*
X110976814Y-112244116D01*
X110976814Y-112090262D01*
X112287050Y-111586516D01*
X112287050Y-111822260D01*
G37*
G36*
X112079223Y-113070148D02*
G01*
X112079223Y-113320470D01*
X111424726Y-113320470D01*
X111359752Y-113321672D01*
X111324225Y-113323261D01*
X111446439Y-113175612D01*
X111464740Y-113136838D01*
X111464740Y-113100546D01*
X111453263Y-113070148D01*
X111435892Y-113050606D01*
X111319572Y-112963133D01*
X110976814Y-113368549D01*
X110976814Y-113597468D01*
X112079223Y-113597468D01*
X112079223Y-113811808D01*
X112287050Y-113811808D01*
X112287050Y-113070148D01*
X112079223Y-113070148D01*
G37*
G36*
X110966888Y-114436217D02*
G01*
X110970223Y-114500444D01*
X110981470Y-114565241D01*
X110995115Y-114610233D01*
X111021432Y-114669200D01*
X111057903Y-114724229D01*
X111072972Y-114741753D01*
X111120351Y-114784594D01*
X111175092Y-114817579D01*
X111192084Y-114825194D01*
X111255222Y-114845126D01*
X111318529Y-114853639D01*
X111344077Y-114854351D01*
X111408644Y-114849921D01*
X111472407Y-114835430D01*
X111476217Y-114834189D01*
X111535308Y-114810537D01*
X111591607Y-114779286D01*
X111645425Y-114741675D01*
X111694470Y-114701204D01*
X111697692Y-114698327D01*
X111746015Y-114653993D01*
X111791731Y-114610278D01*
X111801605Y-114600617D01*
X112061853Y-114346263D01*
X112045544Y-114407040D01*
X112037968Y-114443041D01*
X112029851Y-114506085D01*
X112028973Y-114532996D01*
X112028973Y-114775874D01*
X112045764Y-114835967D01*
X112054408Y-114846286D01*
X112110964Y-114871935D01*
X112121099Y-114872342D01*
X112287050Y-114872342D01*
X112287050Y-113957597D01*
X112198336Y-113957597D01*
X112143432Y-113968143D01*
X112091578Y-114004024D01*
X112090080Y-114005676D01*
X111715062Y-114381004D01*
X111668379Y-114425981D01*
X111623867Y-114464755D01*
X111572586Y-114503000D01*
X111538255Y-114524001D01*
X111480249Y-114550418D01*
X111453883Y-114558742D01*
X111390838Y-114569311D01*
X111364859Y-114570219D01*
X111300356Y-114562040D01*
X111246367Y-114532996D01*
X111213009Y-114479201D01*
X111205112Y-114420398D01*
X111215908Y-114357039D01*
X111239233Y-114316174D01*
X111288306Y-114273354D01*
X111323914Y-114257549D01*
X111378001Y-114226387D01*
X111391536Y-114208539D01*
X111401108Y-114145328D01*
X111398360Y-114121996D01*
X111372614Y-113975277D01*
X111311212Y-113986770D01*
X111249619Y-114005360D01*
X111194256Y-114030181D01*
X111140646Y-114063594D01*
X111090741Y-114105895D01*
X111067389Y-114131302D01*
X111030356Y-114183062D01*
X111001924Y-114240556D01*
X110991703Y-114269026D01*
X110975636Y-114334179D01*
X110968075Y-114397683D01*
X110966888Y-114436217D01*
G37*
G36*
X130067050Y-112853326D02*
G01*
X130067030Y-112855660D01*
X130046577Y-112916294D01*
X130000669Y-112951655D01*
X129769269Y-113028582D01*
X129769269Y-113523333D01*
X130000669Y-113600259D01*
X130048438Y-113636862D01*
X130050692Y-113639945D01*
X130067050Y-113700450D01*
X130067050Y-113934332D01*
X128756814Y-113430586D01*
X128756814Y-113275182D01*
X129026988Y-113275182D01*
X129065955Y-113286581D01*
X129126248Y-113305580D01*
X129145754Y-113312141D01*
X129205966Y-113334118D01*
X129561442Y-113453850D01*
X129561442Y-113098374D01*
X129207828Y-113217797D01*
X129187828Y-113225548D01*
X129127799Y-113246024D01*
X129088715Y-113258019D01*
X129026988Y-113275182D01*
X128756814Y-113275182D01*
X128756814Y-113121328D01*
X130067050Y-112617582D01*
X130067050Y-112853326D01*
G37*
G36*
X128868792Y-114810614D02*
G01*
X128919973Y-114801619D01*
X128959677Y-114773702D01*
X128986043Y-114723141D01*
X128994819Y-114661440D01*
X128995038Y-114648076D01*
X128995038Y-114337267D01*
X129206277Y-114300665D01*
X129197490Y-114362581D01*
X129196661Y-114371077D01*
X129193571Y-114433145D01*
X129193559Y-114437148D01*
X129196679Y-114499119D01*
X129207318Y-114561759D01*
X129225508Y-114618608D01*
X129255055Y-114678275D01*
X129292280Y-114729752D01*
X129312051Y-114750748D01*
X129363560Y-114792656D01*
X129418089Y-114822533D01*
X129440779Y-114831707D01*
X129502502Y-114849381D01*
X129567707Y-114858044D01*
X129598975Y-114859004D01*
X129663460Y-114855369D01*
X129730196Y-114842973D01*
X129792533Y-114821781D01*
X129849848Y-114792922D01*
X129901519Y-114757098D01*
X129943595Y-114718489D01*
X129983940Y-114670060D01*
X130017541Y-114615620D01*
X130042234Y-114560913D01*
X130062014Y-114495950D01*
X130072870Y-114433331D01*
X130076942Y-114367319D01*
X130076976Y-114360531D01*
X130073796Y-114298416D01*
X130064258Y-114239247D01*
X130046755Y-114176849D01*
X130029207Y-114131302D01*
X130000648Y-114073995D01*
X129978336Y-114037935D01*
X129940822Y-113987457D01*
X129916918Y-113960078D01*
X129799357Y-114046000D01*
X129771440Y-114077019D01*
X129761824Y-114115792D01*
X129777334Y-114166043D01*
X129810834Y-114217844D01*
X129839943Y-114274367D01*
X129843714Y-114283604D01*
X129857425Y-114346852D01*
X129858603Y-114376661D01*
X129851091Y-114439498D01*
X129839371Y-114471268D01*
X129802847Y-114521984D01*
X129787260Y-114535167D01*
X129731193Y-114564422D01*
X129709712Y-114570839D01*
X129645656Y-114580915D01*
X129614795Y-114582006D01*
X129552161Y-114575665D01*
X129492600Y-114551820D01*
X129463733Y-114528343D01*
X129428322Y-114472898D01*
X129413753Y-114411859D01*
X129411932Y-114376661D01*
X129416861Y-114311390D01*
X129431648Y-114247254D01*
X129446983Y-114205127D01*
X129398593Y-114033592D01*
X128756814Y-114144330D01*
X128756814Y-114810614D01*
X128868792Y-114810614D01*
G37*
G36*
X180252482Y-70763131D02*
G01*
X179859721Y-70763131D01*
X179859721Y-70130036D01*
X179760120Y-70130036D01*
X179690359Y-70144956D01*
X179646405Y-70190926D01*
X179365343Y-70688127D01*
X179303794Y-70746650D01*
X179223401Y-70763131D01*
X178868142Y-70763131D01*
X179228240Y-70168344D01*
X179235007Y-70158238D01*
X179288727Y-70097373D01*
X179292934Y-70093634D01*
X179361714Y-70047371D01*
X179283989Y-70011583D01*
X179216143Y-69967125D01*
X179161132Y-69918169D01*
X179109283Y-69855829D01*
X179075267Y-69799055D01*
X179043554Y-69719936D01*
X179027635Y-69648805D01*
X179024126Y-69600979D01*
X179404861Y-69600979D01*
X179405428Y-69621138D01*
X179420991Y-69702596D01*
X179426524Y-69717045D01*
X179473413Y-69784858D01*
X179492643Y-69801467D01*
X179565756Y-69840103D01*
X179619432Y-69853610D01*
X179702053Y-69859862D01*
X179859721Y-69859862D01*
X179859721Y-69369516D01*
X179702053Y-69369516D01*
X179631006Y-69373347D01*
X179549530Y-69391124D01*
X179477445Y-69430809D01*
X179460433Y-69446876D01*
X179416840Y-69520370D01*
X179404861Y-69600979D01*
X179024126Y-69600979D01*
X179021375Y-69563477D01*
X179022679Y-69523381D01*
X179034454Y-69440494D01*
X179058474Y-69363064D01*
X179071170Y-69334817D01*
X179118450Y-69262221D01*
X179177834Y-69203379D01*
X179239735Y-69160330D01*
X179312880Y-69124334D01*
X179389135Y-69097729D01*
X179448351Y-69082959D01*
X179532085Y-69069300D01*
X179613692Y-69062193D01*
X179702053Y-69059824D01*
X180252482Y-69059824D01*
X180252482Y-70763131D01*
G37*
G36*
X177643487Y-69059824D02*
G01*
X177643487Y-69369516D01*
X178338278Y-69369516D01*
X178338278Y-69756631D01*
X177806398Y-69756631D01*
X177806398Y-70040516D01*
X178338278Y-70040516D01*
X178338278Y-70453438D01*
X177643487Y-70453438D01*
X177643487Y-70763131D01*
X178733055Y-70763131D01*
X178733055Y-69059824D01*
X177643487Y-69059824D01*
G37*
G36*
X177602760Y-69059824D02*
G01*
X177287019Y-69059824D01*
X177208362Y-69081089D01*
X177204354Y-69084019D01*
X177156771Y-69145312D01*
X176829336Y-70060678D01*
X176800731Y-70139531D01*
X176784172Y-70190926D01*
X176759987Y-70272158D01*
X176742235Y-70338514D01*
X176723644Y-70258300D01*
X176705540Y-70190926D01*
X176680460Y-70110965D01*
X176661989Y-70060678D01*
X176336974Y-69145312D01*
X176291004Y-69086438D01*
X176212179Y-69059850D01*
X176209145Y-69059824D01*
X175890985Y-69059824D01*
X176569243Y-70763131D01*
X176924502Y-70763131D01*
X177602760Y-69059824D01*
G37*
G36*
X173723946Y-69046920D02*
G01*
X173640452Y-69051256D01*
X173556215Y-69065877D01*
X173497726Y-69083615D01*
X173421069Y-69117828D01*
X173349531Y-69165241D01*
X173326750Y-69184830D01*
X173271057Y-69246422D01*
X173228176Y-69317586D01*
X173218277Y-69339676D01*
X173192366Y-69421755D01*
X173181298Y-69504053D01*
X173180372Y-69537266D01*
X173186132Y-69621203D01*
X173204971Y-69704095D01*
X173206583Y-69709048D01*
X173237331Y-69785866D01*
X173277958Y-69859055D01*
X173326851Y-69929018D01*
X173379464Y-69992778D01*
X173383204Y-69996965D01*
X173440838Y-70059785D01*
X173497667Y-70119216D01*
X173510227Y-70132052D01*
X173840887Y-70470375D01*
X173761877Y-70449173D01*
X173715075Y-70439325D01*
X173633119Y-70428773D01*
X173598134Y-70427631D01*
X173282393Y-70427631D01*
X173204272Y-70449459D01*
X173190857Y-70460697D01*
X173157513Y-70534220D01*
X173156984Y-70547394D01*
X173156984Y-70763131D01*
X174346153Y-70763131D01*
X174346153Y-70647802D01*
X174332443Y-70576428D01*
X174285798Y-70509018D01*
X174283650Y-70507070D01*
X173795724Y-70019547D01*
X173737254Y-69958858D01*
X173686848Y-69900993D01*
X173637129Y-69834327D01*
X173609828Y-69789697D01*
X173575486Y-69714290D01*
X173564665Y-69680015D01*
X173550925Y-69598055D01*
X173549745Y-69564283D01*
X173560377Y-69480429D01*
X173598134Y-69410244D01*
X173668067Y-69366878D01*
X173744512Y-69356612D01*
X173826878Y-69370647D01*
X173880002Y-69400969D01*
X173935669Y-69464764D01*
X173956216Y-69511055D01*
X173996726Y-69581368D01*
X174019928Y-69598962D01*
X174102103Y-69611406D01*
X174132434Y-69607834D01*
X174323168Y-69574364D01*
X174308228Y-69494542D01*
X174284061Y-69414470D01*
X174251794Y-69342499D01*
X174208357Y-69272807D01*
X174153365Y-69207929D01*
X174120336Y-69177571D01*
X174053048Y-69129429D01*
X173978306Y-69092468D01*
X173941295Y-69079180D01*
X173856596Y-69058293D01*
X173774041Y-69048464D01*
X173723946Y-69046920D01*
G37*
G36*
X145176460Y-112131517D02*
G01*
X145214797Y-112074154D01*
X145246754Y-112014778D01*
X145272332Y-111953391D01*
X145283785Y-111918418D01*
X145299829Y-111854072D01*
X145310623Y-111788058D01*
X145316165Y-111720376D01*
X145316976Y-111682054D01*
X145314571Y-111613138D01*
X145307357Y-111546983D01*
X145295334Y-111483588D01*
X145278502Y-111422955D01*
X145266725Y-111389546D01*
X145239060Y-111325996D01*
X145206626Y-111267177D01*
X145169423Y-111213088D01*
X145127450Y-111163729D01*
X145080883Y-111119566D01*
X145030206Y-111080754D01*
X144975419Y-111047292D01*
X144916522Y-111019181D01*
X144854136Y-110996925D01*
X144789190Y-110981028D01*
X144721685Y-110971490D01*
X144651621Y-110968310D01*
X144588982Y-110970611D01*
X144520193Y-110978875D01*
X144454389Y-110993148D01*
X144391571Y-111013432D01*
X144383929Y-111016390D01*
X144325071Y-111043163D01*
X144270400Y-111075093D01*
X144219917Y-111112180D01*
X144173621Y-111154423D01*
X144131881Y-111201727D01*
X144095066Y-111253684D01*
X144063175Y-111310293D01*
X144036208Y-111371555D01*
X144014630Y-111437160D01*
X143999218Y-111506487D01*
X143990789Y-111570202D01*
X143987080Y-111636766D01*
X143986888Y-111656308D01*
X143989191Y-111720701D01*
X143996825Y-111786384D01*
X144000846Y-111808921D01*
X144015019Y-111869421D01*
X144034553Y-111929367D01*
X144038999Y-111940751D01*
X144065288Y-111998369D01*
X144096384Y-112050868D01*
X144133312Y-112101195D01*
X144168658Y-112140512D01*
X144303900Y-112052729D01*
X144341894Y-112001711D01*
X144342364Y-111999687D01*
X144330329Y-111936578D01*
X144326234Y-111929584D01*
X144295345Y-111874075D01*
X144289321Y-111861963D01*
X144265743Y-111803343D01*
X144263886Y-111797134D01*
X144250481Y-111734482D01*
X144249617Y-111727652D01*
X144245187Y-111664970D01*
X144244964Y-111645452D01*
X144249828Y-111579412D01*
X144264418Y-111518902D01*
X144274432Y-111492839D01*
X144304848Y-111437258D01*
X144344525Y-111389396D01*
X144357563Y-111377139D01*
X144408402Y-111339497D01*
X144467554Y-111310167D01*
X144485981Y-111303314D01*
X144549787Y-111286645D01*
X144613684Y-111278800D01*
X144653172Y-111277568D01*
X144720444Y-111280940D01*
X144782365Y-111291057D01*
X144834012Y-111306106D01*
X144894034Y-111333183D01*
X144946070Y-111368041D01*
X144967393Y-111386755D01*
X145009963Y-111436483D01*
X145042677Y-111493930D01*
X145050213Y-111511761D01*
X145068690Y-111573547D01*
X145077385Y-111635124D01*
X145078751Y-111673058D01*
X145074752Y-111737180D01*
X145068515Y-111771698D01*
X145051214Y-111831663D01*
X145041218Y-111858241D01*
X144850452Y-111858241D01*
X144850452Y-111729513D01*
X144835563Y-111684846D01*
X144797100Y-111668716D01*
X144632080Y-111668716D01*
X144632080Y-112131517D01*
X145176460Y-112131517D01*
G37*
G36*
X143996814Y-112486683D02*
G01*
X143998675Y-112519563D01*
X144005189Y-112543757D01*
X144019147Y-112564230D01*
X144043342Y-112586563D01*
X144825017Y-113204769D01*
X144760997Y-113199985D01*
X144752122Y-113199496D01*
X144689364Y-113197642D01*
X144685432Y-113197635D01*
X143996814Y-113197635D01*
X143996814Y-113463776D01*
X145307050Y-113463776D01*
X145307050Y-113306821D01*
X145295883Y-113248195D01*
X145257109Y-113201357D01*
X144481638Y-112587494D01*
X144544215Y-112591638D01*
X144548329Y-112591837D01*
X144609436Y-112593698D01*
X145307050Y-112593698D01*
X145307050Y-112327556D01*
X143996814Y-112327556D01*
X143996814Y-112486683D01*
G37*
G36*
X145307050Y-114214122D02*
G01*
X145306858Y-114233013D01*
X145303173Y-114297434D01*
X145294797Y-114359213D01*
X145279482Y-114426582D01*
X145258040Y-114490500D01*
X145231131Y-114550579D01*
X145199414Y-114606123D01*
X145162889Y-114657129D01*
X145121557Y-114703599D01*
X145081608Y-114740482D01*
X145025709Y-114782232D01*
X144971736Y-114813988D01*
X144913731Y-114840703D01*
X144852333Y-114862009D01*
X144788182Y-114877227D01*
X144721278Y-114886358D01*
X144651621Y-114889402D01*
X144582236Y-114886358D01*
X144515526Y-114877227D01*
X144451492Y-114862009D01*
X144390133Y-114840703D01*
X144346272Y-114821139D01*
X144291388Y-114790644D01*
X144234557Y-114750311D01*
X144182927Y-114703599D01*
X144141710Y-114657129D01*
X144105224Y-114606123D01*
X144073469Y-114550579D01*
X144046444Y-114490500D01*
X144040434Y-114474844D01*
X144020272Y-114410063D01*
X144006313Y-114341831D01*
X143999189Y-114279298D01*
X143996814Y-114214122D01*
X144235038Y-114214122D01*
X144235743Y-114240794D01*
X144244166Y-114305746D01*
X144263886Y-114368596D01*
X144269516Y-114381148D01*
X144301627Y-114434820D01*
X144346706Y-114483366D01*
X144364148Y-114497554D01*
X144419110Y-114531481D01*
X144478226Y-114555329D01*
X144523169Y-114567475D01*
X144587748Y-114577486D01*
X144651621Y-114580455D01*
X144698809Y-114578884D01*
X144765082Y-114570640D01*
X144825947Y-114555329D01*
X144844893Y-114548777D01*
X144905478Y-114520346D01*
X144957157Y-114483366D01*
X144967056Y-114474398D01*
X145009927Y-114423998D01*
X145039977Y-114368596D01*
X145051218Y-114338091D01*
X145064768Y-114276557D01*
X145068825Y-114214122D01*
X145068825Y-114012189D01*
X144235038Y-114012189D01*
X144235038Y-114214122D01*
X143996814Y-114214122D01*
X143996814Y-113708515D01*
X145307050Y-113708515D01*
X145307050Y-114214122D01*
G37*
G36*
X198398899Y-110069074D02*
G01*
X198392617Y-110133348D01*
X198379047Y-110177640D01*
X198347059Y-110231535D01*
X198321352Y-110258289D01*
X198268014Y-110293597D01*
X198229846Y-110308850D01*
X198168298Y-110322645D01*
X198107011Y-110326530D01*
X197336814Y-110326530D01*
X197336814Y-110628344D01*
X198110424Y-110628344D01*
X198176402Y-110625252D01*
X198239289Y-110615977D01*
X198305537Y-110598420D01*
X198330968Y-110589260D01*
X198390891Y-110561755D01*
X198445422Y-110527707D01*
X198494562Y-110487116D01*
X198503742Y-110478212D01*
X198545957Y-110429982D01*
X198581871Y-110375632D01*
X198611484Y-110315164D01*
X198616651Y-110302336D01*
X198636144Y-110241998D01*
X198649257Y-110177538D01*
X198655991Y-110108956D01*
X198656976Y-110069074D01*
X198654455Y-110005582D01*
X198645595Y-109938094D01*
X198630355Y-109874776D01*
X198616651Y-109834882D01*
X198588298Y-109773189D01*
X198553644Y-109717616D01*
X198512689Y-109668161D01*
X198503742Y-109659005D01*
X198455681Y-109617135D01*
X198402228Y-109581870D01*
X198343384Y-109553208D01*
X198330968Y-109548268D01*
X198266246Y-109527984D01*
X198204733Y-109516152D01*
X198140129Y-109510405D01*
X198110424Y-109509804D01*
X197336814Y-109509804D01*
X197336814Y-109811928D01*
X198106081Y-109811928D01*
X198171220Y-109816270D01*
X198228916Y-109829298D01*
X198287431Y-109855393D01*
X198321041Y-109879549D01*
X198361439Y-109926731D01*
X198379047Y-109960508D01*
X198395622Y-110021827D01*
X198398899Y-110069074D01*
G37*
G36*
X197606057Y-111576279D02*
G01*
X197638317Y-111548052D01*
X197648863Y-111510209D01*
X197636145Y-111465852D01*
X197606988Y-111412500D01*
X197581373Y-111353739D01*
X197578140Y-111344258D01*
X197566143Y-111283359D01*
X197565112Y-111256475D01*
X197572059Y-111190632D01*
X197599172Y-111132868D01*
X197601404Y-111130228D01*
X197653209Y-111095523D01*
X197699114Y-111088663D01*
X197759253Y-111109044D01*
X197764253Y-111113478D01*
X197801585Y-111164546D01*
X197808920Y-111179238D01*
X197832145Y-111237514D01*
X197843351Y-111271985D01*
X197861977Y-111331646D01*
X197878092Y-111379000D01*
X197901887Y-111439632D01*
X197923380Y-111485704D01*
X197956957Y-111540949D01*
X197989450Y-111578761D01*
X198040060Y-111619470D01*
X198087159Y-111644211D01*
X198150515Y-111663055D01*
X198215748Y-111669238D01*
X198225814Y-111669336D01*
X198291855Y-111664930D01*
X198354581Y-111651713D01*
X198394556Y-111638007D01*
X198450623Y-111610541D01*
X198505061Y-111571827D01*
X198531659Y-111547122D01*
X198571906Y-111498761D01*
X198605174Y-111442549D01*
X198623475Y-111400713D01*
X198642548Y-111338179D01*
X198653017Y-111276432D01*
X198656943Y-111210021D01*
X198656976Y-111203123D01*
X198653474Y-111137913D01*
X198644568Y-111079358D01*
X198629601Y-111017397D01*
X198609517Y-110957454D01*
X198584779Y-110900224D01*
X198555854Y-110846406D01*
X198518701Y-110792448D01*
X198486682Y-110756451D01*
X198345546Y-110845786D01*
X198320111Y-110873703D01*
X198309875Y-110911856D01*
X198326935Y-110965829D01*
X198359335Y-111019060D01*
X198364468Y-111027556D01*
X198393257Y-111084960D01*
X198402001Y-111106654D01*
X198416395Y-111168668D01*
X198418751Y-111211808D01*
X198411804Y-111276727D01*
X198386854Y-111333763D01*
X198382459Y-111339606D01*
X198328282Y-111376476D01*
X198267689Y-111385203D01*
X198206855Y-111369868D01*
X198193554Y-111360078D01*
X198154727Y-111311649D01*
X198146095Y-111294628D01*
X198123265Y-111236486D01*
X198112905Y-111202192D01*
X198094867Y-111139694D01*
X198081266Y-111095798D01*
X198058921Y-111035264D01*
X198038150Y-110989403D01*
X198004431Y-110934660D01*
X197971149Y-110896967D01*
X197921208Y-110858170D01*
X197867546Y-110831207D01*
X197807470Y-110814243D01*
X197741797Y-110806998D01*
X197714003Y-110806392D01*
X197650602Y-110812032D01*
X197588507Y-110828953D01*
X197571006Y-110835860D01*
X197512847Y-110866928D01*
X197464052Y-110905240D01*
X197446620Y-110922402D01*
X197405898Y-110973225D01*
X197374761Y-111027591D01*
X197359457Y-111062607D01*
X197340914Y-111122619D01*
X197330068Y-111188348D01*
X197326888Y-111253063D01*
X197329601Y-111315796D01*
X197336503Y-111369694D01*
X197349917Y-111431689D01*
X197364420Y-111477329D01*
X197388777Y-111535333D01*
X197408467Y-111572247D01*
X197442927Y-111623937D01*
X197466162Y-111651345D01*
X197606057Y-111576279D01*
G37*
G36*
X197336814Y-112680550D02*
G01*
X197575038Y-112680550D01*
X197575038Y-112146096D01*
X197872819Y-112146096D01*
X197872819Y-112555234D01*
X198091192Y-112555234D01*
X198091192Y-112146096D01*
X198408825Y-112146096D01*
X198408825Y-112680550D01*
X198647050Y-112680550D01*
X198647050Y-111842421D01*
X197336814Y-111842421D01*
X197336814Y-112680550D01*
G37*
G36*
X198647050Y-113163203D02*
G01*
X198160054Y-113163203D01*
X198160054Y-113239820D01*
X198171531Y-113293482D01*
X198206892Y-113327293D01*
X198589354Y-113543494D01*
X198634372Y-113590840D01*
X198647050Y-113652681D01*
X198647050Y-113925957D01*
X198189522Y-113648958D01*
X198181747Y-113643753D01*
X198134928Y-113602430D01*
X198132052Y-113599194D01*
X198096465Y-113546286D01*
X198068936Y-113606075D01*
X198034738Y-113658264D01*
X197997079Y-113700580D01*
X197949126Y-113740464D01*
X197905453Y-113766630D01*
X197844592Y-113791025D01*
X197789876Y-113803270D01*
X197724239Y-113808085D01*
X197693396Y-113807082D01*
X197629637Y-113798025D01*
X197570075Y-113779548D01*
X197548347Y-113769782D01*
X197492503Y-113733412D01*
X197447241Y-113687732D01*
X197414126Y-113640116D01*
X197386437Y-113583850D01*
X197365971Y-113525193D01*
X197354610Y-113479642D01*
X197344103Y-113415231D01*
X197338636Y-113352457D01*
X197336814Y-113284487D01*
X197575038Y-113284487D01*
X197577985Y-113339138D01*
X197591660Y-113401812D01*
X197622187Y-113457262D01*
X197634546Y-113470348D01*
X197691080Y-113503881D01*
X197753086Y-113513096D01*
X197768593Y-113512660D01*
X197831254Y-113500688D01*
X197842368Y-113496432D01*
X197894532Y-113460364D01*
X197907308Y-113445572D01*
X197937028Y-113389331D01*
X197947418Y-113348042D01*
X197952227Y-113284487D01*
X197952227Y-113163203D01*
X197575038Y-113163203D01*
X197575038Y-113284487D01*
X197336814Y-113284487D01*
X197336814Y-112861080D01*
X198647050Y-112861080D01*
X198647050Y-113163203D01*
G37*
G36*
X197326888Y-114436217D02*
G01*
X197330223Y-114500443D01*
X197341470Y-114565241D01*
X197355115Y-114610232D01*
X197381432Y-114669199D01*
X197417903Y-114724228D01*
X197432972Y-114741752D01*
X197480351Y-114784593D01*
X197535092Y-114817579D01*
X197552084Y-114825193D01*
X197615222Y-114845125D01*
X197678529Y-114853639D01*
X197704077Y-114854351D01*
X197768644Y-114849920D01*
X197832407Y-114835429D01*
X197836217Y-114834188D01*
X197895308Y-114810536D01*
X197951607Y-114779285D01*
X198005425Y-114741675D01*
X198054470Y-114701203D01*
X198057692Y-114698326D01*
X198106015Y-114653992D01*
X198151731Y-114610277D01*
X198161605Y-114600616D01*
X198421853Y-114346262D01*
X198405544Y-114407040D01*
X198397968Y-114443041D01*
X198389851Y-114506084D01*
X198388973Y-114532995D01*
X198388973Y-114775873D01*
X198405764Y-114835966D01*
X198414408Y-114846286D01*
X198470964Y-114871934D01*
X198481099Y-114872342D01*
X198647050Y-114872342D01*
X198647050Y-113957596D01*
X198558336Y-113957596D01*
X198503432Y-113968142D01*
X198451578Y-114004023D01*
X198450080Y-114005675D01*
X198075062Y-114381003D01*
X198028379Y-114425980D01*
X197983867Y-114464754D01*
X197932586Y-114502999D01*
X197898255Y-114524000D01*
X197840249Y-114550417D01*
X197813883Y-114558741D01*
X197750838Y-114569310D01*
X197724859Y-114570218D01*
X197660356Y-114562039D01*
X197606367Y-114532995D01*
X197573009Y-114479201D01*
X197565112Y-114420397D01*
X197575908Y-114357039D01*
X197599233Y-114316174D01*
X197648306Y-114273353D01*
X197683914Y-114257548D01*
X197738001Y-114226386D01*
X197751536Y-114208538D01*
X197761108Y-114145327D01*
X197758360Y-114121996D01*
X197732614Y-113975277D01*
X197671212Y-113986769D01*
X197609619Y-114005359D01*
X197554256Y-114030180D01*
X197500646Y-114063593D01*
X197450741Y-114105894D01*
X197427389Y-114131301D01*
X197390356Y-114183062D01*
X197361924Y-114240556D01*
X197351703Y-114269025D01*
X197335636Y-114334178D01*
X197328075Y-114397682D01*
X197326888Y-114436217D01*
G37*
G36*
X109747050Y-111822260D02*
G01*
X109747030Y-111824594D01*
X109726577Y-111885228D01*
X109680669Y-111920589D01*
X109449269Y-111997516D01*
X109449269Y-112492267D01*
X109680669Y-112569193D01*
X109728438Y-112605796D01*
X109730692Y-112608879D01*
X109747050Y-112669384D01*
X109747050Y-112903266D01*
X108436814Y-112399520D01*
X108436814Y-112244116D01*
X108706988Y-112244116D01*
X108745955Y-112255515D01*
X108806248Y-112274514D01*
X108825754Y-112281075D01*
X108885966Y-112303052D01*
X109241442Y-112422784D01*
X109241442Y-112067308D01*
X108887828Y-112186731D01*
X108867828Y-112194482D01*
X108807799Y-112214958D01*
X108768715Y-112226953D01*
X108706988Y-112244116D01*
X108436814Y-112244116D01*
X108436814Y-112090262D01*
X109747050Y-111586516D01*
X109747050Y-111822260D01*
G37*
G36*
X109539223Y-113070148D02*
G01*
X109539223Y-113320470D01*
X108884726Y-113320470D01*
X108819752Y-113321672D01*
X108784225Y-113323261D01*
X108906439Y-113175612D01*
X108924740Y-113136838D01*
X108924740Y-113100546D01*
X108913263Y-113070148D01*
X108895892Y-113050606D01*
X108779572Y-112963133D01*
X108436814Y-113368549D01*
X108436814Y-113597468D01*
X109539223Y-113597468D01*
X109539223Y-113811808D01*
X109747050Y-113811808D01*
X109747050Y-113070148D01*
X109539223Y-113070148D01*
G37*
G36*
X108426888Y-114443662D02*
G01*
X108430076Y-114507418D01*
X108440829Y-114571118D01*
X108453874Y-114614886D01*
X108478974Y-114672037D01*
X108513105Y-114724997D01*
X108527078Y-114741753D01*
X108573389Y-114784796D01*
X108629998Y-114818539D01*
X108633783Y-114820231D01*
X108696209Y-114840470D01*
X108761891Y-114847217D01*
X108826024Y-114843291D01*
X108869526Y-114834809D01*
X108927638Y-114811885D01*
X108950175Y-114797587D01*
X108995773Y-114754199D01*
X109008491Y-114736790D01*
X109038659Y-114679618D01*
X109048195Y-114654280D01*
X109075376Y-114716564D01*
X109117309Y-114777371D01*
X109169407Y-114822976D01*
X109231667Y-114853379D01*
X109304091Y-114868581D01*
X109344115Y-114870481D01*
X109406649Y-114866816D01*
X109469419Y-114854317D01*
X109525885Y-114832948D01*
X109580192Y-114801222D01*
X109630854Y-114758779D01*
X109654613Y-114732447D01*
X109692000Y-114677958D01*
X109719059Y-114621753D01*
X109731540Y-114586349D01*
X109747040Y-114523041D01*
X109755386Y-114457814D01*
X109756976Y-114413263D01*
X109754097Y-114346394D01*
X109744480Y-114280547D01*
X109736503Y-114247933D01*
X109714196Y-114187721D01*
X109683102Y-114133566D01*
X109672604Y-114119205D01*
X109629975Y-114072691D01*
X109578084Y-114031402D01*
X109561557Y-114020565D01*
X109507264Y-113990263D01*
X109445818Y-113963102D01*
X109400879Y-113946740D01*
X109350939Y-114070195D01*
X109338117Y-114132932D01*
X109341013Y-114159219D01*
X109374329Y-114213604D01*
X109381958Y-114218465D01*
X109437538Y-114254428D01*
X109482302Y-114297854D01*
X109486491Y-114303457D01*
X109513427Y-114362703D01*
X109518751Y-114409541D01*
X109510201Y-114472529D01*
X109503552Y-114490500D01*
X109469125Y-114543226D01*
X109464778Y-114547575D01*
X109412389Y-114580967D01*
X109410495Y-114581696D01*
X109349078Y-114593483D01*
X109286166Y-114589287D01*
X109275873Y-114587589D01*
X109221502Y-114556685D01*
X109220039Y-114555020D01*
X109190959Y-114499651D01*
X109184058Y-114474371D01*
X109174519Y-114409774D01*
X109171539Y-114347382D01*
X109171340Y-114323929D01*
X108972819Y-114323929D01*
X108970622Y-114389043D01*
X108962048Y-114451987D01*
X108961342Y-114455139D01*
X108939911Y-114515230D01*
X108929083Y-114532376D01*
X108879142Y-114568668D01*
X108817118Y-114577654D01*
X108814933Y-114577663D01*
X108751267Y-114568358D01*
X108704196Y-114540441D01*
X108672593Y-114486395D01*
X108665112Y-114427532D01*
X108674829Y-114364174D01*
X108695821Y-114323309D01*
X108742131Y-114279021D01*
X108771507Y-114264993D01*
X108824200Y-114230155D01*
X108834165Y-114215673D01*
X108843737Y-114152462D01*
X108840989Y-114129131D01*
X108815243Y-113982412D01*
X108750861Y-113995514D01*
X108687480Y-114016829D01*
X108644640Y-114037625D01*
X108589458Y-114073866D01*
X108542364Y-114116557D01*
X108523356Y-114138436D01*
X108487883Y-114190248D01*
X108460601Y-114247895D01*
X108450772Y-114276470D01*
X108435308Y-114341624D01*
X108428031Y-114405127D01*
X108426888Y-114443662D01*
G37*
G36*
X124987050Y-112853326D02*
G01*
X124987030Y-112855660D01*
X124966577Y-112916294D01*
X124920669Y-112951655D01*
X124689269Y-113028582D01*
X124689269Y-113523333D01*
X124920669Y-113600259D01*
X124968438Y-113636862D01*
X124970692Y-113639945D01*
X124987050Y-113700450D01*
X124987050Y-113934332D01*
X123676814Y-113430586D01*
X123676814Y-113275182D01*
X123946988Y-113275182D01*
X123985955Y-113286581D01*
X124046248Y-113305580D01*
X124065754Y-113312141D01*
X124125966Y-113334118D01*
X124481442Y-113453850D01*
X124481442Y-113098374D01*
X124127828Y-113217797D01*
X124107828Y-113225548D01*
X124047799Y-113246024D01*
X124008715Y-113258019D01*
X123946988Y-113275182D01*
X123676814Y-113275182D01*
X123676814Y-113121328D01*
X124987050Y-112617582D01*
X124987050Y-112853326D01*
G37*
G36*
X123676814Y-114889402D02*
G01*
X123793755Y-114889402D01*
X123855878Y-114883831D01*
X123877816Y-114877615D01*
X123931168Y-114855282D01*
X124895234Y-114403337D01*
X124945891Y-114366231D01*
X124960063Y-114349985D01*
X124984414Y-114292073D01*
X124987050Y-114258479D01*
X124987050Y-114056546D01*
X124043456Y-114521209D01*
X123988302Y-114553576D01*
X123974284Y-114562774D01*
X123923846Y-114601680D01*
X123915038Y-114609612D01*
X123915038Y-114037005D01*
X123910386Y-114013430D01*
X123897047Y-113993578D01*
X123877816Y-113979930D01*
X123855482Y-113974657D01*
X123676814Y-113974657D01*
X123676814Y-114889402D01*
G37*
G36*
X132607050Y-112853326D02*
G01*
X132607030Y-112855660D01*
X132586577Y-112916294D01*
X132540669Y-112951655D01*
X132309269Y-113028582D01*
X132309269Y-113523333D01*
X132540669Y-113600259D01*
X132588438Y-113636862D01*
X132590692Y-113639945D01*
X132607050Y-113700450D01*
X132607050Y-113934332D01*
X131296814Y-113430586D01*
X131296814Y-113275182D01*
X131566988Y-113275182D01*
X131605955Y-113286581D01*
X131666248Y-113305580D01*
X131685754Y-113312141D01*
X131745966Y-113334118D01*
X132101442Y-113453850D01*
X132101442Y-113098374D01*
X131747828Y-113217797D01*
X131727828Y-113225548D01*
X131667799Y-113246024D01*
X131628715Y-113258019D01*
X131566988Y-113275182D01*
X131296814Y-113275182D01*
X131296814Y-113121328D01*
X132607050Y-112617582D01*
X132607050Y-112853326D01*
G37*
G36*
X132242578Y-113928128D02*
G01*
X132282592Y-113954184D01*
X132298722Y-114001333D01*
X132298722Y-114524931D01*
X132607050Y-114524931D01*
X132607050Y-114765947D01*
X132298722Y-114765947D01*
X132298722Y-114846286D01*
X132283523Y-114885990D01*
X132247541Y-114899949D01*
X132090896Y-114899949D01*
X132090896Y-114765947D01*
X131296814Y-114765947D01*
X131296814Y-114533616D01*
X131611034Y-114533616D01*
X131622912Y-114532312D01*
X131685480Y-114527102D01*
X131689958Y-114526839D01*
X131752480Y-114524931D01*
X132090896Y-114524931D01*
X132090896Y-114189927D01*
X131611034Y-114533616D01*
X131296814Y-114533616D01*
X131296814Y-114501667D01*
X132105785Y-113899591D01*
X132242578Y-113928128D01*
G37*
G36*
X158007050Y-112349579D02*
G01*
X158007050Y-112045905D01*
X156696814Y-112045905D01*
X156696814Y-112349579D01*
X158007050Y-112349579D01*
G37*
G36*
X156696814Y-112757167D02*
G01*
X156698675Y-112790047D01*
X156705189Y-112814242D01*
X156719147Y-112834714D01*
X156743342Y-112857048D01*
X157525017Y-113475253D01*
X157460997Y-113470470D01*
X157452122Y-113469980D01*
X157389364Y-113468126D01*
X157385432Y-113468119D01*
X156696814Y-113468119D01*
X156696814Y-113734261D01*
X158007050Y-113734261D01*
X158007050Y-113577305D01*
X157995883Y-113518680D01*
X157957109Y-113471841D01*
X157181638Y-112857978D01*
X157244215Y-112862122D01*
X157248329Y-112862321D01*
X157309436Y-112864182D01*
X158007050Y-112864182D01*
X158007050Y-112598040D01*
X156696814Y-112598040D01*
X156696814Y-112757167D01*
G37*
G36*
X156696814Y-114914217D02*
G01*
X156935038Y-114914217D01*
X156935038Y-114548195D01*
X158007050Y-114548195D01*
X158007050Y-114246071D01*
X156935038Y-114246071D01*
X156935038Y-113879739D01*
X156696814Y-113879739D01*
X156696814Y-114914217D01*
G37*
X156444950Y-112046969D02*
X156444950Y-114808000D01*
G36*
X165627050Y-112841849D02*
G01*
X165140054Y-112841849D01*
X165140054Y-112918465D01*
X165151531Y-112972128D01*
X165186892Y-113005938D01*
X165569354Y-113222140D01*
X165614372Y-113269485D01*
X165627050Y-113331326D01*
X165627050Y-113604602D01*
X165169522Y-113327604D01*
X165161747Y-113322398D01*
X165114928Y-113281075D01*
X165112052Y-113277839D01*
X165076465Y-113224931D01*
X165048936Y-113284720D01*
X165014738Y-113336909D01*
X164977079Y-113379225D01*
X164929126Y-113419109D01*
X164885453Y-113445275D01*
X164824592Y-113469670D01*
X164769876Y-113481915D01*
X164704239Y-113486730D01*
X164673396Y-113485727D01*
X164609637Y-113476670D01*
X164550075Y-113458193D01*
X164528347Y-113448427D01*
X164472503Y-113412057D01*
X164427241Y-113366377D01*
X164394126Y-113318761D01*
X164366437Y-113262496D01*
X164345971Y-113203838D01*
X164334610Y-113158287D01*
X164324103Y-113093877D01*
X164318636Y-113031102D01*
X164316814Y-112963132D01*
X164555038Y-112963132D01*
X164557985Y-113017784D01*
X164571660Y-113080457D01*
X164602187Y-113135907D01*
X164614546Y-113148993D01*
X164671080Y-113182526D01*
X164733086Y-113191741D01*
X164748593Y-113191305D01*
X164811254Y-113179334D01*
X164822368Y-113175078D01*
X164874532Y-113139009D01*
X164887308Y-113124217D01*
X164917028Y-113067976D01*
X164927418Y-113026687D01*
X164932227Y-112963132D01*
X164932227Y-112841849D01*
X164555038Y-112841849D01*
X164555038Y-112963132D01*
X164316814Y-112963132D01*
X164316814Y-112539725D01*
X165627050Y-112539725D01*
X165627050Y-112841849D01*
G37*
G36*
X165627050Y-114214122D02*
G01*
X165626858Y-114233013D01*
X165623173Y-114297434D01*
X165614797Y-114359213D01*
X165599482Y-114426582D01*
X165578040Y-114490500D01*
X165551131Y-114550580D01*
X165519414Y-114606123D01*
X165482889Y-114657129D01*
X165441557Y-114703599D01*
X165401608Y-114740482D01*
X165345709Y-114782232D01*
X165291736Y-114813988D01*
X165233731Y-114840703D01*
X165172333Y-114862009D01*
X165108182Y-114877227D01*
X165041278Y-114886359D01*
X164971621Y-114889402D01*
X164902236Y-114886359D01*
X164835526Y-114877227D01*
X164771492Y-114862009D01*
X164710133Y-114840703D01*
X164666272Y-114821139D01*
X164611388Y-114790644D01*
X164554557Y-114750311D01*
X164502927Y-114703599D01*
X164461710Y-114657129D01*
X164425224Y-114606123D01*
X164393469Y-114550580D01*
X164366444Y-114490500D01*
X164360434Y-114474844D01*
X164340272Y-114410063D01*
X164326313Y-114341831D01*
X164319189Y-114279298D01*
X164316814Y-114214122D01*
X164555038Y-114214122D01*
X164555743Y-114240794D01*
X164564166Y-114305746D01*
X164583886Y-114368596D01*
X164589516Y-114381148D01*
X164621627Y-114434820D01*
X164666706Y-114483366D01*
X164684148Y-114497554D01*
X164739110Y-114531481D01*
X164798226Y-114555329D01*
X164843169Y-114567475D01*
X164907748Y-114577486D01*
X164971621Y-114580455D01*
X165018809Y-114578884D01*
X165085082Y-114570640D01*
X165145947Y-114555329D01*
X165164893Y-114548777D01*
X165225478Y-114520346D01*
X165277157Y-114483366D01*
X165287056Y-114474398D01*
X165329927Y-114423998D01*
X165359977Y-114368596D01*
X165371218Y-114338091D01*
X165384768Y-114276557D01*
X165388825Y-114214122D01*
X165388825Y-114012189D01*
X164555038Y-114012189D01*
X164555038Y-114214122D01*
X164316814Y-114214122D01*
X164316814Y-113708515D01*
X165627050Y-113708515D01*
X165627050Y-114214122D01*
G37*
X164064950Y-112540789D02*
X164064950Y-114808000D01*
G36*
X188487050Y-113183056D02*
G01*
X188486858Y-113201947D01*
X188483173Y-113266368D01*
X188474797Y-113328147D01*
X188459482Y-113395516D01*
X188438040Y-113459434D01*
X188411131Y-113519514D01*
X188379414Y-113575057D01*
X188342889Y-113626063D01*
X188301557Y-113672533D01*
X188261608Y-113709416D01*
X188205709Y-113751166D01*
X188151736Y-113782922D01*
X188093731Y-113809637D01*
X188032333Y-113830943D01*
X187968182Y-113846161D01*
X187901278Y-113855293D01*
X187831621Y-113858336D01*
X187762236Y-113855293D01*
X187695526Y-113846161D01*
X187631492Y-113830943D01*
X187570133Y-113809637D01*
X187526272Y-113790073D01*
X187471388Y-113759578D01*
X187414557Y-113719245D01*
X187362927Y-113672533D01*
X187321710Y-113626063D01*
X187285224Y-113575057D01*
X187253469Y-113519514D01*
X187226444Y-113459434D01*
X187220434Y-113443778D01*
X187200272Y-113378997D01*
X187186313Y-113310765D01*
X187179189Y-113248232D01*
X187176814Y-113183056D01*
X187415038Y-113183056D01*
X187415743Y-113209728D01*
X187424166Y-113274680D01*
X187443886Y-113337530D01*
X187449516Y-113350082D01*
X187481627Y-113403754D01*
X187526706Y-113452300D01*
X187544148Y-113466488D01*
X187599110Y-113500415D01*
X187658226Y-113524263D01*
X187703169Y-113536409D01*
X187767748Y-113546420D01*
X187831621Y-113549389D01*
X187878809Y-113547818D01*
X187945082Y-113539574D01*
X188005947Y-113524263D01*
X188024893Y-113517711D01*
X188085478Y-113489280D01*
X188137157Y-113452300D01*
X188147056Y-113443332D01*
X188189927Y-113392933D01*
X188219977Y-113337530D01*
X188231218Y-113307025D01*
X188244768Y-113245491D01*
X188248825Y-113183056D01*
X188248825Y-112981123D01*
X187415038Y-112981123D01*
X187415038Y-113183056D01*
X187176814Y-113183056D01*
X187176814Y-112677449D01*
X188487050Y-112677449D01*
X188487050Y-113183056D01*
G37*
G36*
X187176814Y-114889403D02*
G01*
X187293755Y-114889403D01*
X187355878Y-114883831D01*
X187377816Y-114877615D01*
X187431168Y-114855282D01*
X188395234Y-114403337D01*
X188445891Y-114366231D01*
X188460063Y-114349985D01*
X188484414Y-114292073D01*
X188487050Y-114258479D01*
X188487050Y-114056547D01*
X187543456Y-114521209D01*
X187488302Y-114553576D01*
X187474284Y-114562774D01*
X187423846Y-114601681D01*
X187415038Y-114609613D01*
X187415038Y-114037005D01*
X187410386Y-114013431D01*
X187397047Y-113993578D01*
X187377816Y-113979930D01*
X187355482Y-113974657D01*
X187176814Y-113974657D01*
X187176814Y-114889403D01*
G37*
%LPC*%
D14*
X154305000Y-71120000D03*
D15*
X154305000Y-81280000D03*
D16*
X176530000Y-102870000D03*
D17*
X176530000Y-100330000D03*
X179070000Y-102870000D03*
X179070000Y-100330000D03*
X181610000Y-102870000D03*
X181610000Y-100330000D03*
X184150000Y-102870000D03*
X184150000Y-100330000D03*
X186690000Y-102870000D03*
X186690000Y-100330000D03*
X189230000Y-102870000D03*
X189230000Y-100330000D03*
X191770000Y-102870000D03*
X191770000Y-100330000D03*
X194310000Y-102870000D03*
X194310000Y-100330000D03*
X196850000Y-102870000D03*
X196850000Y-100330000D03*
D14*
X176530000Y-73700000D03*
X176530000Y-78700000D03*
D18*
X132080000Y-80010000D03*
D19*
X134620000Y-80010000D03*
X137160000Y-80010000D03*
X139700000Y-80010000D03*
X139700000Y-72390000D03*
X137160000Y-72390000D03*
X134620000Y-72390000D03*
X132080000Y-72390000D03*
D14*
X160655000Y-71120000D03*
D15*
X160655000Y-81280000D03*
D18*
X115570000Y-106680000D03*
D19*
X118110000Y-106680000D03*
X120650000Y-106680000D03*
X123190000Y-106680000D03*
X125730000Y-106680000D03*
X128270000Y-106680000D03*
X130810000Y-106680000D03*
X133350000Y-106680000D03*
X135890000Y-106680000D03*
X138430000Y-106680000D03*
X140970000Y-106680000D03*
X143510000Y-106680000D03*
X146050000Y-106680000D03*
X148590000Y-106680000D03*
X151130000Y-106680000D03*
X153670000Y-106680000D03*
X156210000Y-106680000D03*
X158750000Y-106680000D03*
X161290000Y-106680000D03*
X163830000Y-106680000D03*
X163830000Y-91440000D03*
X161290000Y-91440000D03*
X158750000Y-91440000D03*
X156210000Y-91440000D03*
X153670000Y-91440000D03*
X151130000Y-91440000D03*
X148590000Y-91440000D03*
X146050000Y-91440000D03*
X143510000Y-91440000D03*
X140970000Y-91440000D03*
X138430000Y-91440000D03*
X135890000Y-91440000D03*
X133350000Y-91440000D03*
X130810000Y-91440000D03*
X128270000Y-91440000D03*
X125730000Y-91440000D03*
X123190000Y-91440000D03*
X120650000Y-91440000D03*
X118110000Y-91440000D03*
X115570000Y-91440000D03*
D16*
X104140000Y-116840000D03*
D17*
X106680000Y-116840000D03*
X109220000Y-116840000D03*
X111760000Y-116840000D03*
X114300000Y-116840000D03*
X116840000Y-116840000D03*
X119380000Y-116840000D03*
X121920000Y-116840000D03*
X124460000Y-116840000D03*
X127000000Y-116840000D03*
X129540000Y-116840000D03*
X132080000Y-116840000D03*
X134620000Y-116840000D03*
X137160000Y-116840000D03*
X139700000Y-116840000D03*
X142240000Y-116840000D03*
X144780000Y-116840000D03*
X147320000Y-116840000D03*
X149860000Y-116840000D03*
X152400000Y-116840000D03*
X154940000Y-116840000D03*
X157480000Y-116840000D03*
X160020000Y-116840000D03*
X162560000Y-116840000D03*
X165100000Y-116840000D03*
X167640000Y-116840000D03*
X170180000Y-116840000D03*
X172720000Y-116840000D03*
X175260000Y-116840000D03*
X177800000Y-116840000D03*
X180340000Y-116840000D03*
X182880000Y-116840000D03*
X185420000Y-116840000D03*
X187960000Y-116840000D03*
X190500000Y-116840000D03*
X193040000Y-116840000D03*
X195580000Y-116840000D03*
X198120000Y-116840000D03*
X200660000Y-116840000D03*
D20*
X181610000Y-81280000D03*
X189230000Y-81280000D03*
D21*
X196850000Y-81280000D03*
X196850000Y-73660000D03*
X181610000Y-73660000D03*
X189230000Y-73660000D03*
D14*
X147955000Y-81280000D03*
D15*
X147955000Y-71120000D03*
D14*
X123230000Y-83820000D03*
X128230000Y-83820000D03*
D18*
X181610000Y-95250000D03*
D19*
X184150000Y-95250000D03*
X186690000Y-95250000D03*
X189230000Y-95250000D03*
X191770000Y-95250000D03*
X194310000Y-95250000D03*
X196850000Y-95250000D03*
X196850000Y-87630000D03*
X194310000Y-87630000D03*
X191770000Y-87630000D03*
X189230000Y-87630000D03*
X186690000Y-87630000D03*
X184150000Y-87630000D03*
X181610000Y-87630000D03*
D22*
X114220913Y-75637107D03*
X118817107Y-71040913D03*
X117402894Y-78819088D03*
X121999088Y-74222893D03*
D23*
X108585000Y-81280000D03*
D14*
X128270000Y-72390000D03*
X128270000Y-77390000D03*
X177800000Y-88940000D03*
X177800000Y-93940000D03*
X167005000Y-71120000D03*
D15*
X167005000Y-81280000D03*
D24*
X107910000Y-95250000D03*
D14*
X105410000Y-95250000D03*
X157480000Y-71120000D03*
D15*
X157480000Y-81280000D03*
D25*
X147310000Y-85540000D03*
D26*
X149850000Y-85540000D03*
X152390000Y-85540000D03*
D14*
X151130000Y-71120000D03*
D15*
X151130000Y-81280000D03*
D14*
X163830000Y-71120000D03*
D15*
X163830000Y-81280000D03*
D14*
X123270000Y-81280000D03*
X128270000Y-81280000D03*
X144780000Y-71120000D03*
D15*
X144780000Y-81280000D03*
D14*
X111760000Y-95210000D03*
X111760000Y-90210000D03*
%LPD*%
M02*
