%TF.GenerationSoftware,KiCad,Pcbnew,8.0.3+1*%
%TF.CreationDate,2024-06-25T00:50:04-06:00*%
%TF.ProjectId,z80-cpu,7a38302d-6370-4752-9e6b-696361645f70,rev?*%
%TF.SameCoordinates,Original*%
%TF.FileFunction,Drillmap*%
%TF.FilePolarity,Positive*%
%FSLAX45Y45*%
G04 Gerber Fmt 4.5, Leading zero omitted, Abs format (unit mm)*
G04 Created by KiCad (PCBNEW 8.0.3+1) date 2024-06-25 00:50:04*
%MOMM*%
%LPD*%
G01*
G04 APERTURE LIST*
%ADD10C,0.150000*%
%ADD11C,0.200000*%
%ADD12C,0.320000*%
G04 APERTURE END LIST*
D10*
X19663740Y-6858000D02*
G75*
G02*
X20181740Y-7376000I0J-518000D01*
G01*
X10271760Y-8359140D02*
X10271760Y-11844020D01*
X10271760Y-11844020D02*
X20181900Y-11844020D01*
X20181900Y-7376000D02*
X20181900Y-11844020D01*
X11772900Y-6858000D02*
X10271760Y-8359140D01*
X19663740Y-6858000D02*
X11772900Y-6858000D01*
D11*
D12*
X10698500Y-7968000D02*
X11018500Y-8288000D01*
X11018500Y-7968000D02*
X10698500Y-8288000D01*
D11*
X10525037Y-12163004D02*
X10525037Y-11963004D01*
X10525037Y-11963004D02*
X10572656Y-11963004D01*
X10572656Y-11963004D02*
X10601227Y-11972528D01*
X10601227Y-11972528D02*
X10620275Y-11991575D01*
X10620275Y-11991575D02*
X10629799Y-12010623D01*
X10629799Y-12010623D02*
X10639323Y-12048718D01*
X10639323Y-12048718D02*
X10639323Y-12077289D01*
X10639323Y-12077289D02*
X10629799Y-12115385D01*
X10629799Y-12115385D02*
X10620275Y-12134432D01*
X10620275Y-12134432D02*
X10601227Y-12153480D01*
X10601227Y-12153480D02*
X10572656Y-12163004D01*
X10572656Y-12163004D02*
X10525037Y-12163004D01*
X10725037Y-12163004D02*
X10725037Y-12029670D01*
X10725037Y-12067766D02*
X10734561Y-12048718D01*
X10734561Y-12048718D02*
X10744084Y-12039194D01*
X10744084Y-12039194D02*
X10763132Y-12029670D01*
X10763132Y-12029670D02*
X10782180Y-12029670D01*
X10848846Y-12163004D02*
X10848846Y-12029670D01*
X10848846Y-11963004D02*
X10839323Y-11972528D01*
X10839323Y-11972528D02*
X10848846Y-11982051D01*
X10848846Y-11982051D02*
X10858370Y-11972528D01*
X10858370Y-11972528D02*
X10848846Y-11963004D01*
X10848846Y-11963004D02*
X10848846Y-11982051D01*
X10972656Y-12163004D02*
X10953608Y-12153480D01*
X10953608Y-12153480D02*
X10944084Y-12134432D01*
X10944084Y-12134432D02*
X10944084Y-11963004D01*
X11077418Y-12163004D02*
X11058370Y-12153480D01*
X11058370Y-12153480D02*
X11048846Y-12134432D01*
X11048846Y-12134432D02*
X11048846Y-11963004D01*
X11305989Y-12163004D02*
X11305989Y-11963004D01*
X11305989Y-11963004D02*
X11372656Y-12105861D01*
X11372656Y-12105861D02*
X11439322Y-11963004D01*
X11439322Y-11963004D02*
X11439322Y-12163004D01*
X11620275Y-12163004D02*
X11620275Y-12058242D01*
X11620275Y-12058242D02*
X11610751Y-12039194D01*
X11610751Y-12039194D02*
X11591703Y-12029670D01*
X11591703Y-12029670D02*
X11553608Y-12029670D01*
X11553608Y-12029670D02*
X11534561Y-12039194D01*
X11620275Y-12153480D02*
X11601227Y-12163004D01*
X11601227Y-12163004D02*
X11553608Y-12163004D01*
X11553608Y-12163004D02*
X11534561Y-12153480D01*
X11534561Y-12153480D02*
X11525037Y-12134432D01*
X11525037Y-12134432D02*
X11525037Y-12115385D01*
X11525037Y-12115385D02*
X11534561Y-12096337D01*
X11534561Y-12096337D02*
X11553608Y-12086813D01*
X11553608Y-12086813D02*
X11601227Y-12086813D01*
X11601227Y-12086813D02*
X11620275Y-12077289D01*
X11715513Y-12029670D02*
X11715513Y-12229670D01*
X11715513Y-12039194D02*
X11734561Y-12029670D01*
X11734561Y-12029670D02*
X11772656Y-12029670D01*
X11772656Y-12029670D02*
X11791703Y-12039194D01*
X11791703Y-12039194D02*
X11801227Y-12048718D01*
X11801227Y-12048718D02*
X11810751Y-12067766D01*
X11810751Y-12067766D02*
X11810751Y-12124908D01*
X11810751Y-12124908D02*
X11801227Y-12143956D01*
X11801227Y-12143956D02*
X11791703Y-12153480D01*
X11791703Y-12153480D02*
X11772656Y-12163004D01*
X11772656Y-12163004D02*
X11734561Y-12163004D01*
X11734561Y-12163004D02*
X11715513Y-12153480D01*
X11896465Y-12143956D02*
X11905989Y-12153480D01*
X11905989Y-12153480D02*
X11896465Y-12163004D01*
X11896465Y-12163004D02*
X11886942Y-12153480D01*
X11886942Y-12153480D02*
X11896465Y-12143956D01*
X11896465Y-12143956D02*
X11896465Y-12163004D01*
X11896465Y-12039194D02*
X11905989Y-12048718D01*
X11905989Y-12048718D02*
X11896465Y-12058242D01*
X11896465Y-12058242D02*
X11886942Y-12048718D01*
X11886942Y-12048718D02*
X11896465Y-12039194D01*
X11896465Y-12039194D02*
X11896465Y-12058242D01*
X10064260Y-12391520D02*
X10264260Y-12591520D01*
X10264260Y-12391520D02*
X10064260Y-12591520D01*
X10505989Y-12383004D02*
X10629799Y-12383004D01*
X10629799Y-12383004D02*
X10563132Y-12459194D01*
X10563132Y-12459194D02*
X10591704Y-12459194D01*
X10591704Y-12459194D02*
X10610751Y-12468718D01*
X10610751Y-12468718D02*
X10620275Y-12478242D01*
X10620275Y-12478242D02*
X10629799Y-12497289D01*
X10629799Y-12497289D02*
X10629799Y-12544908D01*
X10629799Y-12544908D02*
X10620275Y-12563956D01*
X10620275Y-12563956D02*
X10610751Y-12573480D01*
X10610751Y-12573480D02*
X10591704Y-12583004D01*
X10591704Y-12583004D02*
X10534561Y-12583004D01*
X10534561Y-12583004D02*
X10515513Y-12573480D01*
X10515513Y-12573480D02*
X10505989Y-12563956D01*
X10715513Y-12563956D02*
X10725037Y-12573480D01*
X10725037Y-12573480D02*
X10715513Y-12583004D01*
X10715513Y-12583004D02*
X10705989Y-12573480D01*
X10705989Y-12573480D02*
X10715513Y-12563956D01*
X10715513Y-12563956D02*
X10715513Y-12583004D01*
X10801227Y-12402051D02*
X10810751Y-12392528D01*
X10810751Y-12392528D02*
X10829799Y-12383004D01*
X10829799Y-12383004D02*
X10877418Y-12383004D01*
X10877418Y-12383004D02*
X10896465Y-12392528D01*
X10896465Y-12392528D02*
X10905989Y-12402051D01*
X10905989Y-12402051D02*
X10915513Y-12421099D01*
X10915513Y-12421099D02*
X10915513Y-12440147D01*
X10915513Y-12440147D02*
X10905989Y-12468718D01*
X10905989Y-12468718D02*
X10791704Y-12583004D01*
X10791704Y-12583004D02*
X10915513Y-12583004D01*
X11039323Y-12383004D02*
X11058370Y-12383004D01*
X11058370Y-12383004D02*
X11077418Y-12392528D01*
X11077418Y-12392528D02*
X11086942Y-12402051D01*
X11086942Y-12402051D02*
X11096465Y-12421099D01*
X11096465Y-12421099D02*
X11105989Y-12459194D01*
X11105989Y-12459194D02*
X11105989Y-12506813D01*
X11105989Y-12506813D02*
X11096465Y-12544908D01*
X11096465Y-12544908D02*
X11086942Y-12563956D01*
X11086942Y-12563956D02*
X11077418Y-12573480D01*
X11077418Y-12573480D02*
X11058370Y-12583004D01*
X11058370Y-12583004D02*
X11039323Y-12583004D01*
X11039323Y-12583004D02*
X11020275Y-12573480D01*
X11020275Y-12573480D02*
X11010751Y-12563956D01*
X11010751Y-12563956D02*
X11001227Y-12544908D01*
X11001227Y-12544908D02*
X10991704Y-12506813D01*
X10991704Y-12506813D02*
X10991704Y-12459194D01*
X10991704Y-12459194D02*
X11001227Y-12421099D01*
X11001227Y-12421099D02*
X11010751Y-12402051D01*
X11010751Y-12402051D02*
X11020275Y-12392528D01*
X11020275Y-12392528D02*
X11039323Y-12383004D01*
X11229799Y-12383004D02*
X11248846Y-12383004D01*
X11248846Y-12383004D02*
X11267894Y-12392528D01*
X11267894Y-12392528D02*
X11277418Y-12402051D01*
X11277418Y-12402051D02*
X11286942Y-12421099D01*
X11286942Y-12421099D02*
X11296465Y-12459194D01*
X11296465Y-12459194D02*
X11296465Y-12506813D01*
X11296465Y-12506813D02*
X11286942Y-12544908D01*
X11286942Y-12544908D02*
X11277418Y-12563956D01*
X11277418Y-12563956D02*
X11267894Y-12573480D01*
X11267894Y-12573480D02*
X11248846Y-12583004D01*
X11248846Y-12583004D02*
X11229799Y-12583004D01*
X11229799Y-12583004D02*
X11210751Y-12573480D01*
X11210751Y-12573480D02*
X11201227Y-12563956D01*
X11201227Y-12563956D02*
X11191703Y-12544908D01*
X11191703Y-12544908D02*
X11182180Y-12506813D01*
X11182180Y-12506813D02*
X11182180Y-12459194D01*
X11182180Y-12459194D02*
X11191703Y-12421099D01*
X11191703Y-12421099D02*
X11201227Y-12402051D01*
X11201227Y-12402051D02*
X11210751Y-12392528D01*
X11210751Y-12392528D02*
X11229799Y-12383004D01*
X11382180Y-12583004D02*
X11382180Y-12449670D01*
X11382180Y-12468718D02*
X11391703Y-12459194D01*
X11391703Y-12459194D02*
X11410751Y-12449670D01*
X11410751Y-12449670D02*
X11439323Y-12449670D01*
X11439323Y-12449670D02*
X11458370Y-12459194D01*
X11458370Y-12459194D02*
X11467894Y-12478242D01*
X11467894Y-12478242D02*
X11467894Y-12583004D01*
X11467894Y-12478242D02*
X11477418Y-12459194D01*
X11477418Y-12459194D02*
X11496465Y-12449670D01*
X11496465Y-12449670D02*
X11525037Y-12449670D01*
X11525037Y-12449670D02*
X11544084Y-12459194D01*
X11544084Y-12459194D02*
X11553608Y-12478242D01*
X11553608Y-12478242D02*
X11553608Y-12583004D01*
X11648846Y-12583004D02*
X11648846Y-12449670D01*
X11648846Y-12468718D02*
X11658370Y-12459194D01*
X11658370Y-12459194D02*
X11677418Y-12449670D01*
X11677418Y-12449670D02*
X11705989Y-12449670D01*
X11705989Y-12449670D02*
X11725037Y-12459194D01*
X11725037Y-12459194D02*
X11734561Y-12478242D01*
X11734561Y-12478242D02*
X11734561Y-12583004D01*
X11734561Y-12478242D02*
X11744084Y-12459194D01*
X11744084Y-12459194D02*
X11763132Y-12449670D01*
X11763132Y-12449670D02*
X11791703Y-12449670D01*
X11791703Y-12449670D02*
X11810751Y-12459194D01*
X11810751Y-12459194D02*
X11820275Y-12478242D01*
X11820275Y-12478242D02*
X11820275Y-12583004D01*
X12210751Y-12373480D02*
X12039323Y-12630623D01*
X12467894Y-12383004D02*
X12486942Y-12383004D01*
X12486942Y-12383004D02*
X12505989Y-12392528D01*
X12505989Y-12392528D02*
X12515513Y-12402051D01*
X12515513Y-12402051D02*
X12525037Y-12421099D01*
X12525037Y-12421099D02*
X12534561Y-12459194D01*
X12534561Y-12459194D02*
X12534561Y-12506813D01*
X12534561Y-12506813D02*
X12525037Y-12544908D01*
X12525037Y-12544908D02*
X12515513Y-12563956D01*
X12515513Y-12563956D02*
X12505989Y-12573480D01*
X12505989Y-12573480D02*
X12486942Y-12583004D01*
X12486942Y-12583004D02*
X12467894Y-12583004D01*
X12467894Y-12583004D02*
X12448846Y-12573480D01*
X12448846Y-12573480D02*
X12439323Y-12563956D01*
X12439323Y-12563956D02*
X12429799Y-12544908D01*
X12429799Y-12544908D02*
X12420275Y-12506813D01*
X12420275Y-12506813D02*
X12420275Y-12459194D01*
X12420275Y-12459194D02*
X12429799Y-12421099D01*
X12429799Y-12421099D02*
X12439323Y-12402051D01*
X12439323Y-12402051D02*
X12448846Y-12392528D01*
X12448846Y-12392528D02*
X12467894Y-12383004D01*
X12620275Y-12563956D02*
X12629799Y-12573480D01*
X12629799Y-12573480D02*
X12620275Y-12583004D01*
X12620275Y-12583004D02*
X12610751Y-12573480D01*
X12610751Y-12573480D02*
X12620275Y-12563956D01*
X12620275Y-12563956D02*
X12620275Y-12583004D01*
X12820275Y-12583004D02*
X12705989Y-12583004D01*
X12763132Y-12583004D02*
X12763132Y-12383004D01*
X12763132Y-12383004D02*
X12744085Y-12411575D01*
X12744085Y-12411575D02*
X12725037Y-12430623D01*
X12725037Y-12430623D02*
X12705989Y-12440147D01*
X12896466Y-12402051D02*
X12905989Y-12392528D01*
X12905989Y-12392528D02*
X12925037Y-12383004D01*
X12925037Y-12383004D02*
X12972656Y-12383004D01*
X12972656Y-12383004D02*
X12991704Y-12392528D01*
X12991704Y-12392528D02*
X13001227Y-12402051D01*
X13001227Y-12402051D02*
X13010751Y-12421099D01*
X13010751Y-12421099D02*
X13010751Y-12440147D01*
X13010751Y-12440147D02*
X13001227Y-12468718D01*
X13001227Y-12468718D02*
X12886942Y-12583004D01*
X12886942Y-12583004D02*
X13010751Y-12583004D01*
X13182180Y-12383004D02*
X13144085Y-12383004D01*
X13144085Y-12383004D02*
X13125037Y-12392528D01*
X13125037Y-12392528D02*
X13115513Y-12402051D01*
X13115513Y-12402051D02*
X13096466Y-12430623D01*
X13096466Y-12430623D02*
X13086942Y-12468718D01*
X13086942Y-12468718D02*
X13086942Y-12544908D01*
X13086942Y-12544908D02*
X13096466Y-12563956D01*
X13096466Y-12563956D02*
X13105989Y-12573480D01*
X13105989Y-12573480D02*
X13125037Y-12583004D01*
X13125037Y-12583004D02*
X13163132Y-12583004D01*
X13163132Y-12583004D02*
X13182180Y-12573480D01*
X13182180Y-12573480D02*
X13191704Y-12563956D01*
X13191704Y-12563956D02*
X13201227Y-12544908D01*
X13201227Y-12544908D02*
X13201227Y-12497289D01*
X13201227Y-12497289D02*
X13191704Y-12478242D01*
X13191704Y-12478242D02*
X13182180Y-12468718D01*
X13182180Y-12468718D02*
X13163132Y-12459194D01*
X13163132Y-12459194D02*
X13125037Y-12459194D01*
X13125037Y-12459194D02*
X13105989Y-12468718D01*
X13105989Y-12468718D02*
X13096466Y-12478242D01*
X13096466Y-12478242D02*
X13086942Y-12497289D01*
X13325037Y-12383004D02*
X13344085Y-12383004D01*
X13344085Y-12383004D02*
X13363132Y-12392528D01*
X13363132Y-12392528D02*
X13372656Y-12402051D01*
X13372656Y-12402051D02*
X13382180Y-12421099D01*
X13382180Y-12421099D02*
X13391704Y-12459194D01*
X13391704Y-12459194D02*
X13391704Y-12506813D01*
X13391704Y-12506813D02*
X13382180Y-12544908D01*
X13382180Y-12544908D02*
X13372656Y-12563956D01*
X13372656Y-12563956D02*
X13363132Y-12573480D01*
X13363132Y-12573480D02*
X13344085Y-12583004D01*
X13344085Y-12583004D02*
X13325037Y-12583004D01*
X13325037Y-12583004D02*
X13305989Y-12573480D01*
X13305989Y-12573480D02*
X13296466Y-12563956D01*
X13296466Y-12563956D02*
X13286942Y-12544908D01*
X13286942Y-12544908D02*
X13277418Y-12506813D01*
X13277418Y-12506813D02*
X13277418Y-12459194D01*
X13277418Y-12459194D02*
X13286942Y-12421099D01*
X13286942Y-12421099D02*
X13296466Y-12402051D01*
X13296466Y-12402051D02*
X13305989Y-12392528D01*
X13305989Y-12392528D02*
X13325037Y-12383004D01*
X13467894Y-12383004D02*
X13467894Y-12421099D01*
X13544085Y-12383004D02*
X13544085Y-12421099D01*
X13839323Y-12659194D02*
X13829799Y-12649670D01*
X13829799Y-12649670D02*
X13810751Y-12621099D01*
X13810751Y-12621099D02*
X13801228Y-12602051D01*
X13801228Y-12602051D02*
X13791704Y-12573480D01*
X13791704Y-12573480D02*
X13782180Y-12525861D01*
X13782180Y-12525861D02*
X13782180Y-12487766D01*
X13782180Y-12487766D02*
X13791704Y-12440147D01*
X13791704Y-12440147D02*
X13801228Y-12411575D01*
X13801228Y-12411575D02*
X13810751Y-12392528D01*
X13810751Y-12392528D02*
X13829799Y-12363956D01*
X13829799Y-12363956D02*
X13839323Y-12354432D01*
X14020275Y-12583004D02*
X13905989Y-12583004D01*
X13963132Y-12583004D02*
X13963132Y-12383004D01*
X13963132Y-12383004D02*
X13944085Y-12411575D01*
X13944085Y-12411575D02*
X13925037Y-12430623D01*
X13925037Y-12430623D02*
X13905989Y-12440147D01*
X14258370Y-12583004D02*
X14258370Y-12383004D01*
X14344085Y-12583004D02*
X14344085Y-12478242D01*
X14344085Y-12478242D02*
X14334561Y-12459194D01*
X14334561Y-12459194D02*
X14315513Y-12449670D01*
X14315513Y-12449670D02*
X14286942Y-12449670D01*
X14286942Y-12449670D02*
X14267894Y-12459194D01*
X14267894Y-12459194D02*
X14258370Y-12468718D01*
X14467894Y-12583004D02*
X14448847Y-12573480D01*
X14448847Y-12573480D02*
X14439323Y-12563956D01*
X14439323Y-12563956D02*
X14429799Y-12544908D01*
X14429799Y-12544908D02*
X14429799Y-12487766D01*
X14429799Y-12487766D02*
X14439323Y-12468718D01*
X14439323Y-12468718D02*
X14448847Y-12459194D01*
X14448847Y-12459194D02*
X14467894Y-12449670D01*
X14467894Y-12449670D02*
X14496466Y-12449670D01*
X14496466Y-12449670D02*
X14515513Y-12459194D01*
X14515513Y-12459194D02*
X14525037Y-12468718D01*
X14525037Y-12468718D02*
X14534561Y-12487766D01*
X14534561Y-12487766D02*
X14534561Y-12544908D01*
X14534561Y-12544908D02*
X14525037Y-12563956D01*
X14525037Y-12563956D02*
X14515513Y-12573480D01*
X14515513Y-12573480D02*
X14496466Y-12583004D01*
X14496466Y-12583004D02*
X14467894Y-12583004D01*
X14648847Y-12583004D02*
X14629799Y-12573480D01*
X14629799Y-12573480D02*
X14620275Y-12554432D01*
X14620275Y-12554432D02*
X14620275Y-12383004D01*
X14801228Y-12573480D02*
X14782180Y-12583004D01*
X14782180Y-12583004D02*
X14744085Y-12583004D01*
X14744085Y-12583004D02*
X14725037Y-12573480D01*
X14725037Y-12573480D02*
X14715513Y-12554432D01*
X14715513Y-12554432D02*
X14715513Y-12478242D01*
X14715513Y-12478242D02*
X14725037Y-12459194D01*
X14725037Y-12459194D02*
X14744085Y-12449670D01*
X14744085Y-12449670D02*
X14782180Y-12449670D01*
X14782180Y-12449670D02*
X14801228Y-12459194D01*
X14801228Y-12459194D02*
X14810751Y-12478242D01*
X14810751Y-12478242D02*
X14810751Y-12497289D01*
X14810751Y-12497289D02*
X14715513Y-12516337D01*
X14877418Y-12659194D02*
X14886942Y-12649670D01*
X14886942Y-12649670D02*
X14905990Y-12621099D01*
X14905990Y-12621099D02*
X14915513Y-12602051D01*
X14915513Y-12602051D02*
X14925037Y-12573480D01*
X14925037Y-12573480D02*
X14934561Y-12525861D01*
X14934561Y-12525861D02*
X14934561Y-12487766D01*
X14934561Y-12487766D02*
X14925037Y-12440147D01*
X14925037Y-12440147D02*
X14915513Y-12411575D01*
X14915513Y-12411575D02*
X14905990Y-12392528D01*
X14905990Y-12392528D02*
X14886942Y-12363956D01*
X14886942Y-12363956D02*
X14877418Y-12354432D01*
X15239323Y-12659194D02*
X15229799Y-12649670D01*
X15229799Y-12649670D02*
X15210751Y-12621099D01*
X15210751Y-12621099D02*
X15201228Y-12602051D01*
X15201228Y-12602051D02*
X15191704Y-12573480D01*
X15191704Y-12573480D02*
X15182180Y-12525861D01*
X15182180Y-12525861D02*
X15182180Y-12487766D01*
X15182180Y-12487766D02*
X15191704Y-12440147D01*
X15191704Y-12440147D02*
X15201228Y-12411575D01*
X15201228Y-12411575D02*
X15210751Y-12392528D01*
X15210751Y-12392528D02*
X15229799Y-12363956D01*
X15229799Y-12363956D02*
X15239323Y-12354432D01*
X15315513Y-12449670D02*
X15315513Y-12583004D01*
X15315513Y-12468718D02*
X15325037Y-12459194D01*
X15325037Y-12459194D02*
X15344085Y-12449670D01*
X15344085Y-12449670D02*
X15372656Y-12449670D01*
X15372656Y-12449670D02*
X15391704Y-12459194D01*
X15391704Y-12459194D02*
X15401228Y-12478242D01*
X15401228Y-12478242D02*
X15401228Y-12583004D01*
X15525037Y-12583004D02*
X15505990Y-12573480D01*
X15505990Y-12573480D02*
X15496466Y-12563956D01*
X15496466Y-12563956D02*
X15486942Y-12544908D01*
X15486942Y-12544908D02*
X15486942Y-12487766D01*
X15486942Y-12487766D02*
X15496466Y-12468718D01*
X15496466Y-12468718D02*
X15505990Y-12459194D01*
X15505990Y-12459194D02*
X15525037Y-12449670D01*
X15525037Y-12449670D02*
X15553609Y-12449670D01*
X15553609Y-12449670D02*
X15572656Y-12459194D01*
X15572656Y-12459194D02*
X15582180Y-12468718D01*
X15582180Y-12468718D02*
X15591704Y-12487766D01*
X15591704Y-12487766D02*
X15591704Y-12544908D01*
X15591704Y-12544908D02*
X15582180Y-12563956D01*
X15582180Y-12563956D02*
X15572656Y-12573480D01*
X15572656Y-12573480D02*
X15553609Y-12583004D01*
X15553609Y-12583004D02*
X15525037Y-12583004D01*
X15648847Y-12449670D02*
X15725037Y-12449670D01*
X15677418Y-12383004D02*
X15677418Y-12554432D01*
X15677418Y-12554432D02*
X15686942Y-12573480D01*
X15686942Y-12573480D02*
X15705990Y-12583004D01*
X15705990Y-12583004D02*
X15725037Y-12583004D01*
X15944085Y-12449670D02*
X15944085Y-12649670D01*
X15944085Y-12459194D02*
X15963132Y-12449670D01*
X15963132Y-12449670D02*
X16001228Y-12449670D01*
X16001228Y-12449670D02*
X16020275Y-12459194D01*
X16020275Y-12459194D02*
X16029799Y-12468718D01*
X16029799Y-12468718D02*
X16039323Y-12487766D01*
X16039323Y-12487766D02*
X16039323Y-12544908D01*
X16039323Y-12544908D02*
X16029799Y-12563956D01*
X16029799Y-12563956D02*
X16020275Y-12573480D01*
X16020275Y-12573480D02*
X16001228Y-12583004D01*
X16001228Y-12583004D02*
X15963132Y-12583004D01*
X15963132Y-12583004D02*
X15944085Y-12573480D01*
X16153609Y-12583004D02*
X16134561Y-12573480D01*
X16134561Y-12573480D02*
X16125037Y-12554432D01*
X16125037Y-12554432D02*
X16125037Y-12383004D01*
X16315513Y-12583004D02*
X16315513Y-12478242D01*
X16315513Y-12478242D02*
X16305990Y-12459194D01*
X16305990Y-12459194D02*
X16286942Y-12449670D01*
X16286942Y-12449670D02*
X16248847Y-12449670D01*
X16248847Y-12449670D02*
X16229799Y-12459194D01*
X16315513Y-12573480D02*
X16296466Y-12583004D01*
X16296466Y-12583004D02*
X16248847Y-12583004D01*
X16248847Y-12583004D02*
X16229799Y-12573480D01*
X16229799Y-12573480D02*
X16220275Y-12554432D01*
X16220275Y-12554432D02*
X16220275Y-12535385D01*
X16220275Y-12535385D02*
X16229799Y-12516337D01*
X16229799Y-12516337D02*
X16248847Y-12506813D01*
X16248847Y-12506813D02*
X16296466Y-12506813D01*
X16296466Y-12506813D02*
X16315513Y-12497289D01*
X16382180Y-12449670D02*
X16458371Y-12449670D01*
X16410752Y-12383004D02*
X16410752Y-12554432D01*
X16410752Y-12554432D02*
X16420275Y-12573480D01*
X16420275Y-12573480D02*
X16439323Y-12583004D01*
X16439323Y-12583004D02*
X16458371Y-12583004D01*
X16601228Y-12573480D02*
X16582180Y-12583004D01*
X16582180Y-12583004D02*
X16544085Y-12583004D01*
X16544085Y-12583004D02*
X16525037Y-12573480D01*
X16525037Y-12573480D02*
X16515513Y-12554432D01*
X16515513Y-12554432D02*
X16515513Y-12478242D01*
X16515513Y-12478242D02*
X16525037Y-12459194D01*
X16525037Y-12459194D02*
X16544085Y-12449670D01*
X16544085Y-12449670D02*
X16582180Y-12449670D01*
X16582180Y-12449670D02*
X16601228Y-12459194D01*
X16601228Y-12459194D02*
X16610752Y-12478242D01*
X16610752Y-12478242D02*
X16610752Y-12497289D01*
X16610752Y-12497289D02*
X16515513Y-12516337D01*
X16782180Y-12583004D02*
X16782180Y-12383004D01*
X16782180Y-12573480D02*
X16763133Y-12583004D01*
X16763133Y-12583004D02*
X16725037Y-12583004D01*
X16725037Y-12583004D02*
X16705990Y-12573480D01*
X16705990Y-12573480D02*
X16696466Y-12563956D01*
X16696466Y-12563956D02*
X16686942Y-12544908D01*
X16686942Y-12544908D02*
X16686942Y-12487766D01*
X16686942Y-12487766D02*
X16696466Y-12468718D01*
X16696466Y-12468718D02*
X16705990Y-12459194D01*
X16705990Y-12459194D02*
X16725037Y-12449670D01*
X16725037Y-12449670D02*
X16763133Y-12449670D01*
X16763133Y-12449670D02*
X16782180Y-12459194D01*
X16858371Y-12659194D02*
X16867895Y-12649670D01*
X16867895Y-12649670D02*
X16886942Y-12621099D01*
X16886942Y-12621099D02*
X16896466Y-12602051D01*
X16896466Y-12602051D02*
X16905990Y-12573480D01*
X16905990Y-12573480D02*
X16915514Y-12525861D01*
X16915514Y-12525861D02*
X16915514Y-12487766D01*
X16915514Y-12487766D02*
X16905990Y-12440147D01*
X16905990Y-12440147D02*
X16896466Y-12411575D01*
X16896466Y-12411575D02*
X16886942Y-12392528D01*
X16886942Y-12392528D02*
X16867895Y-12363956D01*
X16867895Y-12363956D02*
X16858371Y-12354432D01*
M02*
