M48
; DRILL file {KiCad 8.0.3+1} date 2024-06-25T00:49:59-0600
; FORMAT={-:-/ absolute / metric / decimal}
; #@! TF.CreationDate,2024-06-25T00:49:59-06:00
; #@! TF.GenerationSoftware,Kicad,Pcbnew,8.0.3+1
; #@! TF.FileFunction,Plated,1,2,PTH
FMAT,2
METRIC
; #@! TA.AperFunction,Plated,PTH,ViaDrill
T1C0.381
; #@! TA.AperFunction,Plated,PTH,ViaDrill
T2C0.508
; #@! TA.AperFunction,Plated,PTH,ComponentDrill
T3C0.800
; #@! TA.AperFunction,Plated,PTH,ComponentDrill
T4C1.000
; #@! TA.AperFunction,Plated,PTH,ComponentDrill
T5C1.100
%
G90
G05
T1
X128.27Y-111.76
X138.43Y-96.52
X186.69Y-111.76
T2
X109.855Y-99.695
X110.49Y-101.6
X111.76Y-102.87
X113.03Y-104.14
X130.81Y-99.06
X133.35Y-100.33
X134.62Y-82.55
X135.89Y-76.835
X135.89Y-97.79
X139.7Y-74.93
X140.97Y-95.25
X143.51Y-101.6
X146.05Y-95.25
X147.32Y-110.49
X147.955Y-76.835
X148.59Y-104.14
X151.13Y-78.105
X151.13Y-102.87
X163.83Y-114.3
X166.37Y-104.14
X167.005Y-102.87
X167.64Y-101.6
X167.64Y-114.3
X168.275Y-100.33
X168.91Y-99.06
X169.545Y-97.79
X170.18Y-96.52
X170.815Y-95.25
T3
X105.41Y-95.25
X107.91Y-95.25
X111.76Y-90.21
X111.76Y-95.21
X115.57Y-91.44
X115.57Y-106.68
X118.11Y-91.44
X118.11Y-106.68
X120.65Y-91.44
X120.65Y-106.68
X123.19Y-91.44
X123.19Y-106.68
X123.23Y-83.82
X123.27Y-81.28
X125.73Y-91.44
X125.73Y-106.68
X128.23Y-83.82
X128.27Y-72.39
X128.27Y-77.39
X128.27Y-81.28
X128.27Y-91.44
X128.27Y-106.68
X130.81Y-91.44
X130.81Y-106.68
X132.08Y-72.39
X132.08Y-80.01
X133.35Y-91.44
X133.35Y-106.68
X134.62Y-72.39
X134.62Y-80.01
X135.89Y-91.44
X135.89Y-106.68
X137.16Y-72.39
X137.16Y-80.01
X138.43Y-91.44
X138.43Y-106.68
X139.7Y-72.39
X139.7Y-80.01
X140.97Y-91.44
X140.97Y-106.68
X143.51Y-91.44
X143.51Y-106.68
X144.78Y-71.12
X144.78Y-81.28
X146.05Y-91.44
X146.05Y-106.68
X147.31Y-85.54
X147.955Y-71.12
X147.955Y-81.28
X148.59Y-91.44
X148.59Y-106.68
X149.85Y-85.54
X151.13Y-71.12
X151.13Y-81.28
X151.13Y-91.44
X151.13Y-106.68
X152.39Y-85.54
X153.67Y-91.44
X153.67Y-106.68
X156.21Y-71.12
X156.21Y-81.28
X156.21Y-91.44
X156.21Y-106.68
X158.75Y-91.44
X158.75Y-106.68
X159.385Y-71.12
X159.385Y-81.28
X161.29Y-91.44
X161.29Y-106.68
X162.56Y-71.12
X162.56Y-81.28
X163.83Y-91.44
X163.83Y-106.68
X165.735Y-71.12
X165.735Y-81.28
X176.53Y-73.7
X176.53Y-78.7
X177.8Y-88.94
X177.8Y-93.94
X181.61Y-87.63
X181.61Y-95.25
X184.15Y-87.63
X184.15Y-95.25
X186.69Y-87.63
X186.69Y-95.25
X189.23Y-87.63
X189.23Y-95.25
X191.77Y-87.63
X191.77Y-95.25
X194.31Y-87.63
X194.31Y-95.25
X196.85Y-87.63
X196.85Y-95.25
T4
X104.14Y-116.84
X106.68Y-116.84
X109.22Y-116.84
X111.76Y-116.84
X114.3Y-116.84
X116.84Y-116.84
X119.38Y-116.84
X121.92Y-116.84
X124.46Y-116.84
X127.0Y-116.84
X129.54Y-116.84
X132.08Y-116.84
X134.62Y-116.84
X137.16Y-116.84
X139.7Y-116.84
X142.24Y-116.84
X144.78Y-116.84
X147.32Y-116.84
X149.86Y-116.84
X152.4Y-116.84
X154.94Y-116.84
X157.48Y-116.84
X160.02Y-116.84
X162.56Y-116.84
X165.1Y-116.84
X167.64Y-116.84
X170.18Y-116.84
X172.72Y-116.84
X175.26Y-116.84
X176.53Y-100.33
X176.53Y-102.87
X177.8Y-116.84
X179.07Y-100.33
X179.07Y-102.87
X180.34Y-116.84
X181.61Y-73.66
X181.61Y-81.28
X181.61Y-100.33
X181.61Y-102.87
X182.88Y-116.84
X184.15Y-100.33
X184.15Y-102.87
X185.42Y-116.84
X186.69Y-100.33
X186.69Y-102.87
X187.96Y-116.84
X189.23Y-73.66
X189.23Y-81.28
X189.23Y-100.33
X189.23Y-102.87
X190.5Y-116.84
X191.77Y-100.33
X191.77Y-102.87
X193.04Y-116.84
X194.31Y-100.33
X194.31Y-102.87
X195.58Y-116.84
X196.85Y-73.66
X196.85Y-81.28
X196.85Y-100.33
X196.85Y-102.87
X198.12Y-116.84
X200.66Y-116.84
T5
X114.221Y-75.637
X117.403Y-78.819
X118.817Y-71.041
X121.999Y-74.223
M30
